NimbusMonL-BoldObli.ufo
<glyph name="quotedbl" format="1">
  <advance width="600"/>
  <unicode hex="0022"/>
  <outline>
    <contour>
      <point x="264" y="602" type="line"/>
      <point x="392" y="602" type="line"/>
      <point x="306" y="348" type="line" smooth="yes"/>
      <point x="298" y="323"/>
      <point x="287" y="312"/>
      <point x="267" y="312" type="curve" smooth="yes"/>
      <point x="253" y="312"/>
      <point x="243" y="322"/>
      <point x="243" y="335" type="curve" smooth="yes"/>
      <point x="243" y="337"/>
      <point x="243" y="342"/>
      <point x="244" y="347" type="curve" smooth="yes"/>
    </contour>
    <contour>
      <point x="464" y="602" type="line"/>
      <point x="592" y="602" type="line"/>
      <point x="507" y="348" type="line" smooth="yes"/>
      <point x="498" y="322"/>
      <point x="487" y="312"/>
      <point x="467" y="312" type="curve" smooth="yes"/>
      <point x="453" y="312"/>
      <point x="443" y="322"/>
      <point x="443" y="335" type="curve" smooth="yes"/>
      <point x="443" y="336"/>
      <point x="443" y="342"/>
      <point x="444" y="347" type="curve" smooth="yes"/>
    </contour>
  </outline>
</glyph>
<glyph name="ampersand" format="1">
  <advance width="600"/>
  <unicode hex="0026"/>
  <outline>
    <contour>
      <point x="407" y="198" type="line"/>
      <point x="448" y="280" type="line"/>
      <point x="500" y="280" type="line" smooth="yes"/>
      <point x="520" y="280"/>
      <point x="527" y="279"/>
      <point x="535" y="276" type="curve" smooth="yes"/>
      <point x="548" y="271"/>
      <point x="557" y="256"/>
      <point x="557" y="241" type="curve" smooth="yes"/>
      <point x="557" y="210"/>
      <point x="531" y="182"/>
      <point x="502" y="180" type="curve"/>
      <point x="483" y="140"/>
      <point x="472" y="121"/>
      <point x="455" y="100" type="curve"/>
      <point x="463" y="100" type="line" smooth="yes"/>
      <point x="483" y="100"/>
      <point x="490" y="99"/>
      <point x="498" y="96" type="curve" smooth="yes"/>
      <point x="511" y="92"/>
      <point x="520" y="77"/>
      <point x="520" y="60" type="curve" smooth="yes"/>
      <point x="520" y="44"/>
      <point x="511" y="26"/>
      <point x="497" y="15" type="curve" smooth="yes"/>
      <point x="483" y="3"/>
      <point x="470" y="0"/>
      <point x="442" y="0" type="curve" smooth="yes"/>
      <point x="381" y="0" type="line"/>
      <point x="373" y="15" type="line"/>
      <point x="339" y="-6"/>
      <point x="307" y="-14"/>
      <point x="255" y="-14" type="curve" smooth="yes"/>
      <point x="160" y="-14"/>
      <point x="102" y="32"/>
      <point x="102" y="106" type="curve" smooth="yes"/>
      <point x="102" y="186"/>
      <point x="152" y="260"/>
      <point x="236" y="303" type="curve"/>
      <point x="223" y="336"/>
      <point x="219" y="355"/>
      <point x="219" y="374" type="curve" smooth="yes"/>
      <point x="219" y="460"/>
      <point x="315" y="550"/>
      <point x="406" y="550" type="curve" smooth="yes"/>
      <point x="430" y="550"/>
      <point x="449" y="545"/>
      <point x="473" y="533" type="curve"/>
      <point x="485" y="538"/>
      <point x="495" y="540"/>
      <point x="503" y="540" type="curve" smooth="yes"/>
      <point x="523" y="540"/>
      <point x="541" y="521"/>
      <point x="541" y="501" type="curve" smooth="yes"/>
      <point x="541" y="473"/>
      <point x="528" y="458"/>
      <point x="488" y="438" type="curve"/>
      <point x="441" y="416" type="line"/>
      <point x="419" y="442"/>
      <point x="405" y="450"/>
      <point x="385" y="450" type="curve" smooth="yes"/>
      <point x="353" y="450"/>
      <point x="321" y="421"/>
      <point x="321" y="392" type="curve" smooth="yes"/>
      <point x="321" y="384"/>
      <point x="328" y="362"/>
      <point x="338" y="343" type="curve" smooth="yes"/>
    </contour>
    <contour>
      <point x="333" y="100" type="curve"/>
      <point x="275" y="220" type="line"/>
      <point x="231" y="201"/>
      <point x="204" y="167"/>
      <point x="204" y="129" type="curve" smooth="yes"/>
      <point x="204" y="100"/>
      <point x="228" y="86"/>
      <point x="275" y="86" type="curve" smooth="yes"/>
      <point x="300" y="86"/>
      <point x="312" y="89"/>
    </contour>
  </outline>
</glyph>
<glyph name="quotesingle" format="1">
  <advance width="600"/>
  <unicode hex="0027"/>
  <outline>
    <contour>
      <point x="364" y="602" type="line"/>
      <point x="492" y="602" type="line"/>
      <point x="407" y="348" type="line" smooth="yes"/>
      <point x="398" y="322"/>
      <point x="387" y="312"/>
      <point x="367" y="312" type="curve" smooth="yes"/>
      <point x="353" y="312"/>
      <point x="343" y="322"/>
      <point x="343" y="335" type="curve" smooth="yes"/>
      <point x="343" y="337"/>
      <point x="343" y="342"/>
      <point x="344" y="347" type="curve" smooth="yes"/>
    </contour>
  </outline>
</glyph>
<glyph name="period" format="1">
  <advance width="600"/>
  <unicode hex="002E"/>
  <outline>
    <contour>
      <point x="305" y="-15" type="curve" smooth="yes"/>
      <point x="288" y="-15" type="line" smooth="yes"/>
      <point x="256" y="-15"/>
      <point x="234" y="7"/>
      <point x="234" y="38" type="curve" smooth="yes"/>
      <point x="234" y="78"/>
      <point x="274" y="117"/>
      <point x="316" y="117" type="curve" smooth="yes"/>
      <point x="333" y="117" type="line" smooth="yes"/>
      <point x="365" y="117"/>
      <point x="387" y="95"/>
      <point x="387" y="65" type="curve" smooth="yes"/>
      <point x="387" y="24"/>
      <point x="347" y="-15"/>
    </contour>
  </outline>
</glyph>
<glyph name="zero" format="1">
  <advance width="600"/>
  <unicode hex="0030"/>
  <outline>
    <contour>
      <point x="593" y="359" type="curve" smooth="yes"/>
      <point x="573" y="264" type="line" smooth="yes"/>
      <point x="554" y="174"/>
      <point x="508" y="93"/>
      <point x="447" y="40" type="curve" smooth="yes"/>
      <point x="405" y="4"/>
      <point x="354" y="-15"/>
      <point x="296" y="-15" type="curve" smooth="yes"/>
      <point x="190" y="-15"/>
      <point x="130" y="55"/>
      <point x="130" y="179" type="curve" smooth="yes"/>
      <point x="130" y="207"/>
      <point x="133" y="236"/>
      <point x="139" y="264" type="curve" smooth="yes"/>
      <point x="159" y="359" type="line" smooth="yes"/>
      <point x="178" y="449"/>
      <point x="224" y="530"/>
      <point x="285" y="583" type="curve" smooth="yes"/>
      <point x="326" y="619"/>
      <point x="378" y="638"/>
      <point x="436" y="638" type="curve" smooth="yes"/>
      <point x="542" y="638"/>
      <point x="602" y="568"/>
      <point x="602" y="444" type="curve" smooth="yes"/>
      <point x="602" y="416"/>
      <point x="599" y="387"/>
    </contour>
    <contour>
      <point x="260" y="366" type="curve"/>
      <point x="238" y="257" type="line" smooth="yes"/>
      <point x="233" y="237"/>
      <point x="231" y="216"/>
      <point x="231" y="195" type="curve" smooth="yes"/>
      <point x="231" y="126"/>
      <point x="263" y="85"/>
      <point x="318" y="85" type="curve" smooth="yes"/>
      <point x="388" y="85"/>
      <point x="449" y="153"/>
      <point x="471" y="257" type="curve" smooth="yes"/>
      <point x="494" y="366" type="line" smooth="yes"/>
      <point x="499" y="386"/>
      <point x="501" y="407"/>
      <point x="501" y="428" type="curve" smooth="yes"/>
      <point x="501" y="498"/>
      <point x="469" y="538"/>
      <point x="414" y="538" type="curve" smooth="yes"/>
      <point x="343" y="538"/>
      <point x="283" y="470"/>
    </contour>
  </outline>
</glyph>
<glyph name="two" format="1">
  <advance width="600"/>
  <unicode hex="0032"/>
  <outline>
    <contour>
      <point x="228" y="100" type="line"/>
      <point x="430" y="100" type="line"/>
      <point x="440" y="136"/>
      <point x="460" y="154"/>
      <point x="491" y="154" type="curve" smooth="yes"/>
      <point x="514" y="154"/>
      <point x="531" y="138"/>
      <point x="531" y="116" type="curve" smooth="yes"/>
      <point x="531" y="109"/>
      <point x="530" y="105"/>
      <point x="527" y="88" type="curve" smooth="yes"/>
      <point x="508" y="0" type="line"/>
      <point x="54" y="0" type="line"/>
      <point x="76" y="105" type="line"/>
      <point x="258" y="233"/>
      <point x="300" y="263"/>
      <point x="350" y="301" type="curve" smooth="yes"/>
      <point x="483" y="403"/>
      <point x="500" y="422"/>
      <point x="500" y="465" type="curve" smooth="yes"/>
      <point x="500" y="507"/>
      <point x="459" y="538"/>
      <point x="403" y="538" type="curve" smooth="yes"/>
      <point x="363" y="538"/>
      <point x="324" y="523"/>
      <point x="297" y="497" type="curve" smooth="yes"/>
      <point x="284" y="485"/>
      <point x="283" y="483"/>
      <point x="265" y="451" type="curve" smooth="yes"/>
      <point x="256" y="434"/>
      <point x="235" y="422"/>
      <point x="214" y="422" type="curve" smooth="yes"/>
      <point x="192" y="422"/>
      <point x="173" y="439"/>
      <point x="173" y="460" type="curve" smooth="yes"/>
      <point x="173" y="491"/>
      <point x="212" y="546"/>
      <point x="258" y="582" type="curve" smooth="yes"/>
      <point x="305" y="618"/>
      <point x="366" y="638"/>
      <point x="426" y="638" type="curve" smooth="yes"/>
      <point x="530" y="638"/>
      <point x="602" y="575"/>
      <point x="602" y="484" type="curve" smooth="yes"/>
      <point x="602" y="437"/>
      <point x="584" y="391"/>
      <point x="551" y="352" type="curve" smooth="yes"/>
      <point x="523" y="320"/>
      <point x="459" y="268"/>
      <point x="352" y="189" type="curve"/>
      <point x="276" y="135" type="line"/>
    </contour>
  </outline>
</glyph>
<glyph name="four" format="1">
  <advance width="600"/>
  <unicode hex="0034"/>
  <outline>
    <contour>
      <point x="579" y="622" type="line"/>
      <point x="497" y="238" type="line"/>
      <point x="533" y="238"/>
      <point x="549" y="226"/>
      <point x="549" y="198" type="curve" smooth="yes"/>
      <point x="549" y="182"/>
      <point x="540" y="165"/>
      <point x="526" y="153" type="curve" smooth="yes"/>
      <point x="512" y="141"/>
      <point x="502" y="138"/>
      <point x="476" y="138" type="curve"/>
      <point x="468" y="100" type="line"/>
      <point x="503" y="100"/>
      <point x="520" y="87"/>
      <point x="520" y="60" type="curve" smooth="yes"/>
      <point x="520" y="44"/>
      <point x="511" y="27"/>
      <point x="497" y="15" type="curve" smooth="yes"/>
      <point x="483" y="4"/>
      <point x="469" y="0"/>
      <point x="441" y="0" type="curve" smooth="yes"/>
      <point x="309" y="0" type="line" smooth="yes"/>
      <point x="268" y="0"/>
      <point x="252" y="12"/>
      <point x="252" y="40" type="curve" smooth="yes"/>
      <point x="252" y="56"/>
      <point x="261" y="73"/>
      <point x="275" y="85" type="curve" smooth="yes"/>
      <point x="290" y="97"/>
      <point x="299" y="100"/>
      <point x="330" y="100" type="curve" smooth="yes"/>
      <point x="368" y="100" type="line"/>
      <point x="376" y="138" type="line"/>
      <point x="104" y="138" type="line"/>
      <point x="122" y="221" type="line"/>
      <point x="448" y="622" type="line"/>
    </contour>
    <contour>
      <point x="397" y="238" type="line"/>
      <point x="449" y="480" type="line"/>
      <point x="248" y="238" type="line"/>
    </contour>
  </outline>
</glyph>
<glyph name="seven" format="1">
  <advance width="600"/>
  <unicode hex="0037"/>
  <outline>
    <contour>
      <point x="513" y="522" type="line"/>
      <point x="285" y="522" type="line"/>
      <point x="275" y="486"/>
      <point x="255" y="468"/>
      <point x="224" y="468" type="curve" smooth="yes"/>
      <point x="201" y="468"/>
      <point x="184" y="484"/>
      <point x="184" y="506" type="curve" smooth="yes"/>
      <point x="184" y="512"/>
      <point x="185" y="521"/>
      <point x="188" y="534" type="curve" smooth="yes"/>
      <point x="207" y="622" type="line"/>
      <point x="640" y="622" type="line"/>
      <point x="619" y="523" type="line"/>
      <point x="359" y="48" type="line" smooth="yes"/>
      <point x="339" y="12"/>
      <point x="322" y="-1"/>
      <point x="295" y="-1" type="curve" smooth="yes"/>
      <point x="273" y="-1"/>
      <point x="254" y="17"/>
      <point x="254" y="37" type="curve" smooth="yes"/>
      <point x="254" y="48"/>
      <point x="257" y="57"/>
      <point x="270" y="81" type="curve" smooth="yes"/>
    </contour>
  </outline>
</glyph>
<glyph name="nine" format="1">
  <advance width="600"/>
  <unicode hex="0039"/>
  <outline>
    <contour>
      <point x="502" y="299" type="curve"/>
      <point x="442" y="248"/>
      <point x="401" y="229"/>
      <point x="350" y="229" type="curve" smooth="yes"/>
      <point x="263" y="229"/>
      <point x="197" y="296"/>
      <point x="197" y="385" type="curve" smooth="yes"/>
      <point x="197" y="443"/>
      <point x="221" y="507"/>
      <point x="260" y="553" type="curve" smooth="yes"/>
      <point x="309" y="610"/>
      <point x="371" y="638"/>
      <point x="450" y="638" type="curve" smooth="yes"/>
      <point x="566" y="638"/>
      <point x="624" y="573"/>
      <point x="624" y="443" type="curve" smooth="yes"/>
      <point x="624" y="347"/>
      <point x="597" y="255"/>
      <point x="547" y="180" type="curve"/>
      <point x="506" y="121"/>
      <point x="445" y="65"/>
      <point x="380" y="29" type="curve" smooth="yes"/>
      <point x="326" y="-1"/>
      <point x="276" y="-15"/>
      <point x="219" y="-15" type="curve" smooth="yes"/>
      <point x="157" y="-15"/>
      <point x="115" y="7"/>
      <point x="115" y="40" type="curve" smooth="yes"/>
      <point x="115" y="71"/>
      <point x="146" y="101"/>
      <point x="178" y="101" type="curve" smooth="yes"/>
      <point x="187" y="101"/>
      <point x="197" y="99"/>
      <point x="212" y="93" type="curve" smooth="yes"/>
      <point x="222" y="89"/>
      <point x="226" y="88"/>
      <point x="235" y="88" type="curve" smooth="yes"/>
      <point x="325" y="88"/>
      <point x="431" y="160"/>
      <point x="483" y="257" type="curve" smooth="yes"/>
      <point x="489" y="268"/>
      <point x="492" y="275"/>
    </contour>
    <contour>
      <point x="516" y="414" type="curve"/>
      <point x="517" y="420"/>
      <point x="517" y="426"/>
      <point x="517" y="428" type="curve" smooth="yes"/>
      <point x="517" y="461"/>
      <point x="508" y="496"/>
      <point x="495" y="513" type="curve"/>
      <point x="482" y="528"/>
      <point x="457" y="538"/>
      <point x="426" y="538" type="curve" smooth="yes"/>
      <point x="383" y="538"/>
      <point x="351" y="522"/>
      <point x="328" y="489" type="curve" smooth="yes"/>
      <point x="311" y="465"/>
      <point x="300" y="434"/>
      <point x="300" y="408" type="curve" smooth="yes"/>
      <point x="300" y="363"/>
      <point x="333" y="329"/>
      <point x="377" y="329" type="curve" smooth="yes"/>
      <point x="421" y="329"/>
      <point x="478" y="364"/>
    </contour>
  </outline>
</glyph>
<glyph name="less" format="1">
  <advance width="600"/>
  <unicode hex="003C"/>
  <outline>
    <contour>
      <point x="311" y="279" type="line"/>
      <point x="543" y="143" type="line" smooth="yes"/>
      <point x="561" y="132"/>
      <point x="567" y="124"/>
      <point x="567" y="109" type="curve" smooth="yes"/>
      <point x="567" y="100"/>
      <point x="563" y="90"/>
      <point x="557" y="81" type="curve"/>
      <point x="556" y="79" type="line"/>
      <point x="546" y="65"/>
      <point x="528" y="54"/>
      <point x="514" y="54" type="curve" smooth="yes"/>
      <point x="506" y="54"/>
      <point x="496" y="57"/>
      <point x="486" y="63" type="curve" smooth="yes"/>
      <point x="102" y="280" type="line"/>
      <point x="577" y="492" type="line" smooth="yes"/>
      <point x="590" y="498"/>
      <point x="601" y="501"/>
      <point x="609" y="501" type="curve" smooth="yes"/>
      <point x="623" y="501"/>
      <point x="636" y="490"/>
      <point x="640" y="476" type="curve"/>
      <point x="641" y="474" type="line" smooth="yes"/>
      <point x="642" y="470"/>
      <point x="642" y="467"/>
      <point x="642" y="463" type="curve" smooth="yes"/>
      <point x="642" y="442"/>
      <point x="629" y="425"/>
      <point x="600" y="412" type="curve" smooth="yes"/>
    </contour>
  </outline>
</glyph>
<glyph name="greater" format="1">
  <advance width="600"/>
  <unicode hex="003E"/>
  <outline>
    <contour>
      <point x="407" y="275" type="line"/>
      <point x="175" y="412" type="line" smooth="yes"/>
      <point x="157" y="422"/>
      <point x="151" y="430"/>
      <point x="151" y="445" type="curve" smooth="yes"/>
      <point x="151" y="453"/>
      <point x="154" y="463"/>
      <point x="161" y="473" type="curve"/>
      <point x="162" y="475" type="line"/>
      <point x="171" y="488"/>
      <point x="190" y="500"/>
      <point x="204" y="500" type="curve" smooth="yes"/>
      <point x="212" y="500"/>
      <point x="222" y="497"/>
      <point x="232" y="491" type="curve" smooth="yes"/>
      <point x="616" y="274" type="line"/>
      <point x="141" y="62" type="line" smooth="yes"/>
      <point x="128" y="56"/>
      <point x="116" y="53"/>
      <point x="109" y="53" type="curve" smooth="yes"/>
      <point x="95" y="53"/>
      <point x="82" y="64"/>
      <point x="78" y="78" type="curve"/>
      <point x="77" y="80" type="line" smooth="yes"/>
      <point x="76" y="84"/>
      <point x="76" y="87"/>
      <point x="76" y="91" type="curve" smooth="yes"/>
      <point x="76" y="113"/>
      <point x="89" y="129"/>
      <point x="118" y="142" type="curve" smooth="yes"/>
    </contour>
  </outline>
</glyph>
<glyph name="at" format="1">
  <advance width="600"/>
  <unicode hex="0040"/>
  <outline>
    <contour>
      <point x="492" y="398" type="curve"/>
      <point x="498" y="429" type="line" smooth="yes"/>
      <point x="500" y="439"/>
      <point x="501" y="447"/>
      <point x="501" y="458" type="curve" smooth="yes"/>
      <point x="501" y="509"/>
      <point x="469" y="541"/>
      <point x="417" y="541" type="curve" smooth="yes"/>
      <point x="333" y="541"/>
      <point x="249" y="445"/>
      <point x="222" y="317" type="curve" smooth="yes"/>
      <point x="189" y="161" type="line" smooth="yes"/>
      <point x="182" y="130"/>
      <point x="179" y="103"/>
      <point x="179" y="78" type="curve" smooth="yes"/>
      <point x="179" y="22"/>
      <point x="194" y="-27"/>
      <point x="220" y="-51" type="curve" smooth="yes"/>
      <point x="237" y="-67"/>
      <point x="258" y="-74"/>
      <point x="289" y="-74" type="curve" smooth="yes"/>
      <point x="334" y="-74"/>
      <point x="376" y="-62"/>
      <point x="399" y="-42" type="curve" smooth="yes"/>
      <point x="416" y="-28"/>
      <point x="422" y="-25"/>
      <point x="434" y="-25" type="curve" smooth="yes"/>
      <point x="453" y="-25"/>
      <point x="466" y="-38"/>
      <point x="466" y="-57" type="curve" smooth="yes"/>
      <point x="466" y="-107"/>
      <point x="373" y="-152"/>
      <point x="269" y="-152" type="curve" smooth="yes"/>
      <point x="204" y="-152"/>
      <point x="161" y="-131"/>
      <point x="133" y="-85" type="curve" smooth="yes"/>
      <point x="110" y="-47"/>
      <point x="98" y="1"/>
      <point x="98" y="59" type="curve" smooth="yes"/>
      <point x="98" y="90"/>
      <point x="101" y="122"/>
      <point x="108" y="154" type="curve" smooth="yes"/>
      <point x="144" y="323" type="line" smooth="yes"/>
      <point x="181" y="495"/>
      <point x="302" y="620"/>
      <point x="433" y="620" type="curve" smooth="yes"/>
      <point x="524" y="620"/>
      <point x="582" y="563"/>
      <point x="582" y="473" type="curve" smooth="yes"/>
      <point x="582" y="459"/>
      <point x="580" y="444"/>
      <point x="577" y="429" type="curve" smooth="yes"/>
      <point x="517" y="148" type="line"/>
      <point x="530" y="142"/>
      <point x="534" y="135"/>
      <point x="534" y="122" type="curve" smooth="yes"/>
      <point x="534" y="108"/>
      <point x="527" y="94"/>
      <point x="515" y="84" type="curve" smooth="yes"/>
      <point x="503" y="74"/>
      <point x="494" y="72"/>
      <point x="469" y="72" type="curve" smooth="yes"/>
      <point x="396" y="72" type="line" smooth="yes"/>
      <point x="316" y="72"/>
      <point x="262" y="122"/>
      <point x="262" y="196" type="curve" smooth="yes"/>
      <point x="262" y="299"/>
      <point x="364" y="389"/>
    </contour>
    <contour>
      <point x="440" y="155" type="curve"/>
      <point x="474" y="316" type="line"/>
      <point x="400" y="309"/>
      <point x="343" y="264"/>
      <point x="343" y="211" type="curve" smooth="yes"/>
      <point x="343" y="177"/>
      <point x="372" y="153"/>
      <point x="413" y="153" type="curve" smooth="yes"/>
      <point x="419" y="153"/>
      <point x="426" y="153"/>
    </contour>
  </outline>
</glyph>
<glyph name="P" format="1">
  <advance width="600"/>
  <unicode hex="0050"/>
  <outline>
    <contour>
      <point x="237" y="200" type="line"/>
      <point x="216" y="100" type="line"/>
      <point x="314" y="100" type="line" smooth="yes"/>
      <point x="334" y="100"/>
      <point x="341" y="99"/>
      <point x="349" y="96" type="curve" smooth="yes"/>
      <point x="361" y="92"/>
      <point x="371" y="76"/>
      <point x="371" y="61" type="curve" smooth="yes"/>
      <point x="371" y="45"/>
      <point x="362" y="26"/>
      <point x="348" y="15" type="curve" smooth="yes"/>
      <point x="335" y="4"/>
      <point x="321" y="0"/>
      <point x="293" y="0" type="curve" smooth="yes"/>
      <point x="80" y="0" type="line" smooth="yes"/>
      <point x="39" y="0"/>
      <point x="23" y="12"/>
      <point x="23" y="40" type="curve" smooth="yes"/>
      <point x="23" y="56"/>
      <point x="32" y="73"/>
      <point x="46" y="85" type="curve" smooth="yes"/>
      <point x="60" y="97"/>
      <point x="70" y="100"/>
      <point x="101" y="100" type="curve" smooth="yes"/>
      <point x="116" y="100" type="line"/>
      <point x="197" y="483" type="line"/>
      <point x="182" y="483" type="line" smooth="yes"/>
      <point x="140" y="483"/>
      <point x="125" y="494"/>
      <point x="125" y="523" type="curve" smooth="yes"/>
      <point x="125" y="539"/>
      <point x="134" y="556"/>
      <point x="148" y="569" type="curve"/>
      <point x="163" y="581"/>
      <point x="172" y="583"/>
      <point x="203" y="583" type="curve" smooth="yes"/>
      <point x="436" y="583" type="line" smooth="yes"/>
      <point x="548" y="583"/>
      <point x="617" y="525"/>
      <point x="617" y="431" type="curve" smooth="yes"/>
      <point x="617" y="384"/>
      <point x="596" y="331"/>
      <point x="558" y="289" type="curve" smooth="yes"/>
      <point x="502" y="225"/>
      <point x="440" y="200"/>
      <point x="335" y="200" type="curve" smooth="yes"/>
    </contour>
    <contour>
      <point x="297" y="483" type="line"/>
      <point x="258" y="300" type="line"/>
      <point x="376" y="300" type="line" smooth="yes"/>
      <point x="454" y="300"/>
      <point x="509" y="347"/>
      <point x="509" y="414" type="curve" smooth="yes"/>
      <point x="509" y="457"/>
      <point x="473" y="483"/>
      <point x="415" y="483" type="curve" smooth="yes"/>
    </contour>
  </outline>
</glyph>
<glyph name="backslash" format="1">
  <advance width="600"/>
  <unicode hex="005C"/>
  <outline>
    <contour>
      <point x="322" y="651" type="curve" smooth="yes"/>
      <point x="499" y="-27" type="line" smooth="yes"/>
      <point x="502" y="-38"/>
      <point x="504" y="-48"/>
      <point x="504" y="-54" type="curve" smooth="yes"/>
      <point x="504" y="-84"/>
      <point x="474" y="-113"/>
      <point x="443" y="-113" type="curve" smooth="yes"/>
      <point x="418" y="-113"/>
      <point x="408" y="-103"/>
      <point x="400" y="-69" type="curve" smooth="yes"/>
      <point x="224" y="610" type="line" smooth="yes"/>
      <point x="220" y="623"/>
      <point x="219" y="630"/>
      <point x="219" y="636" type="curve" smooth="yes"/>
      <point x="219" y="666"/>
      <point x="249" y="695"/>
      <point x="280" y="695" type="curve" smooth="yes"/>
      <point x="304" y="695"/>
      <point x="314" y="685"/>
    </contour>
  </outline>
</glyph>
<glyph name="bracketright" format="1">
  <advance width="600"/>
  <unicode hex="005D"/>
  <outline>
    <contour>
      <point x="240" y="-48" type="line"/>
      <point x="362" y="527" type="line"/>
      <point x="303" y="527" type="line" smooth="yes"/>
      <point x="283" y="527"/>
      <point x="277" y="528"/>
      <point x="268" y="531" type="curve" smooth="yes"/>
      <point x="255" y="535"/>
      <point x="246" y="550"/>
      <point x="246" y="566" type="curve" smooth="yes"/>
      <point x="246" y="583"/>
      <point x="255" y="600"/>
      <point x="269" y="612" type="curve" smooth="yes"/>
      <point x="283" y="624"/>
      <point x="295" y="627"/>
      <point x="324" y="627" type="curve" smooth="yes"/>
      <point x="483" y="627" type="line"/>
      <point x="318" y="-148" type="line"/>
      <point x="160" y="-148" type="line" smooth="yes"/>
      <point x="140" y="-148"/>
      <point x="134" y="-147"/>
      <point x="126" y="-144" type="curve" smooth="yes"/>
      <point x="113" y="-139"/>
      <point x="104" y="-125"/>
      <point x="104" y="-109" type="curve" smooth="yes"/>
      <point x="104" y="-93"/>
      <point x="113" y="-75"/>
      <point x="127" y="-63" type="curve" smooth="yes"/>
      <point x="141" y="-51"/>
      <point x="152" y="-48"/>
      <point x="182" y="-48" type="curve" smooth="yes"/>
    </contour>
  </outline>
</glyph>
<glyph name="b" format="1">
  <advance width="600"/>
  <unicode hex="0062"/>
  <outline>
    <contour>
      <point x="307" y="624" type="line"/>
      <point x="259" y="401" type="line"/>
      <point x="309" y="435"/>
      <point x="360" y="451"/>
      <point x="418" y="451" type="curve" smooth="yes"/>
      <point x="479" y="451"/>
      <point x="528" y="437"/>
      <point x="560" y="409" type="curve"/>
      <point x="600" y="376"/>
      <point x="623" y="324"/>
      <point x="623" y="269" type="curve" smooth="yes"/>
      <point x="623" y="201"/>
      <point x="592" y="129"/>
      <point x="541" y="77" type="curve" smooth="yes"/>
      <point x="481" y="16"/>
      <point x="409" y="-14"/>
      <point x="321" y="-14" type="curve" smooth="yes"/>
      <point x="263" y="-14"/>
      <point x="226" y="-1"/>
      <point x="182" y="35" type="curve"/>
      <point x="174" y="0" type="line"/>
      <point x="58" y="0" type="line" smooth="yes"/>
      <point x="18" y="0"/>
      <point x="2" y="11"/>
      <point x="2" y="40" type="curve" smooth="yes"/>
      <point x="2" y="56"/>
      <point x="11" y="73"/>
      <point x="25" y="85" type="curve" smooth="yes"/>
      <point x="39" y="97"/>
      <point x="49" y="100"/>
      <point x="80" y="100" type="curve" smooth="yes"/>
      <point x="96" y="100" type="line"/>
      <point x="186" y="524" type="line"/>
      <point x="170" y="524" type="line" smooth="yes"/>
      <point x="128" y="524"/>
      <point x="113" y="535"/>
      <point x="113" y="564" type="curve" smooth="yes"/>
      <point x="113" y="580"/>
      <point x="122" y="598"/>
      <point x="136" y="610" type="curve" smooth="yes"/>
      <point x="150" y="621"/>
      <point x="160" y="624"/>
      <point x="191" y="624" type="curve" smooth="yes"/>
    </contour>
    <contour>
      <point x="395" y="351" type="curve" smooth="yes"/>
      <point x="337" y="351"/>
      <point x="291" y="329"/>
      <point x="255" y="286" type="curve" smooth="yes"/>
      <point x="231" y="258"/>
      <point x="218" y="224"/>
      <point x="218" y="193" type="curve" smooth="yes"/>
      <point x="218" y="126"/>
      <point x="264" y="86"/>
      <point x="343" y="86" type="curve" smooth="yes"/>
      <point x="400" y="86"/>
      <point x="448" y="108"/>
      <point x="483" y="151" type="curve" smooth="yes"/>
      <point x="506" y="179"/>
      <point x="520" y="213"/>
      <point x="520" y="244" type="curve" smooth="yes"/>
      <point x="520" y="279"/>
      <point x="505" y="310"/>
      <point x="478" y="330" type="curve" smooth="yes"/>
      <point x="460" y="344"/>
      <point x="431" y="351"/>
    </contour>
  </outline>
</glyph>
<glyph name="h" format="1">
  <advance width="600"/>
  <unicode hex="0068"/>
  <outline>
    <contour>
      <point x="328" y="624" type="line"/>
      <point x="278" y="389" type="line"/>
      <point x="327" y="430"/>
      <point x="376" y="450"/>
      <point x="428" y="450" type="curve" smooth="yes"/>
      <point x="516" y="450"/>
      <point x="574" y="401"/>
      <point x="574" y="325" type="curve" smooth="yes"/>
      <point x="574" y="312"/>
      <point x="573" y="298"/>
      <point x="570" y="284" type="curve" smooth="yes"/>
      <point x="530" y="100" type="line"/>
      <point x="536" y="100" type="line" smooth="yes"/>
      <point x="557" y="100"/>
      <point x="563" y="99"/>
      <point x="571" y="96" type="curve" smooth="yes"/>
      <point x="584" y="91"/>
      <point x="593" y="76"/>
      <point x="593" y="60" type="curve" smooth="yes"/>
      <point x="593" y="44"/>
      <point x="584" y="27"/>
      <point x="570" y="15" type="curve" smooth="yes"/>
      <point x="556" y="3"/>
      <point x="544" y="0"/>
      <point x="515" y="0" type="curve" smooth="yes"/>
      <point x="403" y="0" type="line" smooth="yes"/>
      <point x="362" y="0"/>
      <point x="346" y="11"/>
      <point x="346" y="40" type="curve" smooth="yes"/>
      <point x="346" y="56"/>
      <point x="355" y="73"/>
      <point x="369" y="85" type="curve" smooth="yes"/>
      <point x="384" y="97"/>
      <point x="394" y="100"/>
      <point x="425" y="100" type="curve" smooth="yes"/>
      <point x="431" y="100" type="line"/>
      <point x="467" y="271" type="line" smooth="yes"/>
      <point x="470" y="283"/>
      <point x="471" y="294"/>
      <point x="471" y="302" type="curve" smooth="yes"/>
      <point x="471" y="331"/>
      <point x="442" y="350"/>
      <point x="396" y="350" type="curve" smooth="yes"/>
      <point x="348" y="350"/>
      <point x="324" y="339"/>
      <point x="256" y="283" type="curve"/>
      <point x="217" y="100" type="line"/>
      <point x="223" y="100" type="line" smooth="yes"/>
      <point x="243" y="100"/>
      <point x="249" y="99"/>
      <point x="258" y="96" type="curve" smooth="yes"/>
      <point x="270" y="91"/>
      <point x="280" y="76"/>
      <point x="280" y="60" type="curve" smooth="yes"/>
      <point x="280" y="44"/>
      <point x="271" y="26"/>
      <point x="257" y="15" type="curve" smooth="yes"/>
      <point x="243" y="3"/>
      <point x="230" y="0"/>
      <point x="201" y="0" type="curve" smooth="yes"/>
      <point x="89" y="0" type="line" smooth="yes"/>
      <point x="49" y="0"/>
      <point x="33" y="11"/>
      <point x="33" y="40" type="curve" smooth="yes"/>
      <point x="33" y="56"/>
      <point x="42" y="73"/>
      <point x="56" y="85" type="curve" smooth="yes"/>
      <point x="71" y="97"/>
      <point x="80" y="100"/>
      <point x="111" y="100" type="curve" smooth="yes"/>
      <point x="117" y="100" type="line"/>
      <point x="207" y="524" type="line"/>
      <point x="191" y="524" type="line" smooth="yes"/>
      <point x="149" y="524"/>
      <point x="134" y="535"/>
      <point x="134" y="564" type="curve" smooth="yes"/>
      <point x="134" y="580"/>
      <point x="143" y="598"/>
      <point x="157" y="610" type="curve" smooth="yes"/>
      <point x="171" y="621"/>
      <point x="181" y="624"/>
      <point x="212" y="624" type="curve" smooth="yes"/>
    </contour>
  </outline>
</glyph>
<glyph name="m" format="1">
  <advance width="600"/>
  <unicode hex="006D"/>
  <outline>
    <contour>
      <point x="234" y="437" type="line"/>
      <point x="229" y="413" type="line"/>
      <point x="270" y="441"/>
      <point x="292" y="450"/>
      <point x="322" y="450" type="curve" smooth="yes"/>
      <point x="361" y="450"/>
      <point x="391" y="434"/>
      <point x="413" y="401" type="curve"/>
      <point x="452" y="435"/>
      <point x="487" y="450"/>
      <point x="527" y="450" type="curve" smooth="yes"/>
      <point x="590" y="450"/>
      <point x="634" y="409"/>
      <point x="634" y="350" type="curve" smooth="yes"/>
      <point x="634" y="337"/>
      <point x="633" y="330"/>
      <point x="631" y="319" type="curve" smooth="yes"/>
      <point x="584" y="100" type="line"/>
      <point x="618" y="100"/>
      <point x="635" y="87"/>
      <point x="635" y="60" type="curve" smooth="yes"/>
      <point x="635" y="44"/>
      <point x="626" y="27"/>
      <point x="612" y="15" type="curve" smooth="yes"/>
      <point x="598" y="3"/>
      <point x="585" y="0"/>
      <point x="557" y="0" type="curve" smooth="yes"/>
      <point x="463" y="0" type="line"/>
      <point x="529" y="311" type="line" smooth="yes"/>
      <point x="531" y="318"/>
      <point x="531" y="324"/>
      <point x="531" y="330" type="curve" smooth="yes"/>
      <point x="530" y="343"/>
      <point x="521" y="350"/>
      <point x="503" y="350" type="curve" smooth="yes"/>
      <point x="476" y="350"/>
      <point x="459" y="341"/>
      <point x="417" y="305" type="curve"/>
      <point x="374" y="100" type="line"/>
      <point x="407" y="100"/>
      <point x="424" y="87"/>
      <point x="424" y="60" type="curve" smooth="yes"/>
      <point x="424" y="44"/>
      <point x="415" y="27"/>
      <point x="401" y="15" type="curve" smooth="yes"/>
      <point x="387" y="3"/>
      <point x="374" y="0"/>
      <point x="346" y="0" type="curve" smooth="yes"/>
      <point x="252" y="0" type="line"/>
      <point x="318" y="311" type="line" smooth="yes"/>
      <point x="320" y="318"/>
      <point x="321" y="326"/>
      <point x="321" y="329" type="curve" smooth="yes"/>
      <point x="321" y="343"/>
      <point x="311" y="350"/>
      <point x="293" y="350" type="curve" smooth="yes"/>
      <point x="265" y="350"/>
      <point x="243" y="339"/>
      <point x="206" y="305" type="curve"/>
      <point x="163" y="100" type="line"/>
      <point x="197" y="100"/>
      <point x="214" y="87"/>
      <point x="214" y="60" type="curve" smooth="yes"/>
      <point x="214" y="44"/>
      <point x="205" y="27"/>
      <point x="191" y="15" type="curve" smooth="yes"/>
      <point x="177" y="3"/>
      <point x="164" y="0"/>
      <point x="136" y="0" type="curve" smooth="yes"/>
      <point x="48" y="0" type="line" smooth="yes"/>
      <point x="7" y="0"/>
      <point x="-9" y="11"/>
      <point x="-9" y="40" type="curve" smooth="yes"/>
      <point x="-9" y="75"/>
      <point x="21" y="100"/>
      <point x="63" y="100" type="curve"/>
      <point x="113" y="337" type="line"/>
      <point x="79" y="337"/>
      <point x="62" y="350"/>
      <point x="62" y="377" type="curve" smooth="yes"/>
      <point x="62" y="393"/>
      <point x="71" y="410"/>
      <point x="86" y="422" type="curve" smooth="yes"/>
      <point x="100" y="434"/>
      <point x="110" y="437"/>
      <point x="141" y="437" type="curve" smooth="yes"/>
    </contour>
  </outline>
</glyph>
<glyph name="p" format="1">
  <advance width="600"/>
  <unicode hex="0070"/>
  <outline>
    <contour>
      <point x="188" y="66" type="curve"/>
      <point x="152" y="-105" type="line"/>
      <point x="210" y="-105" type="line" smooth="yes"/>
      <point x="228" y="-105"/>
      <point x="236" y="-106"/>
      <point x="244" y="-109" type="curve" smooth="yes"/>
      <point x="257" y="-113"/>
      <point x="266" y="-128"/>
      <point x="266" y="-144" type="curve" smooth="yes"/>
      <point x="266" y="-161"/>
      <point x="257" y="-178"/>
      <point x="243" y="-190" type="curve" smooth="yes"/>
      <point x="229" y="-202"/>
      <point x="218" y="-205"/>
      <point x="188" y="-205" type="curve" smooth="yes"/>
      <point x="14" y="-205" type="line" smooth="yes"/>
      <point x="-26" y="-205"/>
      <point x="-42" y="-194"/>
      <point x="-42" y="-165" type="curve" smooth="yes"/>
      <point x="-42" y="-149"/>
      <point x="-33" y="-132"/>
      <point x="-19" y="-120" type="curve" smooth="yes"/>
      <point x="-5" y="-108"/>
      <point x="5" y="-105"/>
      <point x="36" y="-105" type="curve" smooth="yes"/>
      <point x="52" y="-105" type="line"/>
      <point x="146" y="337" type="line"/>
      <point x="129" y="337" type="line" smooth="yes"/>
      <point x="88" y="337"/>
      <point x="73" y="348"/>
      <point x="73" y="377" type="curve" smooth="yes"/>
      <point x="73" y="393"/>
      <point x="82" y="410"/>
      <point x="96" y="422" type="curve" smooth="yes"/>
      <point x="110" y="434"/>
      <point x="120" y="437"/>
      <point x="151" y="437" type="curve" smooth="yes"/>
      <point x="267" y="437" type="line"/>
      <point x="257" y="392" type="line"/>
      <point x="315" y="434"/>
      <point x="361" y="450"/>
      <point x="423" y="450" type="curve" smooth="yes"/>
      <point x="545" y="450"/>
      <point x="623" y="379"/>
      <point x="623" y="269" type="curve" smooth="yes"/>
      <point x="623" y="127"/>
      <point x="490" y="10"/>
      <point x="329" y="10" type="curve" smooth="yes"/>
      <point x="272" y="10"/>
      <point x="231" y="27"/>
    </contour>
    <contour>
      <point x="398" y="350" type="curve" smooth="yes"/>
      <point x="301" y="350"/>
      <point x="225" y="290"/>
      <point x="221" y="211" type="curve" smooth="yes"/>
      <point x="220" y="186"/>
      <point x="232" y="157"/>
      <point x="251" y="139" type="curve"/>
      <point x="273" y="120"/>
      <point x="304" y="110"/>
      <point x="346" y="110" type="curve" smooth="yes"/>
      <point x="387" y="110"/>
      <point x="423" y="120"/>
      <point x="453" y="139" type="curve" smooth="yes"/>
      <point x="494" y="166"/>
      <point x="522" y="211"/>
      <point x="522" y="252" type="curve" smooth="yes"/>
      <point x="522" y="312"/>
      <point x="473" y="350"/>
    </contour>
  </outline>
</glyph>
<glyph name="q" format="1">
  <advance width="600"/>
  <unicode hex="0071"/>
  <outline>
    <contour>
      <point x="408" y="-105" type="line"/>
      <point x="444" y="66" type="line"/>
      <point x="384" y="26"/>
      <point x="336" y="10"/>
      <point x="277" y="10" type="curve" smooth="yes"/>
      <point x="158" y="10"/>
      <point x="75" y="78"/>
      <point x="75" y="177" type="curve" smooth="yes"/>
      <point x="75" y="250"/>
      <point x="114" y="328"/>
      <point x="177" y="381" type="curve" smooth="yes"/>
      <point x="231" y="426"/>
      <point x="300" y="450"/>
      <point x="373" y="450" type="curve" smooth="yes"/>
      <point x="435" y="450"/>
      <point x="474" y="434"/>
      <point x="514" y="392" type="curve"/>
      <point x="523" y="437" type="line"/>
      <point x="640" y="437" type="line" smooth="yes"/>
      <point x="660" y="437"/>
      <point x="666" y="436"/>
      <point x="674" y="433" type="curve" smooth="yes"/>
      <point x="687" y="428"/>
      <point x="696" y="414"/>
      <point x="696" y="397" type="curve" smooth="yes"/>
      <point x="696" y="381"/>
      <point x="687" y="364"/>
      <point x="673" y="352" type="curve" smooth="yes"/>
      <point x="659" y="340"/>
      <point x="648" y="337"/>
      <point x="618" y="337" type="curve" smooth="yes"/>
      <point x="602" y="337" type="line"/>
      <point x="508" y="-105" type="line"/>
      <point x="524" y="-105" type="line" smooth="yes"/>
      <point x="544" y="-105"/>
      <point x="550" y="-106"/>
      <point x="559" y="-109" type="curve" smooth="yes"/>
      <point x="572" y="-114"/>
      <point x="581" y="-128"/>
      <point x="581" y="-145" type="curve" smooth="yes"/>
      <point x="581" y="-161"/>
      <point x="572" y="-178"/>
      <point x="558" y="-190" type="curve" smooth="yes"/>
      <point x="544" y="-202"/>
      <point x="532" y="-205"/>
      <point x="503" y="-205" type="curve" smooth="yes"/>
      <point x="329" y="-205" type="line" smooth="yes"/>
      <point x="312" y="-205"/>
      <point x="301" y="-204"/>
      <point x="294" y="-201" type="curve" smooth="yes"/>
      <point x="282" y="-197"/>
      <point x="272" y="-181"/>
      <point x="272" y="-166" type="curve" smooth="yes"/>
      <point x="272" y="-150"/>
      <point x="281" y="-131"/>
      <point x="295" y="-120" type="curve" smooth="yes"/>
      <point x="309" y="-108"/>
      <point x="320" y="-105"/>
      <point x="350" y="-105" type="curve" smooth="yes"/>
    </contour>
    <contour>
      <point x="356" y="350" type="curve" smooth="yes"/>
      <point x="314" y="350"/>
      <point x="279" y="340"/>
      <point x="248" y="321" type="curve"/>
      <point x="207" y="294"/>
      <point x="179" y="249"/>
      <point x="179" y="208" type="curve" smooth="yes"/>
      <point x="179" y="148"/>
      <point x="228" y="110"/>
      <point x="305" y="110" type="curve" smooth="yes"/>
      <point x="347" y="110"/>
      <point x="383" y="120"/>
      <point x="413" y="139" type="curve" smooth="yes"/>
      <point x="453" y="165"/>
      <point x="482" y="211"/>
      <point x="482" y="249" type="curve" smooth="yes"/>
      <point x="482" y="313"/>
      <point x="435" y="350"/>
    </contour>
  </outline>
</glyph>
<glyph name="exclamdown" format="1">
  <advance width="600"/>
  <unicode hex="00A1"/>
  <outline>
    <contour>
      <point x="197" y="-114" type="curve" smooth="yes"/>
      <point x="289" y="183" type="line" smooth="yes"/>
      <point x="299" y="214"/>
      <point x="321" y="232"/>
      <point x="349" y="232" type="curve" smooth="yes"/>
      <point x="374" y="232"/>
      <point x="389" y="217"/>
      <point x="389" y="191" type="curve" smooth="yes"/>
      <point x="389" y="189"/>
      <point x="389" y="186"/>
      <point x="388" y="183" type="curve" smooth="yes"/>
      <point x="354" y="-114" type="line" smooth="yes"/>
      <point x="349" y="-158"/>
      <point x="344" y="-173"/>
      <point x="326" y="-192" type="curve"/>
      <point x="307" y="-214"/>
      <point x="279" y="-227"/>
      <point x="252" y="-227" type="curve" smooth="yes"/>
      <point x="213" y="-227"/>
      <point x="186" y="-202"/>
      <point x="186" y="-167" type="curve" smooth="yes"/>
      <point x="186" y="-154"/>
      <point x="189" y="-142"/>
    </contour>
    <contour>
      <point x="382" y="426" type="curve" smooth="yes"/>
      <point x="399" y="426" type="line" smooth="yes"/>
      <point x="431" y="426"/>
      <point x="453" y="404"/>
      <point x="453" y="373" type="curve" smooth="yes"/>
      <point x="453" y="333"/>
      <point x="413" y="294"/>
      <point x="371" y="294" type="curve" smooth="yes"/>
      <point x="353" y="294" type="line" smooth="yes"/>
      <point x="322" y="294"/>
      <point x="300" y="316"/>
      <point x="300" y="346" type="curve" smooth="yes"/>
      <point x="300" y="387"/>
      <point x="339" y="426"/>
    </contour>
  </outline>
</glyph>
<glyph name="cent" format="1">
  <advance width="600"/>
  <unicode hex="00A2"/>
  <outline>
    <contour>
      <point x="372" y="99" type="curve"/>
      <point x="356" y="22" type="line" smooth="yes"/>
      <point x="350" y="-5"/>
      <point x="346" y="-13"/>
      <point x="336" y="-23" type="curve" smooth="yes"/>
      <point x="324" y="-36"/>
      <point x="307" y="-44"/>
      <point x="291" y="-44" type="curve" smooth="yes"/>
      <point x="269" y="-44"/>
      <point x="251" y="-27"/>
      <point x="251" y="-7" type="curve" smooth="yes"/>
      <point x="251" y="1"/>
      <point x="251" y="2"/>
      <point x="255" y="22" type="curve" smooth="yes"/>
      <point x="273" y="103" type="line"/>
      <point x="191" y="124"/>
      <point x="144" y="183"/>
      <point x="144" y="265" type="curve" smooth="yes"/>
      <point x="144" y="380"/>
      <point x="237" y="489"/>
      <point x="361" y="517" type="curve"/>
      <point x="377" y="594" type="line" smooth="yes"/>
      <point x="383" y="621"/>
      <point x="387" y="631"/>
      <point x="397" y="640" type="curve"/>
      <point x="410" y="654"/>
      <point x="426" y="661"/>
      <point x="442" y="661" type="curve" smooth="yes"/>
      <point x="465" y="661"/>
      <point x="482" y="645"/>
      <point x="482" y="623" type="curve" smooth="yes"/>
      <point x="482" y="616"/>
      <point x="482" y="614"/>
      <point x="477" y="594" type="curve" smooth="yes"/>
      <point x="463" y="527" type="line"/>
      <point x="493" y="523"/>
      <point x="514" y="515"/>
      <point x="531" y="503" type="curve"/>
      <point x="540" y="506"/>
      <point x="546" y="507"/>
      <point x="552" y="507" type="curve" smooth="yes"/>
      <point x="576" y="507"/>
      <point x="593" y="491"/>
      <point x="593" y="469" type="curve" smooth="yes"/>
      <point x="593" y="463"/>
      <point x="592" y="456"/>
      <point x="589" y="441" type="curve" smooth="yes"/>
      <point x="580" y="399" type="line" smooth="yes"/>
      <point x="574" y="373"/>
      <point x="571" y="364"/>
      <point x="561" y="354" type="curve" smooth="yes"/>
      <point x="549" y="341"/>
      <point x="531" y="333"/>
      <point x="516" y="333" type="curve" smooth="yes"/>
      <point x="504" y="333"/>
      <point x="490" y="339"/>
      <point x="484" y="347" type="curve" smooth="yes"/>
      <point x="478" y="354"/>
      <point x="478" y="356"/>
      <point x="477" y="384" type="curve" smooth="yes"/>
      <point x="476" y="414"/>
      <point x="456" y="427"/>
      <point x="410" y="427" type="curve" smooth="yes"/>
      <point x="322" y="427"/>
      <point x="246" y="363"/>
      <point x="246" y="288" type="curve" smooth="yes"/>
      <point x="246" y="235"/>
      <point x="290" y="197"/>
      <point x="351" y="197" type="curve" smooth="yes"/>
      <point x="388" y="197"/>
      <point x="425" y="209"/>
      <point x="464" y="233" type="curve" smooth="yes"/>
      <point x="478" y="242"/>
      <point x="488" y="245"/>
      <point x="501" y="245" type="curve" smooth="yes"/>
      <point x="523" y="245"/>
      <point x="541" y="227"/>
      <point x="541" y="204" type="curve" smooth="yes"/>
      <point x="541" y="158"/>
      <point x="472" y="116"/>
    </contour>
  </outline>
</glyph>
<glyph name="sterling" format="1">
  <advance width="600"/>
  <unicode hex="00A3"/>
  <outline>
    <contour>
      <point x="366" y="243" type="curve" smooth="yes"/>
      <point x="320" y="243" type="line"/>
      <point x="309" y="180"/>
      <point x="297" y="148"/>
      <point x="267" y="100" type="curve"/>
      <point x="471" y="100" type="line"/>
      <point x="482" y="130"/>
      <point x="501" y="146"/>
      <point x="530" y="146" type="curve" smooth="yes"/>
      <point x="554" y="146"/>
      <point x="571" y="131"/>
      <point x="571" y="108" type="curve" smooth="yes"/>
      <point x="571" y="83"/>
      <point x="558" y="53"/>
      <point x="539" y="34" type="curve" smooth="yes"/>
      <point x="515" y="10"/>
      <point x="487" y="0"/>
      <point x="442" y="0" type="curve" smooth="yes"/>
      <point x="121" y="0" type="line" smooth="yes"/>
      <point x="80" y="0"/>
      <point x="64" y="11"/>
      <point x="64" y="40" type="curve" smooth="yes"/>
      <point x="64" y="72"/>
      <point x="84" y="92"/>
      <point x="126" y="100" type="curve"/>
      <point x="170" y="104"/>
      <point x="204" y="156"/>
      <point x="219" y="243" type="curve"/>
      <point x="150" y="243" type="line" smooth="yes"/>
      <point x="132" y="243"/>
      <point x="124" y="244"/>
      <point x="115" y="247" type="curve" smooth="yes"/>
      <point x="102" y="252"/>
      <point x="93" y="266"/>
      <point x="93" y="283" type="curve" smooth="yes"/>
      <point x="93" y="299"/>
      <point x="102" y="317"/>
      <point x="116" y="328" type="curve" smooth="yes"/>
      <point x="131" y="341"/>
      <point x="140" y="343"/>
      <point x="172" y="343" type="curve" smooth="yes"/>
      <point x="216" y="343" type="line"/>
      <point x="213" y="361"/>
      <point x="212" y="372"/>
      <point x="212" y="385" type="curve" smooth="yes"/>
      <point x="212" y="504"/>
      <point x="306" y="598"/>
      <point x="425" y="598" type="curve" smooth="yes"/>
      <point x="497" y="598"/>
      <point x="563" y="553"/>
      <point x="563" y="505" type="curve" smooth="yes"/>
      <point x="563" y="474"/>
      <point x="532" y="444"/>
      <point x="501" y="444" type="curve" smooth="yes"/>
      <point x="483" y="444"/>
      <point x="479" y="447"/>
      <point x="461" y="472" type="curve" smooth="yes"/>
      <point x="449" y="490"/>
      <point x="430" y="498"/>
      <point x="404" y="498" type="curve" smooth="yes"/>
      <point x="351" y="498"/>
      <point x="315" y="462"/>
      <point x="315" y="409" type="curve" smooth="yes"/>
      <point x="315" y="399"/>
      <point x="316" y="378"/>
      <point x="318" y="355" type="curve" smooth="yes"/>
      <point x="319" y="343" type="line"/>
      <point x="387" y="343" type="line" smooth="yes"/>
      <point x="407" y="343"/>
      <point x="413" y="342"/>
      <point x="422" y="339" type="curve" smooth="yes"/>
      <point x="435" y="334"/>
      <point x="444" y="320"/>
      <point x="444" y="303" type="curve" smooth="yes"/>
      <point x="444" y="287"/>
      <point x="435" y="270"/>
      <point x="421" y="258" type="curve" smooth="yes"/>
      <point x="406" y="246"/>
      <point x="396" y="243"/>
    </contour>
  </outline>
</glyph>
<glyph name="section" format="1">
  <advance width="600"/>
  <unicode hex="00A7"/>
  <outline>
    <contour>
      <point x="536" y="493" type="line"/>
      <point x="392" y="493" type="line" smooth="yes"/>
      <point x="350" y="493"/>
      <point x="310" y="464"/>
      <point x="310" y="433" type="curve" smooth="yes"/>
      <point x="310" y="410"/>
      <point x="340" y="379"/>
      <point x="397" y="342" type="curve" smooth="yes"/>
      <point x="478" y="291" type="line" smooth="yes"/>
      <point x="569" y="233"/>
      <point x="594" y="204"/>
      <point x="594" y="154" type="curve" smooth="yes"/>
      <point x="594" y="85"/>
      <point x="542" y="27"/>
      <point x="464" y="10" type="curve"/>
      <point x="465" y="7"/>
      <point x="465" y="4"/>
      <point x="465" y="3" type="curve" smooth="yes"/>
      <point x="465" y="-23"/>
      <point x="457" y="-51"/>
      <point x="444" y="-73" type="curve" smooth="yes"/>
      <point x="406" y="-137"/>
      <point x="348" y="-170"/>
      <point x="276" y="-170" type="curve" smooth="yes"/>
      <point x="45" y="-170" type="line"/>
      <point x="72" y="-43" type="line" smooth="yes"/>
      <point x="80" y="-6"/>
      <point x="98" y="12"/>
      <point x="128" y="12" type="curve" smooth="yes"/>
      <point x="149" y="12"/>
      <point x="164" y="-2"/>
      <point x="164" y="-20" type="curve" smooth="yes"/>
      <point x="164" y="-26"/>
      <point x="164" y="-27"/>
      <point x="160" y="-43" type="curve" smooth="yes"/>
      <point x="152" y="-82" type="line"/>
      <point x="297" y="-82" type="line" smooth="yes"/>
      <point x="337" y="-82"/>
      <point x="376" y="-52"/>
      <point x="376" y="-21" type="curve" smooth="yes"/>
      <point x="376" y="2"/>
      <point x="345" y="34"/>
      <point x="291" y="69" type="curve" smooth="yes"/>
      <point x="198" y="130" type="line" smooth="yes"/>
      <point x="123" y="178"/>
      <point x="93" y="215"/>
      <point x="93" y="259" type="curve" smooth="yes"/>
      <point x="93" y="325"/>
      <point x="144" y="382"/>
      <point x="223" y="402" type="curve"/>
      <point x="222" y="408"/>
      <point x="222" y="411"/>
      <point x="222" y="415" type="curve" smooth="yes"/>
      <point x="222" y="444"/>
      <point x="243" y="488"/>
      <point x="270" y="518" type="curve" smooth="yes"/>
      <point x="311" y="563"/>
      <point x="358" y="583"/>
      <point x="418" y="583" type="curve" smooth="yes"/>
      <point x="643" y="583" type="line"/>
      <point x="616" y="456" type="line" smooth="yes"/>
      <point x="608" y="418"/>
      <point x="591" y="401"/>
      <point x="560" y="401" type="curve" smooth="yes"/>
      <point x="541" y="401"/>
      <point x="525" y="415"/>
      <point x="525" y="432" type="curve" smooth="yes"/>
      <point x="525" y="437"/>
      <point x="526" y="449"/>
      <point x="528" y="456" type="curve" smooth="yes"/>
    </contour>
    <contour>
      <point x="261" y="326" type="curve"/>
      <point x="258" y="326" type="line"/>
      <point x="247" y="326" type="line"/>
      <point x="217" y="325"/>
      <point x="193" y="307"/>
      <point x="193" y="284" type="curve" smooth="yes"/>
      <point x="193" y="260"/>
      <point x="213" y="237"/>
      <point x="262" y="205" type="curve" smooth="yes"/>
      <point x="352" y="147" type="line"/>
      <point x="398" y="114"/>
      <point x="412" y="103"/>
      <point x="425" y="88" type="curve"/>
      <point x="433" y="88" type="line"/>
      <point x="443" y="88" type="line"/>
      <point x="472" y="89"/>
      <point x="494" y="106"/>
      <point x="494" y="126" type="curve" smooth="yes"/>
      <point x="494" y="150"/>
      <point x="466" y="181"/>
      <point x="417" y="214" type="curve"/>
      <point x="329" y="271" type="line" smooth="yes"/>
      <point x="300" y="290"/>
      <point x="291" y="297"/>
    </contour>
  </outline>
</glyph>
<glyph name="ordfeminine" format="1">
  <advance width="600"/>
  <unicode hex="00AA"/>
  <outline>
    <contour>
      <point x="415" y="284" type="line"/>
      <point x="417" y="295" type="line"/>
      <point x="374" y="279"/>
      <point x="343" y="273"/>
      <point x="305" y="273" type="curve" smooth="yes"/>
      <point x="241" y="273"/>
      <point x="195" y="307"/>
      <point x="195" y="354" type="curve" smooth="yes"/>
      <point x="195" y="374"/>
      <point x="205" y="397"/>
      <point x="223" y="419" type="curve" smooth="yes"/>
      <point x="261" y="464"/>
      <point x="320" y="487"/>
      <point x="396" y="487" type="curve" smooth="yes"/>
      <point x="416" y="487"/>
      <point x="429" y="486"/>
      <point x="457" y="482" type="curve"/>
      <point x="459" y="490" type="line"/>
      <point x="459" y="496" type="line"/>
      <point x="458" y="511"/>
      <point x="443" y="517"/>
      <point x="406" y="517" type="curve" smooth="yes"/>
      <point x="384" y="517"/>
      <point x="357" y="513"/>
      <point x="326" y="506" type="curve" smooth="yes"/>
      <point x="313" y="503"/>
      <point x="303" y="501"/>
      <point x="296" y="501" type="curve" smooth="yes"/>
      <point x="279" y="501"/>
      <point x="266" y="514"/>
      <point x="266" y="532" type="curve" smooth="yes"/>
      <point x="266" y="549"/>
      <point x="276" y="565"/>
      <point x="292" y="572" type="curve" smooth="yes"/>
      <point x="315" y="583"/>
      <point x="381" y="595"/>
      <point x="420" y="595" type="curve" smooth="yes"/>
      <point x="494" y="595"/>
      <point x="539" y="565"/>
      <point x="539" y="515" type="curve" smooth="yes"/>
      <point x="539" y="504"/>
      <point x="539" y="499"/>
      <point x="537" y="490" type="curve" smooth="yes"/>
      <point x="509" y="362" type="line"/>
      <point x="516" y="362" type="line" smooth="yes"/>
      <point x="548" y="362"/>
      <point x="559" y="354"/>
      <point x="559" y="331" type="curve" smooth="yes"/>
      <point x="559" y="303"/>
      <point x="536" y="284"/>
      <point x="500" y="284" type="curve" smooth="yes"/>
    </contour>
    <contour>
      <point x="436" y="383" type="curve"/>
      <point x="442" y="410" type="line"/>
      <point x="410" y="416"/>
      <point x="396" y="417"/>
      <point x="377" y="417" type="curve" smooth="yes"/>
      <point x="332" y="417"/>
      <point x="288" y="394"/>
      <point x="288" y="370" type="curve" smooth="yes"/>
      <point x="288" y="360"/>
      <point x="305" y="352"/>
      <point x="326" y="352" type="curve" smooth="yes"/>
      <point x="359" y="352"/>
      <point x="404" y="365"/>
    </contour>
    <contour>
      <point x="471" y="182" type="curve" smooth="yes"/>
      <point x="215" y="182" type="line" smooth="yes"/>
      <point x="179" y="182"/>
      <point x="170" y="186"/>
      <point x="170" y="204" type="curve" smooth="yes"/>
      <point x="170" y="246"/>
      <point x="184" y="259"/>
      <point x="232" y="259" type="curve" smooth="yes"/>
      <point x="486" y="259" type="line" smooth="yes"/>
      <point x="519" y="259"/>
      <point x="531" y="251"/>
      <point x="531" y="229" type="curve" smooth="yes"/>
      <point x="531" y="216"/>
      <point x="524" y="203"/>
      <point x="513" y="193" type="curve" smooth="yes"/>
      <point x="502" y="184"/>
      <point x="494" y="182"/>
    </contour>
  </outline>
</glyph>
<glyph name="registered" format="1">
  <advance width="600"/>
  <unicode hex="00AE"/>
  <outline>
    <contour>
      <point x="321" y="246" type="line"/>
      <point x="311" y="197" type="line"/>
      <point x="335" y="197"/>
      <point x="346" y="188"/>
      <point x="346" y="169" type="curve" smooth="yes"/>
      <point x="346" y="144"/>
      <point x="324" y="126"/>
      <point x="294" y="126" type="curve" smooth="yes"/>
      <point x="225" y="126" type="line" smooth="yes"/>
      <point x="200" y="126"/>
      <point x="187" y="135"/>
      <point x="187" y="154" type="curve" smooth="yes"/>
      <point x="187" y="179"/>
      <point x="208" y="197"/>
      <point x="239" y="197" type="curve"/>
      <point x="279" y="387" type="line"/>
      <point x="254" y="388"/>
      <point x="243" y="396"/>
      <point x="243" y="416" type="curve" smooth="yes"/>
      <point x="243" y="441"/>
      <point x="264" y="458"/>
      <point x="296" y="458" type="curve" smooth="yes"/>
      <point x="389" y="458" type="line" smooth="yes"/>
      <point x="455" y="458"/>
      <point x="496" y="426"/>
      <point x="496" y="373" type="curve" smooth="yes"/>
      <point x="496" y="329"/>
      <point x="464" y="287"/>
      <point x="415" y="266" type="curve"/>
      <point x="434" y="244"/>
      <point x="439" y="235"/>
      <point x="453" y="197" type="curve"/>
      <point x="473" y="195"/>
      <point x="482" y="187"/>
      <point x="482" y="169" type="curve" smooth="yes"/>
      <point x="482" y="144"/>
      <point x="461" y="126"/>
      <point x="430" y="126" type="curve" smooth="yes"/>
      <point x="390" y="126" type="line"/>
      <point x="388" y="175"/>
      <point x="362" y="233"/>
      <point x="336" y="246" type="curve"/>
    </contour>
    <contour>
      <point x="336" y="316" type="line"/>
      <point x="362" y="316" type="line" smooth="yes"/>
      <point x="395" y="316"/>
      <point x="424" y="337"/>
      <point x="424" y="360" type="curve" smooth="yes"/>
      <point x="424" y="377"/>
      <point x="406" y="387"/>
      <point x="376" y="387" type="curve" smooth="yes"/>
      <point x="351" y="387" type="line"/>
    </contour>
    <contour>
      <point x="429" y="598" type="curve" smooth="yes"/>
      <point x="572" y="598"/>
      <point x="675" y="495"/>
      <point x="675" y="355" type="curve" smooth="yes"/>
      <point x="675" y="163"/>
      <point x="491" y="-15"/>
      <point x="293" y="-15" type="curve" smooth="yes"/>
      <point x="152" y="-15"/>
      <point x="48" y="88"/>
      <point x="48" y="228" type="curve" smooth="yes"/>
      <point x="48" y="420"/>
      <point x="232" y="598"/>
    </contour>
    <contour>
      <point x="413" y="525" type="curve" smooth="yes"/>
      <point x="263" y="525"/>
      <point x="123" y="389"/>
      <point x="123" y="243" type="curve" smooth="yes"/>
      <point x="123" y="136"/>
      <point x="202" y="58"/>
      <point x="310" y="58" type="curve" smooth="yes"/>
      <point x="460" y="58"/>
      <point x="600" y="194"/>
      <point x="600" y="340" type="curve" smooth="yes"/>
      <point x="600" y="447"/>
      <point x="521" y="525"/>
    </contour>
  </outline>
</glyph>
<glyph name="macron" format="1">
  <advance width="600"/>
  <unicode hex="00AF"/>
  <outline>
    <contour>
      <point x="311" y="626" type="curve" smooth="yes"/>
      <point x="555" y="626" type="line" smooth="yes"/>
      <point x="588" y="626"/>
      <point x="600" y="617"/>
      <point x="600" y="593" type="curve" smooth="yes"/>
      <point x="600" y="566"/>
      <point x="574" y="546"/>
      <point x="538" y="546" type="curve" smooth="yes"/>
      <point x="294" y="546" type="line" smooth="yes"/>
      <point x="261" y="546"/>
      <point x="249" y="554"/>
      <point x="249" y="579" type="curve" smooth="yes"/>
      <point x="249" y="607"/>
      <point x="274" y="626"/>
    </contour>
  </outline>
</glyph>
<glyph name="degree" format="1">
  <advance width="600"/>
  <unicode hex="00B0"/>
  <outline>
    <contour>
      <point x="428" y="596" type="curve" smooth="yes"/>
      <point x="509" y="596"/>
      <point x="568" y="537"/>
      <point x="568" y="457" type="curve" smooth="yes"/>
      <point x="568" y="346"/>
      <point x="462" y="243"/>
      <point x="350" y="243" type="curve" smooth="yes"/>
      <point x="269" y="243"/>
      <point x="210" y="302"/>
      <point x="210" y="383" type="curve" smooth="yes"/>
      <point x="210" y="494"/>
      <point x="315" y="596"/>
    </contour>
    <contour>
      <point x="414" y="535" type="curve" smooth="yes"/>
      <point x="341" y="535"/>
      <point x="272" y="468"/>
      <point x="272" y="396" type="curve" smooth="yes"/>
      <point x="272" y="343"/>
      <point x="310" y="304"/>
      <point x="363" y="304" type="curve" smooth="yes"/>
      <point x="437" y="304"/>
      <point x="506" y="372"/>
      <point x="506" y="444" type="curve" smooth="yes"/>
      <point x="506" y="497"/>
      <point x="467" y="535"/>
    </contour>
  </outline>
</glyph>
<glyph name="twosuperior" format="1">
  <advance width="600"/>
  <unicode hex="00B2"/>
  <outline>
    <contour>
      <point x="321" y="314" type="curve"/>
      <point x="430" y="314" type="line"/>
      <point x="437" y="335"/>
      <point x="450" y="346"/>
      <point x="469" y="346" type="curve" smooth="yes"/>
      <point x="484" y="346"/>
      <point x="496" y="335"/>
      <point x="496" y="321" type="curve" smooth="yes"/>
      <point x="496" y="317"/>
      <point x="495" y="309"/>
      <point x="494" y="303" type="curve" smooth="yes"/>
      <point x="482" y="247" type="line"/>
      <point x="202" y="247" type="line"/>
      <point x="217" y="315" type="line"/>
      <point x="452" y="481"/>
      <point x="470" y="497"/>
      <point x="470" y="529" type="curve" smooth="yes"/>
      <point x="470" y="553"/>
      <point x="447" y="570"/>
      <point x="415" y="570" type="curve" smooth="yes"/>
      <point x="392" y="570"/>
      <point x="370" y="562"/>
      <point x="354" y="546" type="curve" smooth="yes"/>
      <point x="347" y="540"/>
      <point x="346" y="539"/>
      <point x="336" y="520" type="curve" smooth="yes"/>
      <point x="329" y="508"/>
      <point x="315" y="500"/>
      <point x="301" y="500" type="curve" smooth="yes"/>
      <point x="286" y="500"/>
      <point x="274" y="511"/>
      <point x="274" y="526" type="curve" smooth="yes"/>
      <point x="274" y="540"/>
      <point x="287" y="564"/>
      <point x="306" y="583" type="curve" smooth="yes"/>
      <point x="338" y="617"/>
      <point x="383" y="637"/>
      <point x="430" y="637" type="curve" smooth="yes"/>
      <point x="494" y="637"/>
      <point x="538" y="598"/>
      <point x="538" y="542" type="curve" smooth="yes"/>
      <point x="538" y="478"/>
      <point x="513" y="451"/>
    </contour>
  </outline>
</glyph>
<glyph name="threesuperior" format="1">
  <advance width="600"/>
  <unicode hex="00B3"/>
  <outline>
    <contour>
      <point x="389" y="484" type="curve" smooth="yes"/>
      <point x="413" y="484" type="line" smooth="yes"/>
      <point x="445" y="484"/>
      <point x="475" y="510"/>
      <point x="475" y="536" type="curve" smooth="yes"/>
      <point x="475" y="557"/>
      <point x="454" y="570"/>
      <point x="420" y="570" type="curve" smooth="yes"/>
      <point x="387" y="570"/>
      <point x="370" y="564"/>
      <point x="347" y="543" type="curve" smooth="yes"/>
      <point x="340" y="537"/>
      <point x="329" y="533"/>
      <point x="321" y="533" type="curve" smooth="yes"/>
      <point x="306" y="533"/>
      <point x="294" y="545"/>
      <point x="294" y="559" type="curve" smooth="yes"/>
      <point x="294" y="599"/>
      <point x="364" y="637"/>
      <point x="438" y="637" type="curve" smooth="yes"/>
      <point x="502" y="637"/>
      <point x="543" y="603"/>
      <point x="543" y="548" type="curve" smooth="yes"/>
      <point x="543" y="510"/>
      <point x="518" y="473"/>
      <point x="476" y="450" type="curve"/>
      <point x="476" y="450"/>
      <point x="474" y="449"/>
      <point x="473" y="448" type="curve"/>
      <point x="503" y="431"/>
      <point x="519" y="404"/>
      <point x="519" y="374" type="curve" smooth="yes"/>
      <point x="519" y="344"/>
      <point x="500" y="306"/>
      <point x="472" y="281" type="curve" smooth="yes"/>
      <point x="438" y="251"/>
      <point x="396" y="238"/>
      <point x="335" y="238" type="curve" smooth="yes"/>
      <point x="265" y="238"/>
      <point x="218" y="257"/>
      <point x="218" y="285" type="curve" smooth="yes"/>
      <point x="218" y="306"/>
      <point x="238" y="326"/>
      <point x="259" y="326" type="curve" smooth="yes"/>
      <point x="267" y="326"/>
      <point x="271" y="325"/>
      <point x="279" y="318" type="curve" smooth="yes"/>
      <point x="292" y="308"/>
      <point x="309" y="305"/>
      <point x="347" y="305" type="curve" smooth="yes"/>
      <point x="413" y="305"/>
      <point x="451" y="327"/>
      <point x="451" y="367" type="curve" smooth="yes"/>
      <point x="451" y="383"/>
      <point x="437" y="401"/>
      <point x="418" y="411" type="curve" smooth="yes"/>
      <point x="407" y="416"/>
      <point x="400" y="417"/>
      <point x="374" y="418" type="curve" smooth="yes"/>
      <point x="356" y="419"/>
      <point x="346" y="428"/>
      <point x="346" y="444" type="curve" smooth="yes"/>
      <point x="346" y="465"/>
      <point x="366" y="484"/>
    </contour>
  </outline>
</glyph>
<glyph name="paragraph" format="1">
  <advance width="600"/>
  <unicode hex="00B6"/>
  <outline>
    <contour>
      <point x="575" y="505" type="line"/>
      <point x="447" y="-96" type="line"/>
      <point x="484" y="-96" type="line" smooth="yes"/>
      <point x="517" y="-96"/>
      <point x="529" y="-104"/>
      <point x="529" y="-127" type="curve" smooth="yes"/>
      <point x="529" y="-143"/>
      <point x="519" y="-159"/>
      <point x="503" y="-168" type="curve" smooth="yes"/>
      <point x="495" y="-173"/>
      <point x="487" y="-174"/>
      <point x="467" y="-174" type="curve" smooth="yes"/>
      <point x="374" y="-174" type="line" smooth="yes"/>
      <point x="353" y="-174"/>
      <point x="345" y="-165"/>
      <point x="341" y="-140" type="curve"/>
      <point x="323" y="-169"/>
      <point x="315" y="-174"/>
      <point x="291" y="-174" type="curve" smooth="yes"/>
      <point x="154" y="-174" type="line" smooth="yes"/>
      <point x="121" y="-174"/>
      <point x="108" y="-165"/>
      <point x="108" y="-143" type="curve" smooth="yes"/>
      <point x="108" y="-128"/>
      <point x="119" y="-110"/>
      <point x="135" y="-102" type="curve" smooth="yes"/>
      <point x="144" y="-97"/>
      <point x="150" y="-96"/>
      <point x="171" y="-96" type="curve" smooth="yes"/>
      <point x="249" y="-96" type="line"/>
      <point x="309" y="185" type="line"/>
      <point x="197" y="197"/>
      <point x="123" y="256"/>
      <point x="123" y="334" type="curve" smooth="yes"/>
      <point x="123" y="345"/>
      <point x="124" y="353"/>
      <point x="126" y="361" type="curve" smooth="yes"/>
      <point x="135" y="407" type="line"/>
      <point x="156" y="504"/>
      <point x="287" y="583"/>
      <point x="429" y="583" type="curve" smooth="yes"/>
      <point x="626" y="583" type="line" smooth="yes"/>
      <point x="659" y="583"/>
      <point x="672" y="574"/>
      <point x="672" y="552" type="curve" smooth="yes"/>
      <point x="672" y="536"/>
      <point x="662" y="520"/>
      <point x="645" y="511" type="curve" smooth="yes"/>
      <point x="637" y="506"/>
      <point x="631" y="505"/>
      <point x="610" y="505" type="curve" smooth="yes"/>
    </contour>
    <contour>
      <point x="326" y="266" type="curve"/>
      <point x="376" y="500" type="line"/>
      <point x="310" y="488"/>
      <point x="257" y="449"/>
      <point x="248" y="405" type="curve" smooth="yes"/>
      <point x="239" y="361" type="line" smooth="yes"/>
      <point x="238" y="356"/>
      <point x="237" y="351"/>
      <point x="237" y="347" type="curve" smooth="yes"/>
      <point x="237" y="308"/>
      <point x="269" y="279"/>
    </contour>
    <contour>
      <point x="499" y="505" type="line"/>
      <point x="455" y="505" type="line"/>
      <point x="327" y="-96" type="line"/>
      <point x="339" y="-102"/>
      <point x="343" y="-108"/>
      <point x="344" y="-124" type="curve"/>
      <point x="352" y="-109"/>
      <point x="359" y="-102"/>
      <point x="371" y="-96" type="curve"/>
    </contour>
  </outline>
</glyph>
<glyph name="cedilla" format="1">
  <advance width="600"/>
  <unicode hex="00B8"/>
  <outline>
    <contour>
      <point x="262" y="0" type="line"/>
      <point x="332" y="0" type="line"/>
      <point x="323" y="-41" type="line"/>
      <point x="365" y="-50"/>
      <point x="381" y="-68"/>
      <point x="381" y="-108" type="curve" smooth="yes"/>
      <point x="381" y="-175"/>
      <point x="323" y="-229"/>
      <point x="251" y="-229" type="curve" smooth="yes"/>
      <point x="224" y="-229"/>
      <point x="185" y="-218"/>
      <point x="164" y="-205" type="curve" smooth="yes"/>
      <point x="150" y="-196"/>
      <point x="143" y="-187"/>
      <point x="143" y="-174" type="curve" smooth="yes"/>
      <point x="143" y="-152"/>
      <point x="164" y="-131"/>
      <point x="187" y="-131" type="curve" smooth="yes"/>
      <point x="195" y="-131"/>
      <point x="197" y="-132"/>
      <point x="213" y="-142" type="curve" smooth="yes"/>
      <point x="229" y="-152"/>
      <point x="250" y="-159"/>
      <point x="267" y="-159" type="curve" smooth="yes"/>
      <point x="293" y="-159"/>
      <point x="309" y="-147"/>
      <point x="309" y="-128" type="curve" smooth="yes"/>
      <point x="309" y="-110"/>
      <point x="293" y="-100"/>
      <point x="263" y="-100" type="curve" smooth="yes"/>
      <point x="257" y="-100"/>
      <point x="252" y="-100"/>
      <point x="240" y="-102" type="curve"/>
    </contour>
  </outline>
</glyph>
<glyph name="onesuperior" format="1">
  <advance width="600"/>
  <unicode hex="00B9"/>
  <outline>
    <contour>
      <point x="469" y="638" type="line"/>
      <point x="400" y="314" type="line"/>
      <point x="457" y="314" type="line" smooth="yes"/>
      <point x="484" y="314"/>
      <point x="494" y="307"/>
      <point x="494" y="288" type="curve" smooth="yes"/>
      <point x="494" y="263"/>
      <point x="474" y="247"/>
      <point x="443" y="247" type="curve" smooth="yes"/>
      <point x="261" y="247" type="line" smooth="yes"/>
      <point x="236" y="247"/>
      <point x="224" y="255"/>
      <point x="224" y="274" type="curve" smooth="yes"/>
      <point x="224" y="299"/>
      <point x="244" y="314"/>
      <point x="276" y="314" type="curve" smooth="yes"/>
      <point x="333" y="314" type="line"/>
      <point x="383" y="551" type="line"/>
      <point x="333" y="539" type="line" smooth="yes"/>
      <point x="321" y="536"/>
      <point x="317" y="535"/>
      <point x="311" y="535" type="curve" smooth="yes"/>
      <point x="297" y="535"/>
      <point x="287" y="546"/>
      <point x="287" y="562" type="curve" smooth="yes"/>
      <point x="287" y="584"/>
      <point x="300" y="596"/>
      <point x="330" y="604" type="curve" smooth="yes"/>
    </contour>
  </outline>
</glyph>
<glyph name="Ccedilla" format="1">
  <advance width="600"/>
  <unicode hex="00C7"/>
  <outline>
    <contour>
      <point x="334" y="-14" type="curve"/>
      <point x="328" y="-42" type="line"/>
      <point x="370" y="-50"/>
      <point x="386" y="-69"/>
      <point x="386" y="-109" type="curve" smooth="yes"/>
      <point x="386" y="-174"/>
      <point x="328" y="-229"/>
      <point x="258" y="-229" type="curve" smooth="yes"/>
      <point x="201" y="-229"/>
      <point x="148" y="-203"/>
      <point x="148" y="-174" type="curve" smooth="yes"/>
      <point x="148" y="-152"/>
      <point x="169" y="-131"/>
      <point x="192" y="-131" type="curve" smooth="yes"/>
      <point x="200" y="-131"/>
      <point x="202" y="-132"/>
      <point x="218" y="-142" type="curve" smooth="yes"/>
      <point x="234" y="-153"/>
      <point x="255" y="-159"/>
      <point x="272" y="-159" type="curve" smooth="yes"/>
      <point x="298" y="-159"/>
      <point x="314" y="-147"/>
      <point x="314" y="-128" type="curve" smooth="yes"/>
      <point x="314" y="-111"/>
      <point x="298" y="-100"/>
      <point x="273" y="-100" type="curve" smooth="yes"/>
      <point x="267" y="-100"/>
      <point x="263" y="-100"/>
      <point x="246" y="-102" type="curve"/>
      <point x="265" y="-9" type="line"/>
      <point x="230" y="-2"/>
      <point x="213" y="4"/>
      <point x="190" y="15" type="curve" smooth="yes"/>
      <point x="121" y="47"/>
      <point x="80" y="115"/>
      <point x="80" y="195" type="curve" smooth="yes"/>
      <point x="80" y="213"/>
      <point x="82" y="231"/>
      <point x="86" y="249" type="curve" smooth="yes"/>
      <point x="100" y="315" type="line" smooth="yes"/>
      <point x="134" y="475"/>
      <point x="277" y="597"/>
      <point x="432" y="597" type="curve" smooth="yes"/>
      <point x="484" y="597"/>
      <point x="517" y="589"/>
      <point x="567" y="563" type="curve"/>
      <point x="576" y="559" type="line"/>
      <point x="593" y="576"/>
      <point x="606" y="583"/>
      <point x="623" y="583" type="curve" smooth="yes"/>
      <point x="646" y="583"/>
      <point x="663" y="567"/>
      <point x="663" y="545" type="curve" smooth="yes"/>
      <point x="663" y="538"/>
      <point x="663" y="534"/>
      <point x="659" y="517" type="curve" smooth="yes"/>
      <point x="641" y="433" type="line" smooth="yes"/>
      <point x="635" y="407"/>
      <point x="631" y="398"/>
      <point x="622" y="388" type="curve" smooth="yes"/>
      <point x="610" y="375"/>
      <point x="593" y="367"/>
      <point x="577" y="367" type="curve" smooth="yes"/>
      <point x="553" y="367"/>
      <point x="537" y="383"/>
      <point x="538" y="406" type="curve" smooth="yes"/>
      <point x="539" y="425" type="line" smooth="yes"/>
      <point x="541" y="463"/>
      <point x="483" y="497"/>
      <point x="415" y="497" type="curve" smooth="yes"/>
      <point x="313" y="497"/>
      <point x="222" y="420"/>
      <point x="200" y="315" type="curve" smooth="yes"/>
      <point x="186" y="251" type="line" smooth="yes"/>
      <point x="183" y="238"/>
      <point x="182" y="225"/>
      <point x="182" y="214" type="curve" smooth="yes"/>
      <point x="182" y="135"/>
      <point x="245" y="86"/>
      <point x="347" y="86" type="curve" smooth="yes"/>
      <point x="393" y="86"/>
      <point x="436" y="95"/>
      <point x="463" y="109" type="curve" smooth="yes"/>
      <point x="475" y="116"/>
      <point x="476" y="116"/>
      <point x="508" y="143" type="curve" smooth="yes"/>
      <point x="522" y="154"/>
      <point x="534" y="159"/>
      <point x="547" y="159" type="curve" smooth="yes"/>
      <point x="570" y="159"/>
      <point x="588" y="141"/>
      <point x="588" y="118" type="curve" smooth="yes"/>
      <point x="588" y="93"/>
      <point x="564" y="64"/>
      <point x="518" y="36" type="curve"/>
      <point x="470" y="5"/>
      <point x="415" y="-9"/>
    </contour>
  </outline>
</glyph>
<glyph name="Icircumflex" format="1">
  <advance width="600"/>
  <unicode hex="00CE"/>
  <outline>
    <contour>
      <point x="453" y="483" type="line"/>
      <point x="372" y="100" type="line"/>
      <point x="472" y="100" type="line" smooth="yes"/>
      <point x="492" y="100"/>
      <point x="499" y="99"/>
      <point x="507" y="96" type="curve" smooth="yes"/>
      <point x="520" y="92"/>
      <point x="529" y="77"/>
      <point x="529" y="61" type="curve" smooth="yes"/>
      <point x="529" y="44"/>
      <point x="520" y="27"/>
      <point x="506" y="15" type="curve" smooth="yes"/>
      <point x="492" y="3"/>
      <point x="480" y="0"/>
      <point x="451" y="0" type="curve" smooth="yes"/>
      <point x="150" y="0" type="line" smooth="yes"/>
      <point x="109" y="0"/>
      <point x="93" y="11"/>
      <point x="93" y="40" type="curve" smooth="yes"/>
      <point x="93" y="56"/>
      <point x="102" y="73"/>
      <point x="116" y="85" type="curve" smooth="yes"/>
      <point x="131" y="98"/>
      <point x="139" y="100"/>
      <point x="171" y="100" type="curve" smooth="yes"/>
      <point x="272" y="100" type="line"/>
      <point x="353" y="483" type="line"/>
      <point x="252" y="483" type="line" smooth="yes"/>
      <point x="211" y="483"/>
      <point x="196" y="494"/>
      <point x="196" y="523" type="curve" smooth="yes"/>
      <point x="196" y="539"/>
      <point x="205" y="557"/>
      <point x="219" y="568" type="curve" smooth="yes"/>
      <point x="234" y="581"/>
      <point x="242" y="583"/>
      <point x="274" y="583" type="curve" smooth="yes"/>
      <point x="575" y="583" type="line" smooth="yes"/>
      <point x="595" y="583"/>
      <point x="602" y="582"/>
      <point x="610" y="579" type="curve" smooth="yes"/>
      <point x="622" y="575"/>
      <point x="632" y="559"/>
      <point x="632" y="544" type="curve" smooth="yes"/>
      <point x="632" y="527"/>
      <point x="623" y="509"/>
      <point x="609" y="498" type="curve" smooth="yes"/>
      <point x="594" y="486"/>
      <point x="584" y="483"/>
      <point x="554" y="483" type="curve" smooth="yes"/>
    </contour>
    <contour>
      <point x="461" y="750" type="line"/>
      <point x="326" y="653" type="line" smooth="yes"/>
      <point x="313" y="644"/>
      <point x="305" y="640"/>
      <point x="296" y="640" type="curve" smooth="yes"/>
      <point x="280" y="640"/>
      <point x="268" y="652"/>
      <point x="268" y="668" type="curve" smooth="yes"/>
      <point x="268" y="685"/>
      <point x="274" y="692"/>
      <point x="300" y="711" type="curve" smooth="yes"/>
      <point x="480" y="839" type="line"/>
      <point x="603" y="711" type="line" smooth="yes"/>
      <point x="619" y="694"/>
      <point x="620" y="693"/>
      <point x="620" y="683" type="curve" smooth="yes"/>
      <point x="620" y="661"/>
      <point x="599" y="640"/>
      <point x="577" y="640" type="curve" smooth="yes"/>
      <point x="569" y="640"/>
      <point x="561" y="644"/>
      <point x="552" y="653" type="curve" smooth="yes"/>
    </contour>
  </outline>
</glyph>
<glyph name="Oacute" format="1">
  <advance width="600"/>
  <unicode hex="00D3"/>
  <outline>
    <contour>
      <point x="426" y="597" type="curve" smooth="yes"/>
      <point x="554" y="597"/>
      <point x="649" y="498"/>
      <point x="649" y="366" type="curve" smooth="yes"/>
      <point x="649" y="270"/>
      <point x="610" y="174"/>
      <point x="541" y="102" type="curve" smooth="yes"/>
      <point x="472" y="30"/>
      <point x="380" y="-14"/>
      <point x="297" y="-14" type="curve" smooth="yes"/>
      <point x="170" y="-14"/>
      <point x="75" y="86"/>
      <point x="75" y="220" type="curve" smooth="yes"/>
      <point x="75" y="312"/>
      <point x="116" y="411"/>
      <point x="182" y="481" type="curve" smooth="yes"/>
      <point x="250" y="552"/>
      <point x="345" y="597"/>
    </contour>
    <contour>
      <point x="405" y="497" type="curve" smooth="yes"/>
      <point x="290" y="497"/>
      <point x="178" y="371"/>
      <point x="178" y="243" type="curve" smooth="yes"/>
      <point x="178" y="153"/>
      <point x="237" y="86"/>
      <point x="317" y="86" type="curve" smooth="yes"/>
      <point x="434" y="86"/>
      <point x="546" y="211"/>
      <point x="546" y="342" type="curve" smooth="yes"/>
      <point x="546" y="431"/>
      <point x="486" y="497"/>
    </contour>
    <contour>
      <point x="587" y="767" type="curve" smooth="yes"/>
      <point x="429" y="656" type="line" smooth="yes"/>
      <point x="413" y="644"/>
      <point x="403" y="640"/>
      <point x="394" y="640" type="curve" smooth="yes"/>
      <point x="376" y="640"/>
      <point x="364" y="652"/>
      <point x="364" y="670" type="curve" smooth="yes"/>
      <point x="364" y="684"/>
      <point x="374" y="698"/>
      <point x="395" y="712" type="curve" smooth="yes"/>
      <point x="552" y="824" type="line" smooth="yes"/>
      <point x="569" y="835"/>
      <point x="577" y="839"/>
      <point x="588" y="839" type="curve" smooth="yes"/>
      <point x="605" y="839"/>
      <point x="618" y="827"/>
      <point x="618" y="810" type="curve" smooth="yes"/>
      <point x="618" y="795"/>
      <point x="610" y="783"/>
    </contour>
  </outline>
</glyph>
<glyph name="Ocircumflex" format="1">
  <advance width="600"/>
  <unicode hex="00D4"/>
  <outline>
    <contour>
      <point x="426" y="597" type="curve" smooth="yes"/>
      <point x="554" y="597"/>
      <point x="649" y="498"/>
      <point x="649" y="366" type="curve" smooth="yes"/>
      <point x="649" y="270"/>
      <point x="610" y="174"/>
      <point x="541" y="102" type="curve" smooth="yes"/>
      <point x="472" y="30"/>
      <point x="380" y="-14"/>
      <point x="297" y="-14" type="curve" smooth="yes"/>
      <point x="170" y="-14"/>
      <point x="75" y="86"/>
      <point x="75" y="220" type="curve" smooth="yes"/>
      <point x="75" y="312"/>
      <point x="116" y="411"/>
      <point x="182" y="481" type="curve" smooth="yes"/>
      <point x="250" y="552"/>
      <point x="345" y="597"/>
    </contour>
    <contour>
      <point x="405" y="497" type="curve" smooth="yes"/>
      <point x="290" y="497"/>
      <point x="178" y="371"/>
      <point x="178" y="243" type="curve" smooth="yes"/>
      <point x="178" y="153"/>
      <point x="237" y="86"/>
      <point x="317" y="86" type="curve" smooth="yes"/>
      <point x="434" y="86"/>
      <point x="546" y="211"/>
      <point x="546" y="342" type="curve" smooth="yes"/>
      <point x="546" y="431"/>
      <point x="486" y="497"/>
    </contour>
    <contour>
      <point x="460" y="750" type="line"/>
      <point x="326" y="653" type="line" smooth="yes"/>
      <point x="313" y="644"/>
      <point x="304" y="640"/>
      <point x="295" y="640" type="curve" smooth="yes"/>
      <point x="279" y="640"/>
      <point x="267" y="652"/>
      <point x="267" y="668" type="curve" smooth="yes"/>
      <point x="267" y="685"/>
      <point x="271" y="691"/>
      <point x="299" y="711" type="curve" smooth="yes"/>
      <point x="479" y="839" type="line"/>
      <point x="603" y="711" type="line" smooth="yes"/>
      <point x="620" y="693"/>
      <point x="620" y="693"/>
      <point x="620" y="683" type="curve" smooth="yes"/>
      <point x="620" y="661"/>
      <point x="599" y="640"/>
      <point x="577" y="640" type="curve" smooth="yes"/>
      <point x="568" y="640"/>
      <point x="561" y="644"/>
      <point x="552" y="653" type="curve" smooth="yes"/>
    </contour>
  </outline>
</glyph>
<glyph name="Odieresis" format="1">
  <advance width="600"/>
  <unicode hex="00D6"/>
  <outline>
    <contour>
      <point x="426" y="597" type="curve" smooth="yes"/>
      <point x="554" y="597"/>
      <point x="649" y="498"/>
      <point x="649" y="366" type="curve" smooth="yes"/>
      <point x="649" y="270"/>
      <point x="610" y="174"/>
      <point x="541" y="102" type="curve" smooth="yes"/>
      <point x="472" y="30"/>
      <point x="380" y="-14"/>
      <point x="297" y="-14" type="curve" smooth="yes"/>
      <point x="170" y="-14"/>
      <point x="75" y="86"/>
      <point x="75" y="220" type="curve" smooth="yes"/>
      <point x="75" y="312"/>
      <point x="116" y="411"/>
      <point x="182" y="481" type="curve" smooth="yes"/>
      <point x="250" y="552"/>
      <point x="345" y="597"/>
    </contour>
    <contour>
      <point x="405" y="497" type="curve" smooth="yes"/>
      <point x="290" y="497"/>
      <point x="178" y="371"/>
      <point x="178" y="243" type="curve" smooth="yes"/>
      <point x="178" y="153"/>
      <point x="237" y="86"/>
      <point x="317" y="86" type="curve" smooth="yes"/>
      <point x="434" y="86"/>
      <point x="546" y="211"/>
      <point x="546" y="342" type="curve" smooth="yes"/>
      <point x="546" y="431"/>
      <point x="486" y="497"/>
    </contour>
    <contour>
      <point x="364" y="800" type="curve" smooth="yes"/>
      <point x="392" y="800"/>
      <point x="413" y="779"/>
      <point x="413" y="751" type="curve" smooth="yes"/>
      <point x="413" y="713"/>
      <point x="377" y="678"/>
      <point x="339" y="678" type="curve" smooth="yes"/>
      <point x="314" y="678"/>
      <point x="291" y="701"/>
      <point x="291" y="727" type="curve" smooth="yes"/>
      <point x="291" y="763"/>
      <point x="328" y="800"/>
    </contour>
    <contour>
      <point x="572" y="800" type="curve" smooth="yes"/>
      <point x="600" y="800"/>
      <point x="621" y="779"/>
      <point x="621" y="751" type="curve" smooth="yes"/>
      <point x="621" y="713"/>
      <point x="585" y="678"/>
      <point x="547" y="678" type="curve" smooth="yes"/>
      <point x="522" y="678"/>
      <point x="499" y="701"/>
      <point x="499" y="727" type="curve" smooth="yes"/>
      <point x="499" y="763"/>
      <point x="536" y="800"/>
    </contour>
  </outline>
</glyph>
<glyph name="Oslash" format="1">
  <advance width="600"/>
  <unicode hex="00D8"/>
  <outline>
    <contour>
      <point x="165" y="28" type="curve"/>
      <point x="97" y="-40" type="line" smooth="yes"/>
      <point x="72" y="-65"/>
      <point x="63" y="-70"/>
      <point x="44" y="-70" type="curve" smooth="yes"/>
      <point x="21" y="-70"/>
      <point x="4" y="-54"/>
      <point x="4" y="-33" type="curve" smooth="yes"/>
      <point x="4" y="-16"/>
      <point x="10" y="-5"/>
      <point x="35" y="19" type="curve" smooth="yes"/>
      <point x="108" y="92" type="line"/>
      <point x="85" y="132"/>
      <point x="75" y="171"/>
      <point x="75" y="220" type="curve" smooth="yes"/>
      <point x="75" y="413"/>
      <point x="247" y="597"/>
      <point x="427" y="597" type="curve" smooth="yes"/>
      <point x="480" y="597"/>
      <point x="525" y="581"/>
      <point x="566" y="549" type="curve"/>
      <point x="624" y="607" type="line" smooth="yes"/>
      <point x="649" y="632"/>
      <point x="660" y="638"/>
      <point x="678" y="638" type="curve" smooth="yes"/>
      <point x="700" y="638"/>
      <point x="717" y="622"/>
      <point x="717" y="600" type="curve" smooth="yes"/>
      <point x="717" y="582"/>
      <point x="711" y="573"/>
      <point x="687" y="548" type="curve" smooth="yes"/>
      <point x="621" y="483" type="line"/>
      <point x="640" y="449"/>
      <point x="649" y="409"/>
      <point x="649" y="365" type="curve" smooth="yes"/>
      <point x="649" y="270"/>
      <point x="610" y="174"/>
      <point x="542" y="102" type="curve" smooth="yes"/>
      <point x="473" y="30"/>
      <point x="381" y="-14"/>
      <point x="298" y="-14" type="curve" smooth="yes"/>
      <point x="248" y="-14"/>
      <point x="203" y="0"/>
    </contour>
    <contour>
      <point x="538" y="400" type="curve"/>
      <point x="244" y="107" type="line"/>
      <point x="267" y="93"/>
      <point x="292" y="86"/>
      <point x="319" y="86" type="curve" smooth="yes"/>
      <point x="435" y="86"/>
      <point x="546" y="212"/>
      <point x="546" y="342" type="curve" smooth="yes"/>
      <point x="546" y="364"/>
      <point x="544" y="380"/>
    </contour>
    <contour>
      <point x="190" y="174" type="curve"/>
      <point x="487" y="471" type="line"/>
      <point x="463" y="488"/>
      <point x="436" y="497"/>
      <point x="405" y="497" type="curve" smooth="yes"/>
      <point x="290" y="497"/>
      <point x="178" y="371"/>
      <point x="178" y="243" type="curve" smooth="yes"/>
      <point x="178" y="217"/>
      <point x="182" y="197"/>
    </contour>
  </outline>
</glyph>
<glyph name="Thorn" format="1">
  <advance width="600"/>
  <unicode hex="00DE"/>
  <outline>
    <contour>
      <point x="224" y="140" type="line"/>
      <point x="216" y="100" type="line"/>
      <point x="314" y="100" type="line" smooth="yes"/>
      <point x="335" y="100"/>
      <point x="341" y="99"/>
      <point x="350" y="96" type="curve" smooth="yes"/>
      <point x="362" y="92"/>
      <point x="372" y="76"/>
      <point x="372" y="61" type="curve" smooth="yes"/>
      <point x="372" y="45"/>
      <point x="363" y="26"/>
      <point x="349" y="15" type="curve" smooth="yes"/>
      <point x="335" y="4"/>
      <point x="321" y="0"/>
      <point x="293" y="0" type="curve" smooth="yes"/>
      <point x="80" y="0" type="line" smooth="yes"/>
      <point x="39" y="0"/>
      <point x="23" y="12"/>
      <point x="23" y="40" type="curve" smooth="yes"/>
      <point x="23" y="56"/>
      <point x="32" y="73"/>
      <point x="46" y="85" type="curve" smooth="yes"/>
      <point x="60" y="97"/>
      <point x="70" y="100"/>
      <point x="101" y="100" type="curve" smooth="yes"/>
      <point x="116" y="100" type="line"/>
      <point x="197" y="483" type="line"/>
      <point x="182" y="483" type="line" smooth="yes"/>
      <point x="162" y="483"/>
      <point x="156" y="484"/>
      <point x="148" y="487" type="curve" smooth="yes"/>
      <point x="135" y="491"/>
      <point x="126" y="507"/>
      <point x="126" y="523" type="curve" smooth="yes"/>
      <point x="126" y="539"/>
      <point x="135" y="556"/>
      <point x="149" y="568" type="curve" smooth="yes"/>
      <point x="163" y="580"/>
      <point x="175" y="583"/>
      <point x="204" y="583" type="curve" smooth="yes"/>
      <point x="417" y="583" type="line" smooth="yes"/>
      <point x="458" y="583"/>
      <point x="474" y="572"/>
      <point x="474" y="543" type="curve" smooth="yes"/>
      <point x="474" y="527"/>
      <point x="465" y="510"/>
      <point x="451" y="498" type="curve" smooth="yes"/>
      <point x="436" y="486"/>
      <point x="427" y="483"/>
      <point x="396" y="483" type="curve" smooth="yes"/>
      <point x="297" y="483" type="line"/>
      <point x="289" y="443" type="line"/>
      <point x="387" y="443" type="line" smooth="yes"/>
      <point x="461" y="443"/>
      <point x="503" y="435"/>
      <point x="535" y="415" type="curve" smooth="yes"/>
      <point x="568" y="394"/>
      <point x="588" y="358"/>
      <point x="588" y="321" type="curve" smooth="yes"/>
      <point x="588" y="279"/>
      <point x="566" y="234"/>
      <point x="530" y="201" type="curve" smooth="yes"/>
      <point x="482" y="157"/>
      <point x="425" y="140"/>
      <point x="322" y="140" type="curve" smooth="yes"/>
    </contour>
    <contour>
      <point x="246" y="240" type="line"/>
      <point x="376" y="240" type="line" smooth="yes"/>
      <point x="448" y="240"/>
      <point x="484" y="261"/>
      <point x="484" y="302" type="curve" smooth="yes"/>
      <point x="484" y="331"/>
      <point x="459" y="343"/>
      <point x="398" y="343" type="curve" smooth="yes"/>
      <point x="267" y="343" type="line"/>
    </contour>
  </outline>
</glyph>
<glyph name="ae" format="1">
  <advance width="600"/>
  <unicode hex="00E6"/>
  <outline>
    <contour>
      <point x="647" y="172" type="line"/>
      <point x="397" y="172" type="line"/>
      <point x="400" y="109"/>
      <point x="418" y="84"/>
      <point x="459" y="84" type="curve" smooth="yes"/>
      <point x="481" y="84"/>
      <point x="500" y="89"/>
      <point x="531" y="101" type="curve" smooth="yes"/>
      <point x="562" y="113"/>
      <point x="579" y="118"/>
      <point x="592" y="118" type="curve" smooth="yes"/>
      <point x="613" y="118"/>
      <point x="628" y="102"/>
      <point x="628" y="80" type="curve" smooth="yes"/>
      <point x="628" y="58"/>
      <point x="618" y="39"/>
      <point x="599" y="26" type="curve" smooth="yes"/>
      <point x="567" y="4"/>
      <point x="490" y="-16"/>
      <point x="437" y="-16" type="curve" smooth="yes"/>
      <point x="399" y="-16"/>
      <point x="377" y="-8"/>
      <point x="346" y="16" type="curve"/>
      <point x="334" y="5"/>
      <point x="320" y="-1"/>
      <point x="305" y="-1" type="curve" smooth="yes"/>
      <point x="290" y="-1"/>
      <point x="280" y="5"/>
      <point x="272" y="16" type="curve"/>
      <point x="230" y="-7"/>
      <point x="198" y="-16"/>
      <point x="156" y="-16" type="curve" smooth="yes"/>
      <point x="67" y="-16"/>
      <point x="14" y="30"/>
      <point x="14" y="106" type="curve" smooth="yes"/>
      <point x="14" y="156"/>
      <point x="31" y="195"/>
      <point x="64" y="221" type="curve" smooth="yes"/>
      <point x="112" y="258"/>
      <point x="194" y="286"/>
      <point x="256" y="286" type="curve" smooth="yes"/>
      <point x="271" y="286"/>
      <point x="289" y="284"/>
      <point x="315" y="281" type="curve"/>
      <point x="319" y="301" type="line" smooth="yes"/>
      <point x="320" y="305"/>
      <point x="320" y="310"/>
      <point x="320" y="314" type="curve" smooth="yes"/>
      <point x="319" y="336"/>
      <point x="304" y="350"/>
      <point x="282" y="350" type="curve" smooth="yes"/>
      <point x="265" y="350"/>
      <point x="256" y="348"/>
      <point x="187" y="329" type="curve" smooth="yes"/>
      <point x="178" y="326"/>
      <point x="169" y="325"/>
      <point x="163" y="325" type="curve" smooth="yes"/>
      <point x="141" y="325"/>
      <point x="125" y="342"/>
      <point x="125" y="365" type="curve" smooth="yes"/>
      <point x="125" y="391"/>
      <point x="142" y="413"/>
      <point x="170" y="424" type="curve"/>
      <point x="201" y="435"/>
      <point x="275" y="450"/>
      <point x="302" y="450" type="curve" smooth="yes"/>
      <point x="349" y="450"/>
      <point x="380" y="433"/>
      <point x="406" y="394" type="curve"/>
      <point x="451" y="433"/>
      <point x="488" y="450"/>
      <point x="531" y="450" type="curve" smooth="yes"/>
      <point x="609" y="450"/>
      <point x="665" y="384"/>
      <point x="665" y="290" type="curve" smooth="yes"/>
      <point x="665" y="267"/>
      <point x="662" y="243"/>
      <point x="657" y="218" type="curve" smooth="yes"/>
    </contour>
    <contour>
      <point x="283" y="130" type="curve"/>
      <point x="295" y="189" type="line"/>
      <point x="273" y="195"/>
      <point x="258" y="197"/>
      <point x="241" y="197" type="curve" smooth="yes"/>
      <point x="198" y="197"/>
      <point x="147" y="182"/>
      <point x="130" y="164" type="curve" smooth="yes"/>
      <point x="122" y="155"/>
      <point x="117" y="143"/>
      <point x="117" y="130" type="curve" smooth="yes"/>
      <point x="117" y="101"/>
      <point x="140" y="84"/>
      <point x="177" y="84" type="curve" smooth="yes"/>
      <point x="207" y="84"/>
      <point x="234" y="96"/>
    </contour>
    <contour>
      <point x="417" y="258" type="curve"/>
      <point x="557" y="258" type="line"/>
      <point x="558" y="268"/>
      <point x="558" y="275"/>
      <point x="558" y="280" type="curve" smooth="yes"/>
      <point x="558" y="323"/>
      <point x="539" y="350"/>
      <point x="507" y="350" type="curve" smooth="yes"/>
      <point x="483" y="350"/>
      <point x="457" y="333"/>
      <point x="440" y="307" type="curve" smooth="yes"/>
      <point x="432" y="295"/>
      <point x="426" y="282"/>
    </contour>
  </outline>
</glyph>
<glyph name="egrave" format="1">
  <advance width="600"/>
  <unicode hex="00E8"/>
  <outline>
    <contour>
      <point x="587" y="172" type="line"/>
      <point x="178" y="172" type="line"/>
      <point x="189" y="112"/>
      <point x="237" y="84"/>
      <point x="325" y="84" type="curve" smooth="yes"/>
      <point x="369" y="84"/>
      <point x="398" y="89"/>
      <point x="493" y="112" type="curve" smooth="yes"/>
      <point x="506" y="115"/>
      <point x="519" y="117"/>
      <point x="528" y="117" type="curve" smooth="yes"/>
      <point x="551" y="117"/>
      <point x="566" y="101"/>
      <point x="566" y="79" type="curve" smooth="yes"/>
      <point x="566" y="57"/>
      <point x="554" y="39"/>
      <point x="533" y="28" type="curve" smooth="yes"/>
      <point x="490" y="5"/>
      <point x="374" y="-16"/>
      <point x="294" y="-16" type="curve" smooth="yes"/>
      <point x="158" y="-16"/>
      <point x="74" y="55"/>
      <point x="74" y="169" type="curve" smooth="yes"/>
      <point x="74" y="318"/>
      <point x="221" y="450"/>
      <point x="387" y="450" type="curve" smooth="yes"/>
      <point x="517" y="450"/>
      <point x="600" y="375"/>
      <point x="600" y="259" type="curve" smooth="yes"/>
      <point x="600" y="243"/>
      <point x="598" y="227"/>
      <point x="595" y="211" type="curve" smooth="yes"/>
    </contour>
    <contour>
      <point x="200" y="260" type="curve"/>
      <point x="495" y="260" type="line"/>
      <point x="490" y="314"/>
      <point x="439" y="350"/>
      <point x="367" y="350" type="curve" smooth="yes"/>
      <point x="293" y="350"/>
      <point x="228" y="315"/>
    </contour>
    <contour>
      <point x="362" y="680" type="curve" smooth="yes"/>
      <point x="472" y="569" type="line" smooth="yes"/>
      <point x="483" y="559"/>
      <point x="488" y="549"/>
      <point x="488" y="540" type="curve" smooth="yes"/>
      <point x="488" y="517"/>
      <point x="465" y="496"/>
      <point x="442" y="496" type="curve" smooth="yes"/>
      <point x="433" y="496"/>
      <point x="426" y="500"/>
      <point x="414" y="512" type="curve" smooth="yes"/>
      <point x="304" y="624" type="line" smooth="yes"/>
      <point x="293" y="634"/>
      <point x="288" y="644"/>
      <point x="288" y="652" type="curve" smooth="yes"/>
      <point x="288" y="675"/>
      <point x="310" y="696"/>
      <point x="334" y="696" type="curve" smooth="yes"/>
      <point x="344" y="696"/>
      <point x="350" y="693"/>
    </contour>
  </outline>
</glyph>
<glyph name="idieresis" format="1">
  <advance width="600"/>
  <unicode hex="00EF"/>
  <outline>
    <contour>
      <point x="443" y="437" type="line"/>
      <point x="372" y="100" type="line"/>
      <point x="493" y="100" type="line" smooth="yes"/>
      <point x="513" y="100"/>
      <point x="520" y="99"/>
      <point x="528" y="96" type="curve" smooth="yes"/>
      <point x="541" y="92"/>
      <point x="550" y="76"/>
      <point x="550" y="60" type="curve" smooth="yes"/>
      <point x="550" y="44"/>
      <point x="541" y="27"/>
      <point x="527" y="15" type="curve" smooth="yes"/>
      <point x="513" y="4"/>
      <point x="500" y="0"/>
      <point x="472" y="0" type="curve" smooth="yes"/>
      <point x="129" y="0" type="line" smooth="yes"/>
      <point x="88" y="0"/>
      <point x="72" y="11"/>
      <point x="72" y="40" type="curve" smooth="yes"/>
      <point x="72" y="56"/>
      <point x="81" y="73"/>
      <point x="95" y="85" type="curve" smooth="yes"/>
      <point x="110" y="98"/>
      <point x="118" y="100"/>
      <point x="150" y="100" type="curve" smooth="yes"/>
      <point x="272" y="100" type="line"/>
      <point x="322" y="337" type="line"/>
      <point x="244" y="337" type="line" smooth="yes"/>
      <point x="202" y="337"/>
      <point x="186" y="348"/>
      <point x="186" y="377" type="curve" smooth="yes"/>
      <point x="186" y="393"/>
      <point x="195" y="411"/>
      <point x="209" y="422" type="curve" smooth="yes"/>
      <point x="224" y="435"/>
      <point x="233" y="437"/>
      <point x="265" y="437" type="curve" smooth="yes"/>
    </contour>
    <contour>
      <point x="318" y="656" type="curve" smooth="yes"/>
      <point x="346" y="656"/>
      <point x="367" y="635"/>
      <point x="367" y="607" type="curve" smooth="yes"/>
      <point x="367" y="569"/>
      <point x="331" y="534"/>
      <point x="293" y="534" type="curve" smooth="yes"/>
      <point x="268" y="534"/>
      <point x="245" y="557"/>
      <point x="245" y="583" type="curve" smooth="yes"/>
      <point x="245" y="619"/>
      <point x="282" y="656"/>
    </contour>
    <contour>
      <point x="526" y="656" type="curve" smooth="yes"/>
      <point x="554" y="656"/>
      <point x="575" y="635"/>
      <point x="575" y="607" type="curve" smooth="yes"/>
      <point x="575" y="569"/>
      <point x="539" y="534"/>
      <point x="501" y="534" type="curve" smooth="yes"/>
      <point x="476" y="534"/>
      <point x="453" y="557"/>
      <point x="453" y="583" type="curve" smooth="yes"/>
      <point x="453" y="619"/>
      <point x="490" y="656"/>
    </contour>
  </outline>
</glyph>
<glyph name="ntilde" format="1">
  <advance width="600"/>
  <unicode hex="00F1"/>
  <outline>
    <contour>
      <point x="345" y="587" type="curve" smooth="yes"/>
      <point x="327" y="587"/>
      <point x="318" y="581"/>
      <point x="279" y="540" type="curve" smooth="yes"/>
      <point x="270" y="531"/>
      <point x="261" y="526"/>
      <point x="251" y="526" type="curve" smooth="yes"/>
      <point x="237" y="526"/>
      <point x="226" y="536"/>
      <point x="226" y="549" type="curve" smooth="yes"/>
      <point x="226" y="565"/>
      <point x="239" y="585"/>
      <point x="265" y="610" type="curve" smooth="yes"/>
      <point x="296" y="640"/>
      <point x="329" y="656"/>
      <point x="358" y="656" type="curve" smooth="yes"/>
      <point x="381" y="656"/>
      <point x="397" y="648"/>
      <point x="441" y="618" type="curve" smooth="yes"/>
      <point x="469" y="598"/>
      <point x="481" y="592"/>
      <point x="492" y="592" type="curve" smooth="yes"/>
      <point x="508" y="592"/>
      <point x="513" y="596"/>
      <point x="545" y="631" type="curve" smooth="yes"/>
      <point x="557" y="645"/>
      <point x="576" y="656"/>
      <point x="586" y="656" type="curve" smooth="yes"/>
      <point x="600" y="656"/>
      <point x="613" y="645"/>
      <point x="613" y="633" type="curve" smooth="yes"/>
      <point x="613" y="621"/>
      <point x="603" y="605"/>
      <point x="582" y="583" type="curve" smooth="yes"/>
      <point x="542" y="540"/>
      <point x="513" y="523"/>
      <point x="480" y="523" type="curve" smooth="yes"/>
      <point x="459" y="523"/>
      <point x="427" y="538"/>
      <point x="391" y="566" type="curve" smooth="yes"/>
      <point x="368" y="583"/>
      <point x="359" y="587"/>
    </contour>
    <contour>
      <point x="288" y="437" type="line"/>
      <point x="278" y="389" type="line"/>
      <point x="336" y="435"/>
      <point x="373" y="450"/>
      <point x="428" y="450" type="curve" smooth="yes"/>
      <point x="516" y="450"/>
      <point x="575" y="401"/>
      <point x="575" y="328" type="curve" smooth="yes"/>
      <point x="575" y="312"/>
      <point x="573" y="298"/>
      <point x="570" y="282" type="curve" smooth="yes"/>
      <point x="531" y="100" type="line"/>
      <point x="566" y="100"/>
      <point x="583" y="87"/>
      <point x="583" y="60" type="curve" smooth="yes"/>
      <point x="583" y="44"/>
      <point x="574" y="27"/>
      <point x="560" y="15" type="curve" smooth="yes"/>
      <point x="546" y="3"/>
      <point x="533" y="0"/>
      <point x="505" y="0" type="curve" smooth="yes"/>
      <point x="416" y="0" type="line" smooth="yes"/>
      <point x="375" y="0"/>
      <point x="359" y="11"/>
      <point x="359" y="40" type="curve" smooth="yes"/>
      <point x="359" y="56"/>
      <point x="368" y="73"/>
      <point x="382" y="85" type="curve" smooth="yes"/>
      <point x="396" y="97"/>
      <point x="407" y="100"/>
      <point x="432" y="100" type="curve"/>
      <point x="469" y="278" type="line" smooth="yes"/>
      <point x="471" y="287"/>
      <point x="472" y="294"/>
      <point x="472" y="301" type="curve" smooth="yes"/>
      <point x="472" y="333"/>
      <point x="444" y="350"/>
      <point x="394" y="350" type="curve" smooth="yes"/>
      <point x="348" y="350"/>
      <point x="313" y="333"/>
      <point x="255" y="282" type="curve"/>
      <point x="217" y="100" type="line"/>
      <point x="223" y="100" type="line" smooth="yes"/>
      <point x="243" y="100"/>
      <point x="249" y="99"/>
      <point x="257" y="96" type="curve" smooth="yes"/>
      <point x="270" y="91"/>
      <point x="279" y="76"/>
      <point x="279" y="60" type="curve" smooth="yes"/>
      <point x="279" y="44"/>
      <point x="270" y="27"/>
      <point x="256" y="15" type="curve" smooth="yes"/>
      <point x="242" y="3"/>
      <point x="230" y="0"/>
      <point x="201" y="0" type="curve" smooth="yes"/>
      <point x="89" y="0" type="line" smooth="yes"/>
      <point x="49" y="0"/>
      <point x="33" y="11"/>
      <point x="33" y="40" type="curve" smooth="yes"/>
      <point x="33" y="56"/>
      <point x="42" y="73"/>
      <point x="56" y="85" type="curve" smooth="yes"/>
      <point x="70" y="97"/>
      <point x="80" y="100"/>
      <point x="111" y="100" type="curve" smooth="yes"/>
      <point x="117" y="100" type="line"/>
      <point x="167" y="337" type="line"/>
      <point x="132" y="337"/>
      <point x="115" y="350"/>
      <point x="115" y="377" type="curve" smooth="yes"/>
      <point x="115" y="393"/>
      <point x="124" y="411"/>
      <point x="138" y="422" type="curve" smooth="yes"/>
      <point x="153" y="434"/>
      <point x="163" y="437"/>
      <point x="194" y="437" type="curve" smooth="yes"/>
    </contour>
  </outline>
</glyph>
<glyph name="ograve" format="1">
  <advance width="600"/>
  <unicode hex="00F2"/>
  <outline>
    <contour>
      <point x="399" y="450" type="curve" smooth="yes"/>
      <point x="523" y="450"/>
      <point x="609" y="372"/>
      <point x="609" y="260" type="curve" smooth="yes"/>
      <point x="609" y="115"/>
      <point x="460" y="-16"/>
      <point x="297" y="-16" type="curve" smooth="yes"/>
      <point x="169" y="-16"/>
      <point x="84" y="60"/>
      <point x="84" y="174" type="curve" smooth="yes"/>
      <point x="84" y="231"/>
      <point x="111" y="295"/>
      <point x="158" y="346" type="curve" smooth="yes"/>
      <point x="216" y="410"/>
      <point x="308" y="450"/>
    </contour>
    <contour>
      <point x="376" y="350" type="curve" smooth="yes"/>
      <point x="274" y="350"/>
      <point x="186" y="277"/>
      <point x="186" y="192" type="curve" smooth="yes"/>
      <point x="186" y="129"/>
      <point x="241" y="84"/>
      <point x="318" y="84" type="curve" smooth="yes"/>
      <point x="419" y="84"/>
      <point x="507" y="158"/>
      <point x="507" y="242" type="curve" smooth="yes"/>
      <point x="507" y="305"/>
      <point x="452" y="350"/>
    </contour>
    <contour>
      <point x="361" y="680" type="curve" smooth="yes"/>
      <point x="471" y="569" type="line" smooth="yes"/>
      <point x="482" y="559"/>
      <point x="487" y="549"/>
      <point x="487" y="540" type="curve" smooth="yes"/>
      <point x="487" y="517"/>
      <point x="464" y="496"/>
      <point x="441" y="496" type="curve" smooth="yes"/>
      <point x="432" y="496"/>
      <point x="425" y="500"/>
      <point x="413" y="512" type="curve" smooth="yes"/>
      <point x="303" y="624" type="line" smooth="yes"/>
      <point x="292" y="634"/>
      <point x="287" y="644"/>
      <point x="287" y="652" type="curve" smooth="yes"/>
      <point x="287" y="675"/>
      <point x="309" y="696"/>
      <point x="333" y="696" type="curve" smooth="yes"/>
      <point x="343" y="696"/>
      <point x="349" y="693"/>
    </contour>
  </outline>
</glyph>
<glyph name="odieresis" format="1">
  <advance width="600"/>
  <unicode hex="00F6"/>
  <outline>
    <contour>
      <point x="399" y="450" type="curve" smooth="yes"/>
      <point x="523" y="450"/>
      <point x="609" y="372"/>
      <point x="609" y="260" type="curve" smooth="yes"/>
      <point x="609" y="115"/>
      <point x="460" y="-16"/>
      <point x="297" y="-16" type="curve" smooth="yes"/>
      <point x="169" y="-16"/>
      <point x="84" y="60"/>
      <point x="84" y="174" type="curve" smooth="yes"/>
      <point x="84" y="231"/>
      <point x="111" y="295"/>
      <point x="158" y="346" type="curve" smooth="yes"/>
      <point x="216" y="410"/>
      <point x="308" y="450"/>
    </contour>
    <contour>
      <point x="376" y="350" type="curve" smooth="yes"/>
      <point x="274" y="350"/>
      <point x="186" y="277"/>
      <point x="186" y="192" type="curve" smooth="yes"/>
      <point x="186" y="129"/>
      <point x="241" y="84"/>
      <point x="318" y="84" type="curve" smooth="yes"/>
      <point x="419" y="84"/>
      <point x="507" y="158"/>
      <point x="507" y="242" type="curve" smooth="yes"/>
      <point x="507" y="305"/>
      <point x="452" y="350"/>
    </contour>
    <contour>
      <point x="335" y="654" type="curve" smooth="yes"/>
      <point x="364" y="654"/>
      <point x="384" y="634"/>
      <point x="384" y="606" type="curve" smooth="yes"/>
      <point x="384" y="569"/>
      <point x="348" y="534"/>
      <point x="309" y="534" type="curve" smooth="yes"/>
      <point x="282" y="534"/>
      <point x="261" y="555"/>
      <point x="261" y="582" type="curve" smooth="yes"/>
      <point x="261" y="618"/>
      <point x="298" y="654"/>
    </contour>
    <contour>
      <point x="543" y="654" type="curve" smooth="yes"/>
      <point x="572" y="654"/>
      <point x="592" y="634"/>
      <point x="592" y="606" type="curve" smooth="yes"/>
      <point x="592" y="569"/>
      <point x="556" y="534"/>
      <point x="517" y="534" type="curve" smooth="yes"/>
      <point x="490" y="534"/>
      <point x="469" y="555"/>
      <point x="469" y="582" type="curve" smooth="yes"/>
      <point x="469" y="618"/>
      <point x="506" y="654"/>
    </contour>
  </outline>
</glyph>
<glyph name="oslash" format="1">
  <advance width="600"/>
  <unicode hex="00F8"/>
  <outline>
    <contour>
      <point x="634" y="402" type="curve" smooth="yes"/>
      <point x="583" y="359" type="line"/>
      <point x="600" y="329"/>
      <point x="609" y="297"/>
      <point x="609" y="260" type="curve" smooth="yes"/>
      <point x="609" y="116"/>
      <point x="460" y="-16"/>
      <point x="297" y="-16" type="curve" smooth="yes"/>
      <point x="251" y="-16"/>
      <point x="211" y="-6"/>
      <point x="174" y="14" type="curve"/>
      <point x="106" y="-44" type="line" smooth="yes"/>
      <point x="82" y="-65"/>
      <point x="71" y="-70"/>
      <point x="56" y="-70" type="curve" smooth="yes"/>
      <point x="33" y="-70"/>
      <point x="17" y="-54"/>
      <point x="17" y="-32" type="curve" smooth="yes"/>
      <point x="17" y="-13"/>
      <point x="25" y="-1"/>
      <point x="52" y="22" type="curve" smooth="yes"/>
      <point x="111" y="72" type="line"/>
      <point x="92" y="103"/>
      <point x="83" y="136"/>
      <point x="83" y="174" type="curve" smooth="yes"/>
      <point x="83" y="317"/>
      <point x="232" y="450"/>
      <point x="392" y="450" type="curve" smooth="yes"/>
      <point x="437" y="450"/>
      <point x="491" y="437"/>
      <point x="521" y="419" type="curve"/>
      <point x="580" y="468" type="line" smooth="yes"/>
      <point x="604" y="489"/>
      <point x="614" y="494"/>
      <point x="630" y="494" type="curve" smooth="yes"/>
      <point x="653" y="494"/>
      <point x="669" y="478"/>
      <point x="669" y="456" type="curve" smooth="yes"/>
      <point x="669" y="437"/>
      <point x="661" y="424"/>
    </contour>
    <contour>
      <point x="496" y="286" type="curve"/>
      <point x="266" y="91" type="line"/>
      <point x="283" y="86"/>
      <point x="297" y="84"/>
      <point x="316" y="84" type="curve" smooth="yes"/>
      <point x="418" y="84"/>
      <point x="507" y="157"/>
      <point x="507" y="241" type="curve" smooth="yes"/>
      <point x="507" y="258"/>
      <point x="504" y="271"/>
    </contour>
    <contour>
      <point x="197" y="145" type="curve"/>
      <point x="430" y="342" type="line"/>
      <point x="410" y="347"/>
      <point x="393" y="350"/>
      <point x="374" y="350" type="curve" smooth="yes"/>
      <point x="274" y="350"/>
      <point x="185" y="276"/>
      <point x="185" y="192" type="curve" smooth="yes"/>
      <point x="185" y="177"/>
      <point x="189" y="161"/>
    </contour>
  </outline>
</glyph>
<glyph name="ucircumflex" format="1">
  <advance width="600"/>
  <unicode hex="00FB"/>
  <outline>
    <contour>
      <point x="603" y="437" type="line"/>
      <point x="531" y="100" type="line"/>
      <point x="566" y="100"/>
      <point x="583" y="87"/>
      <point x="583" y="61" type="curve" smooth="yes"/>
      <point x="583" y="44"/>
      <point x="574" y="26"/>
      <point x="559" y="15" type="curve"/>
      <point x="546" y="3"/>
      <point x="533" y="0"/>
      <point x="504" y="0" type="curve" smooth="yes"/>
      <point x="410" y="0" type="line"/>
      <point x="420" y="48" type="line"/>
      <point x="360" y="1"/>
      <point x="326" y="-13"/>
      <point x="270" y="-13" type="curve" smooth="yes"/>
      <point x="182" y="-13"/>
      <point x="123" y="36"/>
      <point x="123" y="110" type="curve" smooth="yes"/>
      <point x="123" y="127"/>
      <point x="124" y="140"/>
      <point x="128" y="156" type="curve" smooth="yes"/>
      <point x="166" y="338" type="line"/>
      <point x="150" y="338" type="line" smooth="yes"/>
      <point x="110" y="338"/>
      <point x="94" y="349"/>
      <point x="94" y="378" type="curve" smooth="yes"/>
      <point x="94" y="393"/>
      <point x="103" y="411"/>
      <point x="117" y="423" type="curve" smooth="yes"/>
      <point x="131" y="434"/>
      <point x="141" y="437"/>
      <point x="172" y="437" type="curve" smooth="yes"/>
      <point x="288" y="437" type="line"/>
      <point x="229" y="159" type="line" smooth="yes"/>
      <point x="227" y="151"/>
      <point x="226" y="144"/>
      <point x="226" y="136" type="curve" smooth="yes"/>
      <point x="226" y="105"/>
      <point x="253" y="87"/>
      <point x="301" y="87" type="curve" smooth="yes"/>
      <point x="351" y="87"/>
      <point x="380" y="101"/>
      <point x="443" y="155" type="curve"/>
      <point x="482" y="338" type="line"/>
      <point x="447" y="338" type="line" smooth="yes"/>
      <point x="406" y="338"/>
      <point x="390" y="349"/>
      <point x="390" y="377" type="curve" smooth="yes"/>
      <point x="390" y="393"/>
      <point x="399" y="411"/>
      <point x="413" y="423" type="curve"/>
      <point x="428" y="434"/>
      <point x="437" y="437"/>
      <point x="468" y="437" type="curve" smooth="yes"/>
    </contour>
    <contour>
      <point x="425" y="607" type="line"/>
      <point x="291" y="510" type="line" smooth="yes"/>
      <point x="278" y="501"/>
      <point x="269" y="497"/>
      <point x="260" y="497" type="curve" smooth="yes"/>
      <point x="244" y="497"/>
      <point x="232" y="509"/>
      <point x="232" y="525" type="curve" smooth="yes"/>
      <point x="232" y="542"/>
      <point x="237" y="548"/>
      <point x="264" y="567" type="curve" smooth="yes"/>
      <point x="444" y="696" type="line"/>
      <point x="568" y="567" type="line" smooth="yes"/>
      <point x="584" y="551"/>
      <point x="585" y="550"/>
      <point x="585" y="540" type="curve" smooth="yes"/>
      <point x="585" y="518"/>
      <point x="564" y="497"/>
      <point x="542" y="497" type="curve" smooth="yes"/>
      <point x="533" y="497"/>
      <point x="525" y="501"/>
      <point x="517" y="510" type="curve" smooth="yes"/>
    </contour>
  </outline>
</glyph>
<glyph name="yacute" format="1">
  <advance width="600"/>
  <unicode hex="00FD"/>
  <outline>
    <contour>
      <point x="243" y="3" type="line"/>
      <point x="142" y="337" type="line"/>
      <point x="115" y="341"/>
      <point x="102" y="353"/>
      <point x="102" y="377" type="curve" smooth="yes"/>
      <point x="102" y="393"/>
      <point x="111" y="411"/>
      <point x="125" y="422" type="curve" smooth="yes"/>
      <point x="140" y="434"/>
      <point x="149" y="437"/>
      <point x="180" y="437" type="curve" smooth="yes"/>
      <point x="270" y="437" type="line" smooth="yes"/>
      <point x="290" y="437"/>
      <point x="296" y="436"/>
      <point x="304" y="433" type="curve" smooth="yes"/>
      <point x="317" y="429"/>
      <point x="326" y="414"/>
      <point x="326" y="398" type="curve" smooth="yes"/>
      <point x="326" y="362"/>
      <point x="297" y="338"/>
      <point x="255" y="337" type="curve"/>
      <point x="323" y="114" type="line"/>
      <point x="489" y="337" type="line"/>
      <point x="484" y="337" type="line" smooth="yes"/>
      <point x="452" y="337"/>
      <point x="435" y="351"/>
      <point x="435" y="377" type="curve" smooth="yes"/>
      <point x="435" y="393"/>
      <point x="444" y="411"/>
      <point x="458" y="422" type="curve" smooth="yes"/>
      <point x="472" y="434"/>
      <point x="482" y="437"/>
      <point x="513" y="437" type="curve" smooth="yes"/>
      <point x="605" y="437" type="line" smooth="yes"/>
      <point x="625" y="437"/>
      <point x="632" y="436"/>
      <point x="640" y="433" type="curve" smooth="yes"/>
      <point x="653" y="429"/>
      <point x="662" y="414"/>
      <point x="662" y="397" type="curve" smooth="yes"/>
      <point x="662" y="365"/>
      <point x="636" y="341"/>
      <point x="599" y="337" type="curve"/>
      <point x="274" y="-105" type="line"/>
      <point x="279" y="-105" type="line" smooth="yes"/>
      <point x="298" y="-105"/>
      <point x="306" y="-106"/>
      <point x="314" y="-109" type="curve" smooth="yes"/>
      <point x="327" y="-113"/>
      <point x="336" y="-128"/>
      <point x="336" y="-144" type="curve" smooth="yes"/>
      <point x="336" y="-161"/>
      <point x="327" y="-178"/>
      <point x="313" y="-190" type="curve" smooth="yes"/>
      <point x="299" y="-202"/>
      <point x="287" y="-205"/>
      <point x="258" y="-205" type="curve" smooth="yes"/>
      <point x="44" y="-205" type="line" smooth="yes"/>
      <point x="3" y="-205"/>
      <point x="-13" y="-194"/>
      <point x="-13" y="-165" type="curve" smooth="yes"/>
      <point x="-13" y="-149"/>
      <point x="-4" y="-132"/>
      <point x="10" y="-120" type="curve" smooth="yes"/>
      <point x="25" y="-108"/>
      <point x="34" y="-105"/>
      <point x="65" y="-105" type="curve" smooth="yes"/>
      <point x="165" y="-105" type="line"/>
    </contour>
    <contour>
      <point x="585" y="624" type="curve" smooth="yes"/>
      <point x="427" y="512" type="line" smooth="yes"/>
      <point x="409" y="499"/>
      <point x="402" y="496"/>
      <point x="392" y="496" type="curve" smooth="yes"/>
      <point x="374" y="496"/>
      <point x="362" y="508"/>
      <point x="362" y="526" type="curve" smooth="yes"/>
      <point x="362" y="541"/>
      <point x="372" y="554"/>
      <point x="393" y="569" type="curve" smooth="yes"/>
      <point x="551" y="680" type="line" smooth="yes"/>
      <point x="569" y="693"/>
      <point x="575" y="696"/>
      <point x="586" y="696" type="curve" smooth="yes"/>
      <point x="604" y="696"/>
      <point x="616" y="684"/>
      <point x="616" y="667" type="curve" smooth="yes"/>
      <point x="616" y="652"/>
      <point x="607" y="639"/>
    </contour>
  </outline>
</glyph>
<glyph name="thorn" format="1">
  <advance width="600"/>
  <unicode hex="00FE"/>
  <outline>
    <contour>
      <point x="188" y="66" type="curve"/>
      <point x="152" y="-105" type="line"/>
      <point x="210" y="-105" type="line" smooth="yes"/>
      <point x="228" y="-105"/>
      <point x="236" y="-106"/>
      <point x="244" y="-109" type="curve" smooth="yes"/>
      <point x="257" y="-113"/>
      <point x="266" y="-128"/>
      <point x="266" y="-144" type="curve" smooth="yes"/>
      <point x="266" y="-161"/>
      <point x="257" y="-178"/>
      <point x="243" y="-190" type="curve" smooth="yes"/>
      <point x="229" y="-202"/>
      <point x="218" y="-205"/>
      <point x="188" y="-205" type="curve" smooth="yes"/>
      <point x="14" y="-205" type="line" smooth="yes"/>
      <point x="-26" y="-205"/>
      <point x="-42" y="-194"/>
      <point x="-42" y="-165" type="curve" smooth="yes"/>
      <point x="-42" y="-149"/>
      <point x="-33" y="-132"/>
      <point x="-19" y="-120" type="curve" smooth="yes"/>
      <point x="-5" y="-108"/>
      <point x="5" y="-105"/>
      <point x="36" y="-105" type="curve" smooth="yes"/>
      <point x="52" y="-105" type="line"/>
      <point x="185" y="524" type="line"/>
      <point x="169" y="524" type="line" smooth="yes"/>
      <point x="128" y="524"/>
      <point x="113" y="535"/>
      <point x="113" y="564" type="curve" smooth="yes"/>
      <point x="113" y="580"/>
      <point x="122" y="597"/>
      <point x="136" y="609" type="curve" smooth="yes"/>
      <point x="150" y="621"/>
      <point x="160" y="624"/>
      <point x="191" y="624" type="curve" smooth="yes"/>
      <point x="307" y="624" type="line"/>
      <point x="257" y="392" type="line"/>
      <point x="315" y="434"/>
      <point x="361" y="450"/>
      <point x="423" y="450" type="curve" smooth="yes"/>
      <point x="545" y="450"/>
      <point x="623" y="379"/>
      <point x="623" y="269" type="curve" smooth="yes"/>
      <point x="623" y="127"/>
      <point x="490" y="10"/>
      <point x="329" y="10" type="curve" smooth="yes"/>
      <point x="272" y="10"/>
      <point x="231" y="27"/>
    </contour>
    <contour>
      <point x="398" y="350" type="curve" smooth="yes"/>
      <point x="301" y="350"/>
      <point x="225" y="290"/>
      <point x="221" y="211" type="curve" smooth="yes"/>
      <point x="220" y="186"/>
      <point x="232" y="157"/>
      <point x="251" y="139" type="curve"/>
      <point x="273" y="120"/>
      <point x="304" y="110"/>
      <point x="346" y="110" type="curve" smooth="yes"/>
      <point x="387" y="110"/>
      <point x="423" y="120"/>
      <point x="453" y="139" type="curve" smooth="yes"/>
      <point x="494" y="166"/>
      <point x="522" y="211"/>
      <point x="522" y="252" type="curve" smooth="yes"/>
      <point x="522" y="312"/>
      <point x="473" y="350"/>
    </contour>
  </outline>
</glyph>
<glyph name="Aogonek" format="1">
  <advance width="600"/>
  <unicode hex="0104"/>
  <outline>
    <contour>
      <point x="478" y="583" type="line"/>
      <point x="575" y="100" type="line"/>
      <point x="595" y="100"/>
      <point x="602" y="99"/>
      <point x="611" y="96" type="curve" smooth="yes"/>
      <point x="624" y="91"/>
      <point x="633" y="76"/>
      <point x="633" y="60" type="curve" smooth="yes"/>
      <point x="633" y="33"/>
      <point x="618" y="16"/>
      <point x="578" y="-2" type="curve" smooth="yes"/>
      <point x="515" y="-30"/>
      <point x="469" y="-78"/>
      <point x="469" y="-114" type="curve" smooth="yes"/>
      <point x="469" y="-125"/>
      <point x="474" y="-130"/>
      <point x="486" y="-130" type="curve" smooth="yes"/>
      <point x="498" y="-130"/>
      <point x="505" y="-128"/>
      <point x="539" y="-114" type="curve" smooth="yes"/>
      <point x="549" y="-109"/>
      <point x="555" y="-108"/>
      <point x="562" y="-108" type="curve" smooth="yes"/>
      <point x="581" y="-108"/>
      <point x="593" y="-121"/>
      <point x="593" y="-140" type="curve" smooth="yes"/>
      <point x="593" y="-154"/>
      <point x="584" y="-169"/>
      <point x="570" y="-178" type="curve" smooth="yes"/>
      <point x="544" y="-195"/>
      <point x="497" y="-208"/>
      <point x="464" y="-208" type="curve" smooth="yes"/>
      <point x="416" y="-208"/>
      <point x="387" y="-180"/>
      <point x="387" y="-135" type="curve" smooth="yes"/>
      <point x="387" y="-93"/>
      <point x="408" y="-56"/>
      <point x="446" y="-31" type="curve" smooth="yes"/>
      <point x="462" y="-21"/>
      <point x="473" y="-14"/>
      <point x="500" y="0" type="curve"/>
      <point x="416" y="0" type="line" smooth="yes"/>
      <point x="376" y="0"/>
      <point x="360" y="11"/>
      <point x="360" y="40" type="curve" smooth="yes"/>
      <point x="360" y="56"/>
      <point x="369" y="73"/>
      <point x="383" y="85" type="curve" smooth="yes"/>
      <point x="398" y="98"/>
      <point x="406" y="100"/>
      <point x="438" y="100" type="curve" smooth="yes"/>
      <point x="461" y="100" type="line"/>
      <point x="450" y="158" type="line"/>
      <point x="212" y="158" type="line"/>
      <point x="176" y="100" type="line"/>
      <point x="199" y="100" type="line" smooth="yes"/>
      <point x="220" y="100"/>
      <point x="226" y="99"/>
      <point x="234" y="96" type="curve" smooth="yes"/>
      <point x="247" y="92"/>
      <point x="256" y="76"/>
      <point x="256" y="60" type="curve" smooth="yes"/>
      <point x="256" y="44"/>
      <point x="247" y="27"/>
      <point x="233" y="15" type="curve" smooth="yes"/>
      <point x="219" y="3"/>
      <point x="207" y="0"/>
      <point x="178" y="0" type="curve" smooth="yes"/>
      <point x="46" y="0" type="line" smooth="yes"/>
      <point x="5" y="0"/>
      <point x="-11" y="11"/>
      <point x="-11" y="40" type="curve" smooth="yes"/>
      <point x="-11" y="56"/>
      <point x="-2" y="74"/>
      <point x="12" y="85" type="curve" smooth="yes"/>
      <point x="27" y="97"/>
      <point x="37" y="100"/>
      <point x="68" y="100" type="curve"/>
      <point x="304" y="483" type="line"/>
      <point x="241" y="483" type="line" smooth="yes"/>
      <point x="200" y="483"/>
      <point x="184" y="494"/>
      <point x="184" y="523" type="curve" smooth="yes"/>
      <point x="184" y="539"/>
      <point x="193" y="557"/>
      <point x="207" y="569" type="curve" smooth="yes"/>
      <point x="222" y="581"/>
      <point x="230" y="583"/>
      <point x="262" y="583" type="curve" smooth="yes"/>
    </contour>
    <contour>
      <point x="430" y="258" type="line"/>
      <point x="392" y="450" type="line"/>
      <point x="273" y="258" type="line"/>
    </contour>
  </outline>
</glyph>
<glyph name="Cacute" format="1">
  <advance width="600"/>
  <unicode hex="0106"/>
  <outline>
    <contour>
      <point x="567" y="563" type="curve"/>
      <point x="576" y="559" type="line"/>
      <point x="593" y="576"/>
      <point x="606" y="583"/>
      <point x="623" y="583" type="curve" smooth="yes"/>
      <point x="646" y="583"/>
      <point x="663" y="567"/>
      <point x="663" y="545" type="curve" smooth="yes"/>
      <point x="663" y="538"/>
      <point x="663" y="534"/>
      <point x="659" y="517" type="curve" smooth="yes"/>
      <point x="641" y="433" type="line" smooth="yes"/>
      <point x="635" y="407"/>
      <point x="632" y="398"/>
      <point x="622" y="388" type="curve" smooth="yes"/>
      <point x="610" y="375"/>
      <point x="593" y="367"/>
      <point x="577" y="367" type="curve" smooth="yes"/>
      <point x="553" y="367"/>
      <point x="537" y="383"/>
      <point x="538" y="406" type="curve" smooth="yes"/>
      <point x="539" y="425" type="line" smooth="yes"/>
      <point x="541" y="463"/>
      <point x="482" y="497"/>
      <point x="415" y="497" type="curve" smooth="yes"/>
      <point x="313" y="497"/>
      <point x="222" y="420"/>
      <point x="200" y="315" type="curve" smooth="yes"/>
      <point x="186" y="251" type="line" smooth="yes"/>
      <point x="183" y="238"/>
      <point x="182" y="225"/>
      <point x="182" y="214" type="curve" smooth="yes"/>
      <point x="182" y="135"/>
      <point x="245" y="86"/>
      <point x="347" y="86" type="curve" smooth="yes"/>
      <point x="393" y="86"/>
      <point x="436" y="95"/>
      <point x="463" y="109" type="curve" smooth="yes"/>
      <point x="475" y="116"/>
      <point x="476" y="116"/>
      <point x="508" y="143" type="curve" smooth="yes"/>
      <point x="522" y="154"/>
      <point x="534" y="159"/>
      <point x="547" y="159" type="curve" smooth="yes"/>
      <point x="570" y="159"/>
      <point x="588" y="141"/>
      <point x="588" y="118" type="curve" smooth="yes"/>
      <point x="588" y="99"/>
      <point x="576" y="80"/>
      <point x="550" y="59" type="curve" smooth="yes"/>
      <point x="493" y="11"/>
      <point x="414" y="-14"/>
      <point x="324" y="-14" type="curve" smooth="yes"/>
      <point x="176" y="-14"/>
      <point x="80" y="69"/>
      <point x="80" y="195" type="curve" smooth="yes"/>
      <point x="80" y="213"/>
      <point x="82" y="231"/>
      <point x="86" y="249" type="curve" smooth="yes"/>
      <point x="100" y="315" type="line" smooth="yes"/>
      <point x="134" y="475"/>
      <point x="277" y="597"/>
      <point x="432" y="597" type="curve" smooth="yes"/>
      <point x="484" y="597"/>
      <point x="517" y="589"/>
    </contour>
    <contour>
      <point x="609" y="767" type="line"/>
      <point x="459" y="656" type="line"/>
      <point x="433" y="640"/>
      <point x="433" y="640"/>
      <point x="424" y="640" type="curve" smooth="yes"/>
      <point x="407" y="640"/>
      <point x="394" y="652"/>
      <point x="394" y="669" type="curve" smooth="yes"/>
      <point x="394" y="684"/>
      <point x="402" y="696"/>
      <point x="424" y="712" type="curve" smooth="yes"/>
      <point x="575" y="824" type="line" smooth="yes"/>
      <point x="590" y="835"/>
      <point x="599" y="839"/>
      <point x="609" y="839" type="curve" smooth="yes"/>
      <point x="627" y="839"/>
      <point x="640" y="827"/>
      <point x="640" y="810" type="curve" smooth="yes"/>
      <point x="640" y="796"/>
      <point x="632" y="783"/>
      <point x="616" y="772" type="curve" smooth="yes"/>
    </contour>
  </outline>
</glyph>
<glyph name="cdotaccent" format="1">
  <advance width="600"/>
  <unicode hex="010B"/>
  <outline>
    <contour>
      <point x="377" y="579" type="curve" smooth="yes"/>
      <point x="405" y="579"/>
      <point x="425" y="558"/>
      <point x="425" y="532" type="curve" smooth="yes"/>
      <point x="425" y="496"/>
      <point x="389" y="463"/>
      <point x="352" y="463" type="curve" smooth="yes"/>
      <point x="326" y="463"/>
      <point x="305" y="483"/>
      <point x="305" y="510" type="curve" smooth="yes"/>
      <point x="305" y="545"/>
      <point x="340" y="579"/>
    </contour>
    <contour>
      <point x="556" y="371" type="curve"/>
      <point x="539" y="298" type="line" smooth="yes"/>
      <point x="533" y="273"/>
      <point x="529" y="263"/>
      <point x="519" y="253" type="curve" smooth="yes"/>
      <point x="508" y="241"/>
      <point x="491" y="234"/>
      <point x="476" y="234" type="curve" smooth="yes"/>
      <point x="464" y="234"/>
      <point x="451" y="240"/>
      <point x="444" y="247" type="curve"/>
      <point x="439" y="254"/>
      <point x="437" y="260"/>
      <point x="437" y="280" type="curve" smooth="yes"/>
      <point x="437" y="296"/>
      <point x="434" y="306"/>
      <point x="422" y="315" type="curve" smooth="yes"/>
      <point x="402" y="330"/>
      <point x="367" y="339"/>
      <point x="325" y="339" type="curve" smooth="yes"/>
      <point x="264" y="339"/>
      <point x="215" y="316"/>
      <point x="178" y="273" type="curve"/>
      <point x="155" y="244"/>
      <point x="141" y="208"/>
      <point x="141" y="172" type="curve" smooth="yes"/>
      <point x="141" y="112"/>
      <point x="189" y="81"/>
      <point x="289" y="81" type="curve" smooth="yes"/>
      <point x="367" y="81"/>
      <point x="402" y="90"/>
      <point x="448" y="123" type="curve" smooth="yes"/>
      <point x="459" y="132"/>
      <point x="468" y="136"/>
      <point x="480" y="136" type="curve" smooth="yes"/>
      <point x="502" y="136"/>
      <point x="519" y="119"/>
      <point x="519" y="97" type="curve" smooth="yes"/>
      <point x="519" y="77"/>
      <point x="504" y="55"/>
      <point x="479" y="38" type="curve" smooth="yes"/>
      <point x="429" y="2"/>
      <point x="356" y="-16"/>
      <point x="259" y="-16" type="curve" smooth="yes"/>
      <point x="188" y="-16"/>
      <point x="135" y="-2"/>
      <point x="101" y="24" type="curve"/>
      <point x="64" y="54"/>
      <point x="42" y="101"/>
      <point x="42" y="152" type="curve" smooth="yes"/>
      <point x="42" y="216"/>
      <point x="72" y="288"/>
      <point x="121" y="340" type="curve"/>
      <point x="178" y="403"/>
      <point x="256" y="436"/>
      <point x="346" y="436" type="curve" smooth="yes"/>
      <point x="402" y="436"/>
      <point x="444" y="427"/>
      <point x="479" y="407" type="curve"/>
      <point x="488" y="427"/>
      <point x="501" y="436"/>
      <point x="522" y="436" type="curve" smooth="yes"/>
      <point x="545" y="436"/>
      <point x="558" y="422"/>
      <point x="558" y="398" type="curve" smooth="yes"/>
      <point x="558" y="392"/>
      <point x="557" y="388"/>
    </contour>
  </outline>
</glyph>
<glyph name="Dcaron" format="1">
  <advance width="600"/>
  <unicode hex="010E"/>
  <outline>
    <contour>
      <point x="96" y="100" type="curve"/>
      <point x="177" y="483" type="line"/>
      <point x="142" y="483"/>
      <point x="126" y="496"/>
      <point x="126" y="523" type="curve" smooth="yes"/>
      <point x="126" y="539"/>
      <point x="135" y="556"/>
      <point x="149" y="569" type="curve"/>
      <point x="164" y="581"/>
      <point x="172" y="583"/>
      <point x="204" y="583" type="curve" smooth="yes"/>
      <point x="417" y="583" type="line" smooth="yes"/>
      <point x="539" y="583"/>
      <point x="622" y="497"/>
      <point x="622" y="369" type="curve" smooth="yes"/>
      <point x="622" y="348"/>
      <point x="620" y="326"/>
      <point x="615" y="305" type="curve" smooth="yes"/>
      <point x="605" y="258" type="line" smooth="yes"/>
      <point x="590" y="185"/>
      <point x="553" y="123"/>
      <point x="497" y="75" type="curve" smooth="yes"/>
      <point x="437" y="23"/>
      <point x="371" y="0"/>
      <point x="285" y="0" type="curve" smooth="yes"/>
      <point x="80" y="0" type="line" smooth="yes"/>
      <point x="39" y="0"/>
      <point x="23" y="12"/>
      <point x="23" y="40" type="curve" smooth="yes"/>
      <point x="23" y="56"/>
      <point x="32" y="73"/>
      <point x="46" y="85" type="curve" smooth="yes"/>
      <point x="60" y="97"/>
      <point x="71" y="100"/>
    </contour>
    <contour>
      <point x="196" y="100" type="line"/>
      <point x="306" y="100" type="line" smooth="yes"/>
      <point x="366" y="100"/>
      <point x="401" y="112"/>
      <point x="440" y="144" type="curve" smooth="yes"/>
      <point x="475" y="174"/>
      <point x="495" y="210"/>
      <point x="506" y="261" type="curve" smooth="yes"/>
      <point x="516" y="307" type="line" smooth="yes"/>
      <point x="519" y="321"/>
      <point x="520" y="335"/>
      <point x="520" y="350" type="curve" smooth="yes"/>
      <point x="520" y="392"/>
      <point x="503" y="434"/>
      <point x="475" y="457" type="curve"/>
      <point x="456" y="474"/>
      <point x="424" y="483"/>
      <point x="387" y="483" type="curve" smooth="yes"/>
      <point x="277" y="483" type="line"/>
    </contour>
    <contour>
      <point x="411" y="729" type="line"/>
      <point x="538" y="826" type="line" smooth="yes"/>
      <point x="549" y="834"/>
      <point x="560" y="839"/>
      <point x="569" y="839" type="curve" smooth="yes"/>
      <point x="583" y="839"/>
      <point x="597" y="825"/>
      <point x="597" y="811" type="curve" smooth="yes"/>
      <point x="597" y="796"/>
      <point x="590" y="785"/>
      <point x="572" y="773" type="curve" smooth="yes"/>
      <point x="565" y="768" type="line"/>
      <point x="392" y="640" type="line"/>
      <point x="264" y="768" type="line" smooth="yes"/>
      <point x="250" y="782"/>
      <point x="247" y="787"/>
      <point x="247" y="797" type="curve" smooth="yes"/>
      <point x="247" y="816"/>
      <point x="271" y="839"/>
      <point x="291" y="839" type="curve" smooth="yes"/>
      <point x="299" y="839"/>
      <point x="306" y="835"/>
      <point x="315" y="826" type="curve" smooth="yes"/>
    </contour>
  </outline>
</glyph>
<glyph name="emacron" format="1">
  <advance width="600"/>
  <unicode hex="0113"/>
  <outline>
    <contour>
      <point x="587" y="172" type="line"/>
      <point x="178" y="172" type="line"/>
      <point x="189" y="112"/>
      <point x="237" y="84"/>
      <point x="325" y="84" type="curve" smooth="yes"/>
      <point x="369" y="84"/>
      <point x="398" y="89"/>
      <point x="493" y="112" type="curve" smooth="yes"/>
      <point x="506" y="115"/>
      <point x="519" y="117"/>
      <point x="528" y="117" type="curve" smooth="yes"/>
      <point x="551" y="117"/>
      <point x="566" y="101"/>
      <point x="566" y="79" type="curve" smooth="yes"/>
      <point x="566" y="57"/>
      <point x="554" y="39"/>
      <point x="533" y="28" type="curve" smooth="yes"/>
      <point x="490" y="5"/>
      <point x="374" y="-16"/>
      <point x="294" y="-16" type="curve" smooth="yes"/>
      <point x="158" y="-16"/>
      <point x="74" y="55"/>
      <point x="74" y="169" type="curve" smooth="yes"/>
      <point x="74" y="318"/>
      <point x="221" y="450"/>
      <point x="387" y="450" type="curve" smooth="yes"/>
      <point x="517" y="450"/>
      <point x="600" y="375"/>
      <point x="600" y="259" type="curve" smooth="yes"/>
      <point x="600" y="243"/>
      <point x="598" y="227"/>
      <point x="595" y="211" type="curve" smooth="yes"/>
    </contour>
    <contour>
      <point x="200" y="260" type="curve"/>
      <point x="495" y="260" type="line"/>
      <point x="490" y="314"/>
      <point x="439" y="350"/>
      <point x="367" y="350" type="curve" smooth="yes"/>
      <point x="293" y="350"/>
      <point x="228" y="315"/>
    </contour>
    <contour>
      <point x="311" y="626" type="curve" smooth="yes"/>
      <point x="555" y="626" type="line" smooth="yes"/>
      <point x="588" y="626"/>
      <point x="600" y="617"/>
      <point x="600" y="593" type="curve" smooth="yes"/>
      <point x="600" y="566"/>
      <point x="574" y="546"/>
      <point x="538" y="546" type="curve" smooth="yes"/>
      <point x="294" y="546" type="line" smooth="yes"/>
      <point x="261" y="546"/>
      <point x="249" y="554"/>
      <point x="249" y="579" type="curve" smooth="yes"/>
      <point x="249" y="607"/>
      <point x="274" y="626"/>
    </contour>
  </outline>
</glyph>
<glyph name="ebreve" format="1">
  <advance width="600"/>
  <unicode hex="0115"/>
  <outline>
    <contour>
      <point x="258" y="642" type="curve" smooth="yes"/>
      <point x="276" y="642"/>
      <point x="282" y="632"/>
      <point x="280" y="605" type="curve"/>
      <point x="280" y="559"/>
      <point x="314" y="530"/>
      <point x="370" y="530" type="curve" smooth="yes"/>
      <point x="422" y="530"/>
      <point x="470" y="558"/>
      <point x="488" y="603" type="curve"/>
      <point x="502" y="633"/>
      <point x="510" y="642"/>
      <point x="530" y="642" type="curve" smooth="yes"/>
      <point x="546" y="642"/>
      <point x="556" y="632"/>
      <point x="556" y="615" type="curve" smooth="yes"/>
      <point x="556" y="596"/>
      <point x="542" y="566"/>
      <point x="522" y="542" type="curve" smooth="yes"/>
      <point x="480" y="492"/>
      <point x="418" y="463"/>
      <point x="356" y="463" type="curve" smooth="yes"/>
      <point x="276" y="463"/>
      <point x="214" y="517"/>
      <point x="214" y="587" type="curve" smooth="yes"/>
      <point x="214" y="619"/>
      <point x="232" y="642"/>
    </contour>
    <contour>
      <point x="542" y="167" type="line"/>
      <point x="144" y="167" type="line"/>
      <point x="156" y="108"/>
      <point x="202" y="81"/>
      <point x="288" y="81" type="curve" smooth="yes"/>
      <point x="330" y="81"/>
      <point x="358" y="86"/>
      <point x="450" y="108" type="curve"/>
      <point x="462" y="112"/>
      <point x="476" y="113"/>
      <point x="484" y="113" type="curve" smooth="yes"/>
      <point x="506" y="113"/>
      <point x="522" y="98"/>
      <point x="522" y="77" type="curve" smooth="yes"/>
      <point x="522" y="55"/>
      <point x="508" y="38"/>
      <point x="488" y="27" type="curve" smooth="yes"/>
      <point x="446" y="5"/>
      <point x="336" y="-16"/>
      <point x="258" y="-16" type="curve" smooth="yes"/>
      <point x="126" y="-16"/>
      <point x="44" y="53"/>
      <point x="44" y="164" type="curve" smooth="yes"/>
      <point x="44" y="308"/>
      <point x="186" y="436"/>
      <point x="348" y="436" type="curve" smooth="yes"/>
      <point x="474" y="436"/>
      <point x="554" y="363"/>
      <point x="554" y="250" type="curve" smooth="yes"/>
      <point x="554" y="236"/>
      <point x="552" y="220"/>
      <point x="550" y="205" type="curve"/>
    </contour>
    <contour>
      <point x="166" y="252" type="curve"/>
      <point x="452" y="252" type="line"/>
      <point x="446" y="304"/>
      <point x="398" y="339"/>
      <point x="328" y="339" type="curve" smooth="yes"/>
      <point x="256" y="339"/>
      <point x="194" y="306"/>
    </contour>
  </outline>
</glyph>
<glyph name="edotaccent" format="1">
  <advance width="600"/>
  <unicode hex="0117"/>
  <outline>
    <contour>
      <point x="587" y="172" type="line"/>
      <point x="178" y="172" type="line"/>
      <point x="189" y="112"/>
      <point x="237" y="84"/>
      <point x="325" y="84" type="curve" smooth="yes"/>
      <point x="369" y="84"/>
      <point x="398" y="89"/>
      <point x="493" y="112" type="curve" smooth="yes"/>
      <point x="506" y="115"/>
      <point x="519" y="117"/>
      <point x="528" y="117" type="curve" smooth="yes"/>
      <point x="551" y="117"/>
      <point x="566" y="101"/>
      <point x="566" y="79" type="curve" smooth="yes"/>
      <point x="566" y="57"/>
      <point x="554" y="39"/>
      <point x="533" y="28" type="curve" smooth="yes"/>
      <point x="490" y="5"/>
      <point x="374" y="-16"/>
      <point x="294" y="-16" type="curve" smooth="yes"/>
      <point x="158" y="-16"/>
      <point x="74" y="55"/>
      <point x="74" y="169" type="curve" smooth="yes"/>
      <point x="74" y="318"/>
      <point x="221" y="450"/>
      <point x="387" y="450" type="curve" smooth="yes"/>
      <point x="517" y="450"/>
      <point x="600" y="375"/>
      <point x="600" y="259" type="curve" smooth="yes"/>
      <point x="600" y="243"/>
      <point x="598" y="227"/>
      <point x="595" y="211" type="curve" smooth="yes"/>
    </contour>
    <contour>
      <point x="200" y="260" type="curve"/>
      <point x="495" y="260" type="line"/>
      <point x="490" y="314"/>
      <point x="439" y="350"/>
      <point x="367" y="350" type="curve" smooth="yes"/>
      <point x="293" y="350"/>
      <point x="228" y="315"/>
    </contour>
    <contour>
      <point x="439" y="654" type="curve" smooth="yes"/>
      <point x="468" y="654"/>
      <point x="488" y="634"/>
      <point x="488" y="606" type="curve" smooth="yes"/>
      <point x="488" y="569"/>
      <point x="452" y="534"/>
      <point x="413" y="534" type="curve" smooth="yes"/>
      <point x="386" y="534"/>
      <point x="365" y="555"/>
      <point x="365" y="582" type="curve" smooth="yes"/>
      <point x="365" y="619"/>
      <point x="401" y="654"/>
    </contour>
  </outline>
</glyph>
<glyph name="eogonek" format="1">
  <advance width="600"/>
  <unicode hex="0119"/>
  <outline>
    <contour>
      <point x="587" y="172" type="line"/>
      <point x="178" y="172" type="line"/>
      <point x="189" y="112"/>
      <point x="237" y="84"/>
      <point x="325" y="84" type="curve" smooth="yes"/>
      <point x="369" y="84"/>
      <point x="398" y="89"/>
      <point x="493" y="112" type="curve" smooth="yes"/>
      <point x="506" y="115"/>
      <point x="519" y="117"/>
      <point x="528" y="117" type="curve" smooth="yes"/>
      <point x="551" y="117"/>
      <point x="566" y="101"/>
      <point x="566" y="79" type="curve" smooth="yes"/>
      <point x="566" y="51"/>
      <point x="551" y="34"/>
      <point x="512" y="19" type="curve" smooth="yes"/>
      <point x="422" y="-15"/>
      <point x="343" y="-79"/>
      <point x="343" y="-117" type="curve" smooth="yes"/>
      <point x="343" y="-127"/>
      <point x="350" y="-132"/>
      <point x="362" y="-132" type="curve" smooth="yes"/>
      <point x="375" y="-132"/>
      <point x="387" y="-128"/>
      <point x="418" y="-114" type="curve" smooth="yes"/>
      <point x="429" y="-109"/>
      <point x="435" y="-108"/>
      <point x="442" y="-108" type="curve" smooth="yes"/>
      <point x="460" y="-108"/>
      <point x="473" y="-120"/>
      <point x="473" y="-138" type="curve" smooth="yes"/>
      <point x="473" y="-153"/>
      <point x="463" y="-169"/>
      <point x="449" y="-178" type="curve" smooth="yes"/>
      <point x="421" y="-195"/>
      <point x="375" y="-208"/>
      <point x="339" y="-208" type="curve" smooth="yes"/>
      <point x="291" y="-208"/>
      <point x="262" y="-183"/>
      <point x="262" y="-142" type="curve" smooth="yes"/>
      <point x="262" y="-93"/>
      <point x="292" y="-48"/>
      <point x="346" y="-14" type="curve"/>
      <point x="322" y="-15"/>
      <point x="308" y="-16"/>
      <point x="294" y="-16" type="curve" smooth="yes"/>
      <point x="158" y="-16"/>
      <point x="74" y="55"/>
      <point x="74" y="169" type="curve" smooth="yes"/>
      <point x="74" y="318"/>
      <point x="221" y="450"/>
      <point x="387" y="450" type="curve" smooth="yes"/>
      <point x="517" y="450"/>
      <point x="600" y="375"/>
      <point x="600" y="259" type="curve" smooth="yes"/>
      <point x="600" y="243"/>
      <point x="598" y="227"/>
      <point x="595" y="211" type="curve" smooth="yes"/>
    </contour>
    <contour>
      <point x="200" y="260" type="curve"/>
      <point x="495" y="260" type="line"/>
      <point x="490" y="314"/>
      <point x="439" y="350"/>
      <point x="367" y="350" type="curve" smooth="yes"/>
      <point x="293" y="350"/>
      <point x="228" y="315"/>
    </contour>
  </outline>
</glyph>
<glyph name="Gcircumflex" format="1">
  <advance width="600"/>
  <unicode hex="011C"/>
  <outline>
    <contour>
      <point x="394" y="710" type="line"/>
      <point x="264" y="616" type="line" smooth="yes"/>
      <point x="250" y="607"/>
      <point x="242" y="604"/>
      <point x="234" y="604" type="curve" smooth="yes"/>
      <point x="218" y="604"/>
      <point x="206" y="614"/>
      <point x="206" y="630" type="curve" smooth="yes"/>
      <point x="206" y="647"/>
      <point x="210" y="654"/>
      <point x="236" y="671" type="curve"/>
      <point x="412" y="797" type="line"/>
      <point x="532" y="671" type="line" smooth="yes"/>
      <point x="546" y="656"/>
      <point x="548" y="655"/>
      <point x="548" y="645" type="curve" smooth="yes"/>
      <point x="548" y="624"/>
      <point x="528" y="604"/>
      <point x="506" y="604" type="curve" smooth="yes"/>
      <point x="498" y="604"/>
      <point x="490" y="607"/>
      <point x="482" y="616" type="curve" smooth="yes"/>
    </contour>
    <contour>
      <point x="508" y="174" type="curve"/>
      <point x="480" y="47" type="line"/>
      <point x="384" y="0"/>
      <point x="332" y="-15"/>
      <point x="254" y="-15" type="curve" smooth="yes"/>
      <point x="188" y="-15"/>
      <point x="126" y="2"/>
      <point x="82" y="31" type="curve" smooth="yes"/>
      <point x="38" y="61"/>
      <point x="16" y="112"/>
      <point x="16" y="178" type="curve" smooth="yes"/>
      <point x="16" y="198"/>
      <point x="16" y="218"/>
      <point x="22" y="239" type="curve"/>
      <point x="36" y="307" type="line" smooth="yes"/>
      <point x="52" y="381"/>
      <point x="96" y="453"/>
      <point x="160" y="503" type="curve"/>
      <point x="222" y="554"/>
      <point x="288" y="578"/>
      <point x="368" y="578" type="curve" smooth="yes"/>
      <point x="420" y="578"/>
      <point x="466" y="569"/>
      <point x="504" y="549" type="curve"/>
      <point x="520" y="570"/>
      <point x="530" y="578"/>
      <point x="550" y="578" type="curve" smooth="yes"/>
      <point x="570" y="578"/>
      <point x="584" y="565"/>
      <point x="584" y="542" type="curve" smooth="yes"/>
      <point x="584" y="535"/>
      <point x="584" y="533"/>
      <point x="580" y="515" type="curve" smooth="yes"/>
      <point x="564" y="439" type="line" smooth="yes"/>
      <point x="558" y="412"/>
      <point x="556" y="404"/>
      <point x="546" y="395" type="curve"/>
      <point x="534" y="381"/>
      <point x="518" y="375"/>
      <point x="504" y="375" type="curve" smooth="yes"/>
      <point x="490" y="375"/>
      <point x="478" y="381"/>
      <point x="472" y="389" type="curve" smooth="yes"/>
      <point x="468" y="396"/>
      <point x="468" y="396"/>
      <point x="466" y="427" type="curve" smooth="yes"/>
      <point x="464" y="460"/>
      <point x="418" y="482"/>
      <point x="350" y="482" type="curve" smooth="yes"/>
      <point x="242" y="482"/>
      <point x="154" y="412"/>
      <point x="134" y="307" type="curve"/>
      <point x="120" y="244" type="line" smooth="yes"/>
      <point x="116" y="226"/>
      <point x="114" y="210"/>
      <point x="114" y="193" type="curve" smooth="yes"/>
      <point x="114" y="123"/>
      <point x="170" y="84"/>
      <point x="270" y="84" type="curve" smooth="yes"/>
      <point x="318" y="84"/>
      <point x="356" y="90"/>
      <point x="398" y="107" type="curve"/>
      <point x="412" y="174" type="line"/>
      <point x="316" y="174" type="line" smooth="yes"/>
      <point x="276" y="174"/>
      <point x="260" y="185"/>
      <point x="260" y="213" type="curve" smooth="yes"/>
      <point x="260" y="228"/>
      <point x="268" y="246"/>
      <point x="284" y="257" type="curve"/>
      <point x="296" y="270"/>
      <point x="306" y="271"/>
      <point x="336" y="271" type="curve" smooth="yes"/>
      <point x="506" y="271" type="line" smooth="yes"/>
      <point x="526" y="271"/>
      <point x="530" y="270"/>
      <point x="540" y="267" type="curve" smooth="yes"/>
      <point x="552" y="264"/>
      <point x="560" y="249"/>
      <point x="560" y="234" type="curve" smooth="yes"/>
      <point x="560" y="205"/>
      <point x="540" y="183"/>
    </contour>
  </outline>
</glyph>
<glyph name="gdotaccent" format="1">
  <advance width="600"/>
  <unicode hex="0121"/>
  <outline>
    <contour>
      <point x="364" y="579" type="curve" smooth="yes"/>
      <point x="392" y="579"/>
      <point x="412" y="558"/>
      <point x="412" y="532" type="curve" smooth="yes"/>
      <point x="412" y="496"/>
      <point x="376" y="463"/>
      <point x="340" y="463" type="curve" smooth="yes"/>
      <point x="314" y="463"/>
      <point x="292" y="483"/>
      <point x="292" y="510" type="curve" smooth="yes"/>
      <point x="292" y="545"/>
      <point x="328" y="579"/>
    </contour>
    <contour>
      <point x="418" y="388" type="curve"/>
      <point x="424" y="423" type="line"/>
      <point x="538" y="423" type="line" smooth="yes"/>
      <point x="558" y="423"/>
      <point x="562" y="422"/>
      <point x="570" y="419" type="curve" smooth="yes"/>
      <point x="582" y="415"/>
      <point x="592" y="401"/>
      <point x="592" y="384" type="curve" smooth="yes"/>
      <point x="592" y="369"/>
      <point x="582" y="353"/>
      <point x="570" y="341" type="curve"/>
      <point x="556" y="329"/>
      <point x="546" y="326"/>
      <point x="516" y="326" type="curve" smooth="yes"/>
      <point x="500" y="326" type="line"/>
      <point x="426" y="-19" type="line"/>
      <point x="406" y="-122"/>
      <point x="308" y="-198"/>
      <point x="202" y="-198" type="curve" smooth="yes"/>
      <point x="96" y="-198" type="line" smooth="yes"/>
      <point x="56" y="-198"/>
      <point x="40" y="-188"/>
      <point x="40" y="-160" type="curve" smooth="yes"/>
      <point x="40" y="-144"/>
      <point x="50" y="-127"/>
      <point x="62" y="-116" type="curve"/>
      <point x="78" y="-104"/>
      <point x="86" y="-102"/>
      <point x="116" y="-102" type="curve" smooth="yes"/>
      <point x="220" y="-102" type="line" smooth="yes"/>
      <point x="276" y="-102"/>
      <point x="318" y="-70"/>
      <point x="330" y="-19" type="curve" smooth="yes"/>
      <point x="342" y="34" type="line"/>
      <point x="290" y="1"/>
      <point x="244" y="-15"/>
      <point x="194" y="-15" type="curve" smooth="yes"/>
      <point x="84" y="-15"/>
      <point x="8" y="57"/>
      <point x="8" y="162" type="curve" smooth="yes"/>
      <point x="8" y="308"/>
      <point x="142" y="437"/>
      <point x="290" y="437" type="curve" smooth="yes"/>
      <point x="342" y="437"/>
      <point x="388" y="420"/>
    </contour>
    <contour>
      <point x="272" y="340" type="curve" smooth="yes"/>
      <point x="188" y="340"/>
      <point x="107" y="265"/>
      <point x="107" y="187" type="curve" smooth="yes"/>
      <point x="107" y="126"/>
      <point x="154" y="84"/>
      <point x="218" y="84" type="curve" smooth="yes"/>
      <point x="302" y="84"/>
      <point x="382" y="158"/>
      <point x="382" y="236" type="curve" smooth="yes"/>
      <point x="382" y="298"/>
      <point x="336" y="340"/>
    </contour>
  </outline>
</glyph>
<glyph name="hcircumflex" format="1">
  <advance width="600"/>
  <unicode hex="0125"/>
  <outline>
    <contour>
      <point x="431" y="750" type="line"/>
      <point x="301" y="656" type="line" smooth="yes"/>
      <point x="288" y="647"/>
      <point x="279" y="644"/>
      <point x="271" y="644" type="curve" smooth="yes"/>
      <point x="255" y="644"/>
      <point x="243" y="654"/>
      <point x="243" y="670" type="curve" smooth="yes"/>
      <point x="243" y="687"/>
      <point x="248" y="694"/>
      <point x="274" y="711" type="curve"/>
      <point x="449" y="837" type="line"/>
      <point x="569" y="711" type="line" smooth="yes"/>
      <point x="584" y="696"/>
      <point x="586" y="695"/>
      <point x="586" y="685" type="curve" smooth="yes"/>
      <point x="586" y="664"/>
      <point x="565" y="644"/>
      <point x="544" y="644" type="curve" smooth="yes"/>
      <point x="535" y="644"/>
      <point x="527" y="647"/>
      <point x="519" y="656" type="curve" smooth="yes"/>
    </contour>
    <contour>
      <point x="300" y="604" type="line"/>
      <point x="252" y="378" type="line"/>
      <point x="298" y="417"/>
      <point x="346" y="436"/>
      <point x="397" y="436" type="curve" smooth="yes"/>
      <point x="482" y="436"/>
      <point x="538" y="388"/>
      <point x="538" y="315" type="curve" smooth="yes"/>
      <point x="538" y="302"/>
      <point x="537" y="290"/>
      <point x="534" y="275" type="curve" smooth="yes"/>
      <point x="495" y="97" type="line"/>
      <point x="501" y="97" type="line" smooth="yes"/>
      <point x="521" y="97"/>
      <point x="528" y="97"/>
      <point x="536" y="93" type="curve" smooth="yes"/>
      <point x="548" y="88"/>
      <point x="556" y="74"/>
      <point x="556" y="57" type="curve" smooth="yes"/>
      <point x="556" y="43"/>
      <point x="548" y="26"/>
      <point x="534" y="15" type="curve"/>
      <point x="521" y="2"/>
      <point x="509" y="0"/>
      <point x="481" y="0" type="curve" smooth="yes"/>
      <point x="373" y="0" type="line" smooth="yes"/>
      <point x="332" y="0"/>
      <point x="317" y="11"/>
      <point x="317" y="39" type="curve" smooth="yes"/>
      <point x="317" y="54"/>
      <point x="327" y="71"/>
      <point x="339" y="82" type="curve" smooth="yes"/>
      <point x="353" y="94"/>
      <point x="363" y="97"/>
      <point x="394" y="97" type="curve" smooth="yes"/>
      <point x="400" y="97" type="line"/>
      <point x="435" y="263" type="line" smooth="yes"/>
      <point x="438" y="274"/>
      <point x="438" y="285"/>
      <point x="438" y="293" type="curve" smooth="yes"/>
      <point x="438" y="321"/>
      <point x="410" y="339"/>
      <point x="366" y="339" type="curve" smooth="yes"/>
      <point x="319" y="339"/>
      <point x="296" y="329"/>
      <point x="230" y="274" type="curve"/>
      <point x="192" y="97" type="line"/>
      <point x="198" y="97" type="line" smooth="yes"/>
      <point x="218" y="97"/>
      <point x="223" y="97"/>
      <point x="232" y="93" type="curve" smooth="yes"/>
      <point x="242" y="88"/>
      <point x="253" y="74"/>
      <point x="253" y="57" type="curve" smooth="yes"/>
      <point x="253" y="43"/>
      <point x="245" y="24"/>
      <point x="231" y="15" type="curve"/>
      <point x="218" y="2"/>
      <point x="206" y="0"/>
      <point x="177" y="0" type="curve" smooth="yes"/>
      <point x="68" y="0" type="line" smooth="yes"/>
      <point x="29" y="0"/>
      <point x="14" y="11"/>
      <point x="14" y="39" type="curve" smooth="yes"/>
      <point x="14" y="54"/>
      <point x="22" y="71"/>
      <point x="36" y="82" type="curve" smooth="yes"/>
      <point x="52" y="94"/>
      <point x="60" y="97"/>
      <point x="89" y="97" type="curve" smooth="yes"/>
      <point x="95" y="97" type="line"/>
      <point x="184" y="508" type="line"/>
      <point x="167" y="508" type="line" smooth="yes"/>
      <point x="126" y="508"/>
      <point x="111" y="518"/>
      <point x="111" y="546" type="curve" smooth="yes"/>
      <point x="111" y="562"/>
      <point x="121" y="580"/>
      <point x="134" y="591" type="curve"/>
      <point x="148" y="601"/>
      <point x="157" y="604"/>
      <point x="187" y="604" type="curve" smooth="yes"/>
    </contour>
  </outline>
</glyph>
<glyph name="Hbar" format="1">
  <advance width="600"/>
  <unicode hex="0126"/>
  <outline>
    <contour>
      <point x="402" y="225" type="line"/>
      <point x="194" y="225" type="line"/>
      <point x="166" y="97" type="line"/>
      <point x="182" y="97" type="line" smooth="yes"/>
      <point x="198" y="97"/>
      <point x="206" y="97"/>
      <point x="214" y="93" type="curve"/>
      <point x="228" y="89"/>
      <point x="234" y="74"/>
      <point x="234" y="57" type="curve" smooth="yes"/>
      <point x="234" y="43"/>
      <point x="228" y="26"/>
      <point x="214" y="15" type="curve"/>
      <point x="200" y="2"/>
      <point x="188" y="0"/>
      <point x="160" y="0" type="curve" smooth="yes"/>
      <point x="44" y="0" type="line" smooth="yes"/>
      <point x="4" y="0"/>
      <point x="-12" y="11"/>
      <point x="-12" y="39" type="curve" smooth="yes"/>
      <point x="-12" y="54"/>
      <point x="-2" y="71"/>
      <point x="10" y="82" type="curve" smooth="yes"/>
      <point x="24" y="94"/>
      <point x="34" y="97"/>
      <point x="64" y="97" type="curve" smooth="yes"/>
      <point x="70" y="97" type="line"/>
      <point x="123" y="348" type="line"/>
      <point x="92" y="350"/>
      <point x="79" y="359"/>
      <point x="79" y="385" type="curve" smooth="yes"/>
      <point x="79" y="401"/>
      <point x="88" y="416"/>
      <point x="102" y="428" type="curve" smooth="yes"/>
      <point x="114" y="438"/>
      <point x="123" y="441"/>
      <point x="142" y="442" type="curve"/>
      <point x="148" y="468" type="line"/>
      <point x="122" y="470"/>
      <point x="108" y="482"/>
      <point x="108" y="507" type="curve" smooth="yes"/>
      <point x="108" y="522"/>
      <point x="116" y="539"/>
      <point x="130" y="551" type="curve" smooth="yes"/>
      <point x="144" y="563"/>
      <point x="152" y="565"/>
      <point x="184" y="565" type="curve" smooth="yes"/>
      <point x="280" y="565" type="line" smooth="yes"/>
      <point x="300" y="565"/>
      <point x="306" y="565"/>
      <point x="314" y="561" type="curve"/>
      <point x="326" y="557"/>
      <point x="336" y="542"/>
      <point x="336" y="527" type="curve" smooth="yes"/>
      <point x="336" y="511"/>
      <point x="326" y="492"/>
      <point x="314" y="482" type="curve" smooth="yes"/>
      <point x="298" y="470"/>
      <point x="290" y="468"/>
      <point x="260" y="468" type="curve" smooth="yes"/>
      <point x="246" y="468" type="line"/>
      <point x="240" y="442" type="line"/>
      <point x="447" y="442" type="line"/>
      <point x="452" y="468" type="line"/>
      <point x="438" y="468" type="line" smooth="yes"/>
      <point x="420" y="468"/>
      <point x="414" y="469"/>
      <point x="406" y="472" type="curve" smooth="yes"/>
      <point x="392" y="477"/>
      <point x="384" y="490"/>
      <point x="384" y="507" type="curve" smooth="yes"/>
      <point x="384" y="522"/>
      <point x="392" y="539"/>
      <point x="408" y="551" type="curve"/>
      <point x="420" y="563"/>
      <point x="430" y="565"/>
      <point x="460" y="565" type="curve" smooth="yes"/>
      <point x="556" y="565" type="line" smooth="yes"/>
      <point x="576" y="565"/>
      <point x="582" y="565"/>
      <point x="590" y="561" type="curve"/>
      <point x="602" y="557"/>
      <point x="612" y="542"/>
      <point x="612" y="527" type="curve" smooth="yes"/>
      <point x="612" y="495"/>
      <point x="586" y="470"/>
      <point x="548" y="468" type="curve"/>
      <point x="543" y="442" type="line"/>
      <point x="562" y="442"/>
      <point x="566" y="442"/>
      <point x="575" y="438" type="curve" smooth="yes"/>
      <point x="588" y="433"/>
      <point x="597" y="422"/>
      <point x="597" y="405" type="curve" smooth="yes"/>
      <point x="597" y="389"/>
      <point x="588" y="375"/>
      <point x="574" y="363" type="curve" smooth="yes"/>
      <point x="561" y="352"/>
      <point x="549" y="348"/>
      <point x="523" y="348" type="curve"/>
      <point x="470" y="97" type="line"/>
      <point x="476" y="97" type="line" smooth="yes"/>
      <point x="496" y="97"/>
      <point x="502" y="97"/>
      <point x="510" y="93" type="curve"/>
      <point x="522" y="89"/>
      <point x="532" y="74"/>
      <point x="532" y="57" type="curve" smooth="yes"/>
      <point x="532" y="43"/>
      <point x="522" y="26"/>
      <point x="508" y="15" type="curve"/>
      <point x="496" y="2"/>
      <point x="482" y="0"/>
      <point x="456" y="0" type="curve" smooth="yes"/>
      <point x="338" y="0" type="line" smooth="yes"/>
      <point x="300" y="0"/>
      <point x="284" y="11"/>
      <point x="284" y="39" type="curve" smooth="yes"/>
      <point x="284" y="54"/>
      <point x="292" y="71"/>
      <point x="306" y="82" type="curve" smooth="yes"/>
      <point x="320" y="94"/>
      <point x="328" y="97"/>
      <point x="360" y="97" type="curve" smooth="yes"/>
      <point x="374" y="97" type="line"/>
    </contour>
    <contour>
      <point x="428" y="348" type="line"/>
      <point x="220" y="348" type="line"/>
      <point x="214" y="321" type="line"/>
      <point x="422" y="321" type="line"/>
    </contour>
  </outline>
</glyph>
<glyph name="hbar" format="1">
  <advance width="600"/>
  <unicode hex="0127"/>
  <outline>
    <contour>
      <point x="183" y="434" type="line"/>
      <point x="162" y="434" type="line" smooth="yes"/>
      <point x="121" y="434"/>
      <point x="105" y="441"/>
      <point x="105" y="470" type="curve" smooth="yes"/>
      <point x="105" y="486"/>
      <point x="114" y="501"/>
      <point x="128" y="513" type="curve" smooth="yes"/>
      <point x="143" y="525"/>
      <point x="152" y="527"/>
      <point x="183" y="527" type="curve" smooth="yes"/>
      <point x="203" y="527" type="line"/>
      <point x="208" y="552" type="line"/>
      <point x="191" y="552" type="line" smooth="yes"/>
      <point x="150" y="552"/>
      <point x="135" y="562"/>
      <point x="135" y="590" type="curve" smooth="yes"/>
      <point x="135" y="606"/>
      <point x="145" y="624"/>
      <point x="158" y="635" type="curve"/>
      <point x="172" y="645"/>
      <point x="181" y="648"/>
      <point x="211" y="648" type="curve" smooth="yes"/>
      <point x="324" y="648" type="line"/>
      <point x="299" y="527" type="line"/>
      <point x="326" y="527" type="line" smooth="yes"/>
      <point x="348" y="527"/>
      <point x="352" y="527"/>
      <point x="361" y="523" type="curve" smooth="yes"/>
      <point x="374" y="518"/>
      <point x="383" y="507"/>
      <point x="383" y="490" type="curve" smooth="yes"/>
      <point x="383" y="474"/>
      <point x="374" y="461"/>
      <point x="360" y="449" type="curve" smooth="yes"/>
      <point x="346" y="437"/>
      <point x="334" y="434"/>
      <point x="305" y="434" type="curve" smooth="yes"/>
      <point x="279" y="434" type="line"/>
      <point x="267" y="378" type="line"/>
      <point x="313" y="417"/>
      <point x="361" y="436"/>
      <point x="412" y="436" type="curve" smooth="yes"/>
      <point x="497" y="436"/>
      <point x="553" y="388"/>
      <point x="553" y="315" type="curve" smooth="yes"/>
      <point x="553" y="302"/>
      <point x="552" y="290"/>
      <point x="549" y="275" type="curve" smooth="yes"/>
      <point x="510" y="97" type="line"/>
      <point x="516" y="97" type="line" smooth="yes"/>
      <point x="536" y="97"/>
      <point x="543" y="97"/>
      <point x="551" y="93" type="curve" smooth="yes"/>
      <point x="563" y="88"/>
      <point x="571" y="74"/>
      <point x="571" y="57" type="curve" smooth="yes"/>
      <point x="571" y="43"/>
      <point x="563" y="26"/>
      <point x="549" y="15" type="curve"/>
      <point x="536" y="2"/>
      <point x="524" y="0"/>
      <point x="496" y="0" type="curve" smooth="yes"/>
      <point x="388" y="0" type="line" smooth="yes"/>
      <point x="347" y="0"/>
      <point x="332" y="11"/>
      <point x="332" y="39" type="curve" smooth="yes"/>
      <point x="332" y="54"/>
      <point x="342" y="71"/>
      <point x="354" y="82" type="curve" smooth="yes"/>
      <point x="368" y="94"/>
      <point x="378" y="97"/>
      <point x="409" y="97" type="curve" smooth="yes"/>
      <point x="415" y="97" type="line"/>
      <point x="450" y="263" type="line" smooth="yes"/>
      <point x="453" y="274"/>
      <point x="453" y="285"/>
      <point x="453" y="293" type="curve" smooth="yes"/>
      <point x="453" y="321"/>
      <point x="425" y="339"/>
      <point x="381" y="339" type="curve" smooth="yes"/>
      <point x="334" y="339"/>
      <point x="311" y="329"/>
      <point x="245" y="274" type="curve"/>
      <point x="207" y="97" type="line"/>
      <point x="213" y="97" type="line" smooth="yes"/>
      <point x="233" y="97"/>
      <point x="238" y="97"/>
      <point x="247" y="93" type="curve" smooth="yes"/>
      <point x="257" y="88"/>
      <point x="268" y="74"/>
      <point x="268" y="57" type="curve" smooth="yes"/>
      <point x="268" y="43"/>
      <point x="260" y="24"/>
      <point x="246" y="15" type="curve"/>
      <point x="233" y="2"/>
      <point x="221" y="0"/>
      <point x="192" y="0" type="curve" smooth="yes"/>
      <point x="83" y="0" type="line" smooth="yes"/>
      <point x="44" y="0"/>
      <point x="29" y="11"/>
      <point x="29" y="39" type="curve" smooth="yes"/>
      <point x="29" y="54"/>
      <point x="37" y="71"/>
      <point x="51" y="82" type="curve" smooth="yes"/>
      <point x="67" y="94"/>
      <point x="75" y="97"/>
      <point x="104" y="97" type="curve" smooth="yes"/>
      <point x="110" y="97" type="line"/>
    </contour>
  </outline>
</glyph>
<glyph name="Itilde" format="1">
  <advance width="600"/>
  <unicode hex="0128"/>
  <outline>
    <contour>
      <point x="540" y="733" type="curve" smooth="yes"/>
      <point x="553" y="733"/>
      <point x="566" y="721"/>
      <point x="566" y="710" type="curve" smooth="yes"/>
      <point x="566" y="698"/>
      <point x="557" y="684"/>
      <point x="538" y="663" type="curve" smooth="yes"/>
      <point x="498" y="620"/>
      <point x="469" y="604"/>
      <point x="438" y="604" type="curve" smooth="yes"/>
      <point x="416" y="604"/>
      <point x="386" y="618"/>
      <point x="350" y="646" type="curve" smooth="yes"/>
      <point x="329" y="662"/>
      <point x="322" y="666"/>
      <point x="307" y="666" type="curve" smooth="yes"/>
      <point x="290" y="666"/>
      <point x="281" y="659"/>
      <point x="243" y="621" type="curve"/>
      <point x="234" y="610"/>
      <point x="226" y="605"/>
      <point x="216" y="605" type="curve" smooth="yes"/>
      <point x="202" y="605"/>
      <point x="192" y="616"/>
      <point x="192" y="629" type="curve" smooth="yes"/>
      <point x="192" y="646"/>
      <point x="205" y="664"/>
      <point x="230" y="688" type="curve" smooth="yes"/>
      <point x="260" y="717"/>
      <point x="292" y="733"/>
      <point x="319" y="733" type="curve" smooth="yes"/>
      <point x="341" y="733"/>
      <point x="357" y="725"/>
      <point x="399" y="695" type="curve"/>
      <point x="427" y="677"/>
      <point x="439" y="671"/>
      <point x="450" y="671" type="curve" smooth="yes"/>
      <point x="465" y="671"/>
      <point x="469" y="674"/>
      <point x="496" y="703" type="curve" smooth="yes"/>
      <point x="515" y="723"/>
      <point x="528" y="733"/>
    </contour>
    <contour>
      <point x="383" y="468" type="line"/>
      <point x="305" y="97" type="line"/>
      <point x="401" y="97" type="line" smooth="yes"/>
      <point x="421" y="97"/>
      <point x="428" y="97"/>
      <point x="435" y="93" type="curve"/>
      <point x="447" y="89"/>
      <point x="456" y="74"/>
      <point x="456" y="59" type="curve" smooth="yes"/>
      <point x="456" y="43"/>
      <point x="447" y="26"/>
      <point x="434" y="15" type="curve"/>
      <point x="421" y="2"/>
      <point x="410" y="0"/>
      <point x="381" y="0" type="curve" smooth="yes"/>
      <point x="90" y="0" type="line" smooth="yes"/>
      <point x="49" y="0"/>
      <point x="34" y="11"/>
      <point x="34" y="39" type="curve" smooth="yes"/>
      <point x="34" y="54"/>
      <point x="43" y="71"/>
      <point x="57" y="82" type="curve"/>
      <point x="71" y="95"/>
      <point x="80" y="97"/>
      <point x="110" y="97" type="curve" smooth="yes"/>
      <point x="208" y="97" type="line"/>
      <point x="286" y="468" type="line"/>
      <point x="188" y="468" type="line" smooth="yes"/>
      <point x="149" y="468"/>
      <point x="135" y="479"/>
      <point x="135" y="507" type="curve" smooth="yes"/>
      <point x="135" y="522"/>
      <point x="142" y="539"/>
      <point x="155" y="550" type="curve" smooth="yes"/>
      <point x="170" y="563"/>
      <point x="178" y="565"/>
      <point x="209" y="565" type="curve" smooth="yes"/>
      <point x="501" y="565" type="line" smooth="yes"/>
      <point x="521" y="565"/>
      <point x="527" y="565"/>
      <point x="535" y="561" type="curve"/>
      <point x="548" y="557"/>
      <point x="556" y="542"/>
      <point x="556" y="527" type="curve" smooth="yes"/>
      <point x="556" y="511"/>
      <point x="548" y="492"/>
      <point x="534" y="482" type="curve" smooth="yes"/>
      <point x="518" y="470"/>
      <point x="510" y="468"/>
      <point x="480" y="468" type="curve" smooth="yes"/>
    </contour>
  </outline>
</glyph>
<glyph name="itilde" format="1">
  <advance width="600"/>
  <unicode hex="0129"/>
  <outline>
    <contour>
      <point x="534" y="591" type="curve" smooth="yes"/>
      <point x="548" y="591"/>
      <point x="560" y="579"/>
      <point x="560" y="568" type="curve" smooth="yes"/>
      <point x="560" y="556"/>
      <point x="552" y="542"/>
      <point x="532" y="521" type="curve" smooth="yes"/>
      <point x="492" y="478"/>
      <point x="464" y="462"/>
      <point x="432" y="462" type="curve" smooth="yes"/>
      <point x="410" y="462"/>
      <point x="380" y="476"/>
      <point x="344" y="504" type="curve" smooth="yes"/>
      <point x="324" y="520"/>
      <point x="316" y="524"/>
      <point x="302" y="524" type="curve" smooth="yes"/>
      <point x="284" y="524"/>
      <point x="276" y="517"/>
      <point x="238" y="479" type="curve" smooth="yes"/>
      <point x="228" y="468"/>
      <point x="220" y="463"/>
      <point x="210" y="463" type="curve" smooth="yes"/>
      <point x="196" y="463"/>
      <point x="186" y="474"/>
      <point x="186" y="487" type="curve" smooth="yes"/>
      <point x="186" y="504"/>
      <point x="200" y="522"/>
      <point x="224" y="546" type="curve" smooth="yes"/>
      <point x="254" y="575"/>
      <point x="286" y="591"/>
      <point x="314" y="591" type="curve" smooth="yes"/>
      <point x="336" y="591"/>
      <point x="352" y="583"/>
      <point x="394" y="553" type="curve"/>
      <point x="422" y="535"/>
      <point x="434" y="529"/>
      <point x="444" y="529" type="curve" smooth="yes"/>
      <point x="460" y="529"/>
      <point x="464" y="532"/>
      <point x="490" y="561" type="curve"/>
      <point x="510" y="581"/>
      <point x="522" y="591"/>
    </contour>
    <contour>
      <point x="398" y="423" type="line"/>
      <point x="330" y="97" type="line"/>
      <point x="446" y="97" type="line" smooth="yes"/>
      <point x="466" y="97"/>
      <point x="472" y="97"/>
      <point x="482" y="93" type="curve" smooth="yes"/>
      <point x="494" y="89"/>
      <point x="502" y="74"/>
      <point x="502" y="57" type="curve" smooth="yes"/>
      <point x="502" y="43"/>
      <point x="494" y="26"/>
      <point x="480" y="15" type="curve" smooth="yes"/>
      <point x="466" y="4"/>
      <point x="454" y="0"/>
      <point x="426" y="0" type="curve" smooth="yes"/>
      <point x="94" y="0" type="line" smooth="yes"/>
      <point x="56" y="0"/>
      <point x="40" y="11"/>
      <point x="40" y="39" type="curve" smooth="yes"/>
      <point x="40" y="54"/>
      <point x="48" y="71"/>
      <point x="62" y="82" type="curve"/>
      <point x="76" y="95"/>
      <point x="84" y="97"/>
      <point x="116" y="97" type="curve" smooth="yes"/>
      <point x="234" y="97" type="line"/>
      <point x="282" y="326" type="line"/>
      <point x="206" y="326" type="line" smooth="yes"/>
      <point x="164" y="326"/>
      <point x="150" y="337"/>
      <point x="150" y="365" type="curve" smooth="yes"/>
      <point x="150" y="381"/>
      <point x="158" y="398"/>
      <point x="172" y="409" type="curve"/>
      <point x="188" y="420"/>
      <point x="196" y="423"/>
      <point x="226" y="423" type="curve" smooth="yes"/>
    </contour>
  </outline>
</glyph>
<glyph name="Imacron" format="1">
  <advance width="600"/>
  <unicode hex="012A"/>
  <outline>
    <contour>
      <point x="453" y="483" type="line"/>
      <point x="372" y="100" type="line"/>
      <point x="472" y="100" type="line" smooth="yes"/>
      <point x="492" y="100"/>
      <point x="499" y="99"/>
      <point x="507" y="96" type="curve" smooth="yes"/>
      <point x="520" y="92"/>
      <point x="529" y="77"/>
      <point x="529" y="61" type="curve" smooth="yes"/>
      <point x="529" y="44"/>
      <point x="520" y="27"/>
      <point x="506" y="15" type="curve" smooth="yes"/>
      <point x="492" y="3"/>
      <point x="480" y="0"/>
      <point x="451" y="0" type="curve" smooth="yes"/>
      <point x="150" y="0" type="line" smooth="yes"/>
      <point x="109" y="0"/>
      <point x="93" y="11"/>
      <point x="93" y="40" type="curve" smooth="yes"/>
      <point x="93" y="56"/>
      <point x="102" y="73"/>
      <point x="116" y="85" type="curve" smooth="yes"/>
      <point x="131" y="98"/>
      <point x="139" y="100"/>
      <point x="171" y="100" type="curve" smooth="yes"/>
      <point x="272" y="100" type="line"/>
      <point x="353" y="483" type="line"/>
      <point x="252" y="483" type="line" smooth="yes"/>
      <point x="211" y="483"/>
      <point x="196" y="494"/>
      <point x="196" y="523" type="curve" smooth="yes"/>
      <point x="196" y="539"/>
      <point x="205" y="557"/>
      <point x="219" y="568" type="curve" smooth="yes"/>
      <point x="234" y="581"/>
      <point x="242" y="583"/>
      <point x="274" y="583" type="curve" smooth="yes"/>
      <point x="575" y="583" type="line" smooth="yes"/>
      <point x="595" y="583"/>
      <point x="602" y="582"/>
      <point x="610" y="579" type="curve" smooth="yes"/>
      <point x="622" y="575"/>
      <point x="632" y="559"/>
      <point x="632" y="544" type="curve" smooth="yes"/>
      <point x="632" y="527"/>
      <point x="623" y="509"/>
      <point x="609" y="498" type="curve" smooth="yes"/>
      <point x="594" y="486"/>
      <point x="584" y="483"/>
      <point x="554" y="483" type="curve" smooth="yes"/>
    </contour>
    <contour>
      <point x="336" y="776" type="curve" smooth="yes"/>
      <point x="580" y="776" type="line" smooth="yes"/>
      <point x="613" y="776"/>
      <point x="625" y="767"/>
      <point x="625" y="743" type="curve" smooth="yes"/>
      <point x="625" y="716"/>
      <point x="599" y="696"/>
      <point x="563" y="696" type="curve" smooth="yes"/>
      <point x="319" y="696" type="line" smooth="yes"/>
      <point x="286" y="696"/>
      <point x="274" y="704"/>
      <point x="274" y="729" type="curve" smooth="yes"/>
      <point x="274" y="757"/>
      <point x="299" y="776"/>
    </contour>
  </outline>
</glyph>
<glyph name="imacron" format="1">
  <advance width="600"/>
  <unicode hex="012B"/>
  <outline>
    <contour>
      <point x="443" y="437" type="line"/>
      <point x="372" y="100" type="line"/>
      <point x="493" y="100" type="line" smooth="yes"/>
      <point x="513" y="100"/>
      <point x="520" y="99"/>
      <point x="528" y="96" type="curve" smooth="yes"/>
      <point x="541" y="92"/>
      <point x="550" y="76"/>
      <point x="550" y="60" type="curve" smooth="yes"/>
      <point x="550" y="44"/>
      <point x="541" y="27"/>
      <point x="527" y="15" type="curve" smooth="yes"/>
      <point x="513" y="4"/>
      <point x="500" y="0"/>
      <point x="472" y="0" type="curve" smooth="yes"/>
      <point x="129" y="0" type="line" smooth="yes"/>
      <point x="88" y="0"/>
      <point x="72" y="11"/>
      <point x="72" y="40" type="curve" smooth="yes"/>
      <point x="72" y="56"/>
      <point x="81" y="73"/>
      <point x="95" y="85" type="curve" smooth="yes"/>
      <point x="110" y="98"/>
      <point x="118" y="100"/>
      <point x="150" y="100" type="curve" smooth="yes"/>
      <point x="272" y="100" type="line"/>
      <point x="322" y="337" type="line"/>
      <point x="244" y="337" type="line" smooth="yes"/>
      <point x="202" y="337"/>
      <point x="186" y="348"/>
      <point x="186" y="377" type="curve" smooth="yes"/>
      <point x="186" y="393"/>
      <point x="195" y="411"/>
      <point x="209" y="422" type="curve" smooth="yes"/>
      <point x="224" y="435"/>
      <point x="233" y="437"/>
      <point x="265" y="437" type="curve" smooth="yes"/>
    </contour>
    <contour>
      <point x="311" y="626" type="curve" smooth="yes"/>
      <point x="555" y="626" type="line" smooth="yes"/>
      <point x="588" y="626"/>
      <point x="600" y="617"/>
      <point x="600" y="593" type="curve" smooth="yes"/>
      <point x="600" y="566"/>
      <point x="574" y="546"/>
      <point x="538" y="546" type="curve" smooth="yes"/>
      <point x="294" y="546" type="line" smooth="yes"/>
      <point x="261" y="546"/>
      <point x="249" y="554"/>
      <point x="249" y="579" type="curve" smooth="yes"/>
      <point x="249" y="607"/>
      <point x="274" y="626"/>
    </contour>
  </outline>
</glyph>
<glyph name="Ibreve" format="1">
  <advance width="600"/>
  <unicode hex="012C"/>
  <outline>
    <contour>
      <point x="266" y="782" type="curve" smooth="yes"/>
      <point x="284" y="782"/>
      <point x="290" y="772"/>
      <point x="288" y="745" type="curve"/>
      <point x="288" y="699"/>
      <point x="322" y="670"/>
      <point x="378" y="670" type="curve" smooth="yes"/>
      <point x="430" y="670"/>
      <point x="478" y="698"/>
      <point x="496" y="743" type="curve"/>
      <point x="510" y="773"/>
      <point x="518" y="782"/>
      <point x="538" y="782" type="curve" smooth="yes"/>
      <point x="554" y="782"/>
      <point x="564" y="772"/>
      <point x="564" y="755" type="curve" smooth="yes"/>
      <point x="564" y="736"/>
      <point x="550" y="706"/>
      <point x="530" y="682" type="curve" smooth="yes"/>
      <point x="488" y="632"/>
      <point x="426" y="603"/>
      <point x="364" y="603" type="curve" smooth="yes"/>
      <point x="284" y="603"/>
      <point x="222" y="657"/>
      <point x="222" y="727" type="curve" smooth="yes"/>
      <point x="222" y="759"/>
      <point x="240" y="782"/>
    </contour>
    <contour>
      <point x="384" y="468" type="line"/>
      <point x="306" y="97" type="line"/>
      <point x="402" y="97" type="line" smooth="yes"/>
      <point x="422" y="97"/>
      <point x="430" y="97"/>
      <point x="436" y="93" type="curve"/>
      <point x="448" y="89"/>
      <point x="458" y="74"/>
      <point x="458" y="59" type="curve" smooth="yes"/>
      <point x="458" y="43"/>
      <point x="448" y="26"/>
      <point x="436" y="15" type="curve" smooth="yes"/>
      <point x="422" y="2"/>
      <point x="412" y="0"/>
      <point x="382" y="0" type="curve" smooth="yes"/>
      <point x="92" y="0" type="line" smooth="yes"/>
      <point x="50" y="0"/>
      <point x="36" y="11"/>
      <point x="36" y="39" type="curve" smooth="yes"/>
      <point x="36" y="54"/>
      <point x="44" y="71"/>
      <point x="58" y="82" type="curve"/>
      <point x="72" y="95"/>
      <point x="82" y="97"/>
      <point x="112" y="97" type="curve" smooth="yes"/>
      <point x="210" y="97" type="line"/>
      <point x="288" y="468" type="line"/>
      <point x="190" y="468" type="line" smooth="yes"/>
      <point x="150" y="468"/>
      <point x="136" y="479"/>
      <point x="136" y="507" type="curve" smooth="yes"/>
      <point x="136" y="522"/>
      <point x="144" y="539"/>
      <point x="156" y="550" type="curve" smooth="yes"/>
      <point x="172" y="563"/>
      <point x="180" y="565"/>
      <point x="210" y="565" type="curve" smooth="yes"/>
      <point x="502" y="565" type="line" smooth="yes"/>
      <point x="522" y="565"/>
      <point x="528" y="565"/>
      <point x="536" y="561" type="curve"/>
      <point x="550" y="557"/>
      <point x="558" y="542"/>
      <point x="558" y="527" type="curve" smooth="yes"/>
      <point x="558" y="511"/>
      <point x="550" y="492"/>
      <point x="536" y="482" type="curve" smooth="yes"/>
      <point x="520" y="470"/>
      <point x="512" y="468"/>
      <point x="482" y="468" type="curve" smooth="yes"/>
    </contour>
  </outline>
</glyph>
<glyph name="ibreve" format="1">
  <advance width="600"/>
  <unicode hex="012D"/>
  <outline>
    <contour>
      <point x="261" y="642" type="curve" smooth="yes"/>
      <point x="279" y="642"/>
      <point x="286" y="632"/>
      <point x="284" y="605" type="curve"/>
      <point x="284" y="559"/>
      <point x="318" y="530"/>
      <point x="373" y="530" type="curve" smooth="yes"/>
      <point x="426" y="530"/>
      <point x="473" y="558"/>
      <point x="492" y="603" type="curve"/>
      <point x="506" y="633"/>
      <point x="514" y="642"/>
      <point x="534" y="642" type="curve" smooth="yes"/>
      <point x="550" y="642"/>
      <point x="560" y="632"/>
      <point x="560" y="615" type="curve" smooth="yes"/>
      <point x="560" y="596"/>
      <point x="546" y="566"/>
      <point x="525" y="542" type="curve" smooth="yes"/>
      <point x="483" y="492"/>
      <point x="421" y="463"/>
      <point x="359" y="463" type="curve" smooth="yes"/>
      <point x="279" y="463"/>
      <point x="218" y="517"/>
      <point x="218" y="587" type="curve" smooth="yes"/>
      <point x="218" y="619"/>
      <point x="235" y="642"/>
    </contour>
    <contour>
      <point x="399" y="423" type="line"/>
      <point x="331" y="97" type="line"/>
      <point x="447" y="97" type="line" smooth="yes"/>
      <point x="467" y="97"/>
      <point x="473" y="97"/>
      <point x="482" y="93" type="curve" smooth="yes"/>
      <point x="494" y="89"/>
      <point x="503" y="74"/>
      <point x="503" y="57" type="curve" smooth="yes"/>
      <point x="503" y="43"/>
      <point x="494" y="26"/>
      <point x="481" y="15" type="curve" smooth="yes"/>
      <point x="467" y="4"/>
      <point x="454" y="0"/>
      <point x="427" y="0" type="curve" smooth="yes"/>
      <point x="95" y="0" type="line" smooth="yes"/>
      <point x="56" y="0"/>
      <point x="40" y="11"/>
      <point x="40" y="39" type="curve" smooth="yes"/>
      <point x="40" y="54"/>
      <point x="48" y="71"/>
      <point x="62" y="82" type="curve" smooth="yes"/>
      <point x="77" y="95"/>
      <point x="85" y="97"/>
      <point x="116" y="97" type="curve" smooth="yes"/>
      <point x="234" y="97" type="line"/>
      <point x="282" y="326" type="line"/>
      <point x="206" y="326" type="line" smooth="yes"/>
      <point x="165" y="326"/>
      <point x="150" y="337"/>
      <point x="150" y="365" type="curve" smooth="yes"/>
      <point x="150" y="381"/>
      <point x="159" y="398"/>
      <point x="172" y="409" type="curve"/>
      <point x="188" y="420"/>
      <point x="196" y="423"/>
      <point x="227" y="423" type="curve" smooth="yes"/>
    </contour>
  </outline>
</glyph>
<glyph name="iogonek" format="1">
  <advance width="600"/>
  <unicode hex="012F"/>
  <outline>
    <contour>
      <point x="443" y="437" type="line"/>
      <point x="372" y="100" type="line"/>
      <point x="493" y="100" type="line" smooth="yes"/>
      <point x="513" y="100"/>
      <point x="520" y="99"/>
      <point x="528" y="96" type="curve" smooth="yes"/>
      <point x="541" y="92"/>
      <point x="550" y="76"/>
      <point x="550" y="61" type="curve" smooth="yes"/>
      <point x="550" y="51"/>
      <point x="546" y="39"/>
      <point x="541" y="31" type="curve" smooth="yes"/>
      <point x="531" y="17"/>
      <point x="531" y="17"/>
      <point x="465" y="-25" type="curve" smooth="yes"/>
      <point x="415" y="-57"/>
      <point x="383" y="-93"/>
      <point x="383" y="-117" type="curve" smooth="yes"/>
      <point x="383" y="-127"/>
      <point x="390" y="-132"/>
      <point x="402" y="-132" type="curve" smooth="yes"/>
      <point x="415" y="-132"/>
      <point x="427" y="-128"/>
      <point x="458" y="-114" type="curve" smooth="yes"/>
      <point x="469" y="-109"/>
      <point x="475" y="-108"/>
      <point x="482" y="-108" type="curve" smooth="yes"/>
      <point x="500" y="-108"/>
      <point x="513" y="-120"/>
      <point x="513" y="-138" type="curve" smooth="yes"/>
      <point x="513" y="-153"/>
      <point x="503" y="-169"/>
      <point x="489" y="-178" type="curve" smooth="yes"/>
      <point x="461" y="-195"/>
      <point x="415" y="-208"/>
      <point x="379" y="-208" type="curve" smooth="yes"/>
      <point x="331" y="-208"/>
      <point x="302" y="-183"/>
      <point x="302" y="-142" type="curve" smooth="yes"/>
      <point x="302" y="-107"/>
      <point x="319" y="-70"/>
      <point x="350" y="-41" type="curve" smooth="yes"/>
      <point x="366" y="-25"/>
      <point x="373" y="-20"/>
      <point x="409" y="0" type="curve"/>
      <point x="129" y="0" type="line" smooth="yes"/>
      <point x="88" y="0"/>
      <point x="72" y="11"/>
      <point x="72" y="40" type="curve" smooth="yes"/>
      <point x="72" y="56"/>
      <point x="81" y="73"/>
      <point x="95" y="85" type="curve" smooth="yes"/>
      <point x="110" y="98"/>
      <point x="118" y="100"/>
      <point x="150" y="100" type="curve" smooth="yes"/>
      <point x="272" y="100" type="line"/>
      <point x="322" y="337" type="line"/>
      <point x="244" y="337" type="line" smooth="yes"/>
      <point x="202" y="337"/>
      <point x="186" y="348"/>
      <point x="186" y="377" type="curve" smooth="yes"/>
      <point x="186" y="393"/>
      <point x="195" y="411"/>
      <point x="209" y="422" type="curve" smooth="yes"/>
      <point x="224" y="435"/>
      <point x="233" y="437"/>
      <point x="265" y="437" type="curve" smooth="yes"/>
    </contour>
    <contour>
      <point x="469" y="623" type="line"/>
      <point x="446" y="518" type="line"/>
      <point x="328" y="518" type="line"/>
      <point x="351" y="623" type="line"/>
    </contour>
  </outline>
</glyph>
<glyph name="IJ" format="1">
  <advance width="600"/>
  <unicode hex="0132"/>
  <outline>
    <contour>
      <point x="211" y="468" type="line"/>
      <point x="132" y="97" type="line"/>
      <point x="140" y="97" type="line" smooth="yes"/>
      <point x="158" y="97"/>
      <point x="166" y="97"/>
      <point x="173" y="93" type="curve"/>
      <point x="187" y="89"/>
      <point x="195" y="74"/>
      <point x="195" y="59" type="curve" smooth="yes"/>
      <point x="195" y="43"/>
      <point x="187" y="26"/>
      <point x="173" y="15" type="curve" smooth="yes"/>
      <point x="158" y="2"/>
      <point x="149" y="0"/>
      <point x="119" y="0" type="curve" smooth="yes"/>
      <point x="4" y="0" type="line" smooth="yes"/>
      <point x="-36" y="0"/>
      <point x="-51" y="11"/>
      <point x="-51" y="39" type="curve" smooth="yes"/>
      <point x="-51" y="54"/>
      <point x="-42" y="71"/>
      <point x="-29" y="82" type="curve" smooth="yes"/>
      <point x="-14" y="95"/>
      <point x="-6" y="97"/>
      <point x="25" y="97" type="curve" smooth="yes"/>
      <point x="35" y="97" type="line"/>
      <point x="114" y="468" type="line"/>
      <point x="103" y="468" type="line" smooth="yes"/>
      <point x="63" y="468"/>
      <point x="49" y="479"/>
      <point x="49" y="507" type="curve" smooth="yes"/>
      <point x="49" y="522"/>
      <point x="57" y="539"/>
      <point x="70" y="550" type="curve" smooth="yes"/>
      <point x="86" y="563"/>
      <point x="93" y="565"/>
      <point x="124" y="565" type="curve" smooth="yes"/>
      <point x="240" y="565" type="line" smooth="yes"/>
      <point x="259" y="565"/>
      <point x="266" y="565"/>
      <point x="273" y="561" type="curve"/>
      <point x="286" y="557"/>
      <point x="295" y="542"/>
      <point x="295" y="527" type="curve" smooth="yes"/>
      <point x="295" y="511"/>
      <point x="286" y="492"/>
      <point x="273" y="482" type="curve" smooth="yes"/>
      <point x="259" y="470"/>
      <point x="248" y="468"/>
      <point x="220" y="468" type="curve" smooth="yes"/>
    </contour>
    <contour>
      <point x="564" y="468" type="line"/>
      <point x="503" y="181" type="line"/>
      <point x="469" y="0"/>
      <point x="450" y="-15"/>
      <point x="336" y="-15" type="curve" smooth="yes"/>
      <point x="279" y="-15"/>
      <point x="204" y="24"/>
      <point x="218" y="109" type="curve"/>
      <point x="238" y="208" type="line"/>
      <point x="245" y="232"/>
      <point x="248" y="241"/>
      <point x="259" y="250" type="curve"/>
      <point x="269" y="264"/>
      <point x="286" y="271"/>
      <point x="303" y="271" type="curve" smooth="yes"/>
      <point x="325" y="271"/>
      <point x="341" y="257"/>
      <point x="341" y="236" type="curve" smooth="yes"/>
      <point x="341" y="228"/>
      <point x="339" y="225"/>
      <point x="336" y="208" type="curve" smooth="yes"/>
      <point x="316" y="113" type="line"/>
      <point x="318" y="84"/>
      <point x="325" y="84"/>
      <point x="356" y="84" type="curve" smooth="yes"/>
      <point x="393" y="84"/>
      <point x="397" y="143"/>
      <point x="408" y="192" type="curve" smooth="yes"/>
      <point x="466" y="468" type="line"/>
      <point x="452" y="468" type="line" smooth="yes"/>
      <point x="413" y="468"/>
      <point x="397" y="479"/>
      <point x="397" y="507" type="curve" smooth="yes"/>
      <point x="397" y="522"/>
      <point x="405" y="539"/>
      <point x="419" y="551" type="curve" smooth="yes"/>
      <point x="434" y="563"/>
      <point x="442" y="565"/>
      <point x="472" y="565" type="curve" smooth="yes"/>
      <point x="595" y="565" type="line" smooth="yes"/>
      <point x="614" y="565"/>
      <point x="622" y="565"/>
      <point x="629" y="561" type="curve"/>
      <point x="641" y="557"/>
      <point x="651" y="542"/>
      <point x="651" y="525" type="curve" smooth="yes"/>
      <point x="651" y="511"/>
      <point x="641" y="492"/>
      <point x="628" y="482" type="curve" smooth="yes"/>
      <point x="614" y="470"/>
      <point x="604" y="468"/>
      <point x="575" y="468" type="curve" smooth="yes"/>
    </contour>
  </outline>
</glyph>
<glyph name="ij" format="1">
  <advance width="600"/>
  <unicode hex="0133"/>
  <outline>
    <contour>
      <point x="316" y="423" type="line"/>
      <point x="248" y="97" type="line"/>
      <point x="326" y="97" type="line" smooth="yes"/>
      <point x="346" y="97"/>
      <point x="352" y="97"/>
      <point x="360" y="93" type="curve"/>
      <point x="372" y="89"/>
      <point x="382" y="74"/>
      <point x="382" y="57" type="curve" smooth="yes"/>
      <point x="382" y="43"/>
      <point x="372" y="26"/>
      <point x="358" y="15" type="curve"/>
      <point x="346" y="4"/>
      <point x="332" y="0"/>
      <point x="306" y="0" type="curve" smooth="yes"/>
      <point x="42" y="0" type="line" smooth="yes"/>
      <point x="2" y="0"/>
      <point x="-14" y="11"/>
      <point x="-14" y="39" type="curve" smooth="yes"/>
      <point x="-14" y="54"/>
      <point x="-6" y="71"/>
      <point x="8" y="82" type="curve"/>
      <point x="22" y="95"/>
      <point x="32" y="97"/>
      <point x="62" y="97" type="curve" smooth="yes"/>
      <point x="150" y="97" type="line"/>
      <point x="200" y="326" type="line"/>
      <point x="124" y="326" type="line" smooth="yes"/>
      <point x="82" y="326"/>
      <point x="68" y="337"/>
      <point x="68" y="365" type="curve" smooth="yes"/>
      <point x="68" y="381"/>
      <point x="76" y="398"/>
      <point x="90" y="409" type="curve" smooth="yes"/>
      <point x="104" y="420"/>
      <point x="114" y="423"/>
      <point x="144" y="423" type="curve" smooth="yes"/>
    </contour>
    <contour>
      <point x="342" y="604" type="line"/>
      <point x="320" y="502" type="line"/>
      <point x="204" y="502" type="line"/>
      <point x="228" y="604" type="line"/>
    </contour>
    <contour>
      <point x="498" y="326" type="line"/>
      <point x="398" y="326" type="line" smooth="yes"/>
      <point x="358" y="326"/>
      <point x="344" y="337"/>
      <point x="344" y="365" type="curve" smooth="yes"/>
      <point x="344" y="381"/>
      <point x="352" y="397"/>
      <point x="366" y="409" type="curve" smooth="yes"/>
      <point x="380" y="420"/>
      <point x="388" y="423"/>
      <point x="418" y="423" type="curve" smooth="yes"/>
      <point x="614" y="423" type="line"/>
      <point x="522" y="-19" type="line" smooth="yes"/>
      <point x="500" y="-121"/>
      <point x="402" y="-198"/>
      <point x="296" y="-198" type="curve" smooth="yes"/>
      <point x="188" y="-198" type="line" smooth="yes"/>
      <point x="148" y="-198"/>
      <point x="132" y="-188"/>
      <point x="132" y="-160" type="curve" smooth="yes"/>
      <point x="132" y="-144"/>
      <point x="140" y="-128"/>
      <point x="154" y="-116" type="curve"/>
      <point x="170" y="-104"/>
      <point x="178" y="-102"/>
      <point x="208" y="-102" type="curve" smooth="yes"/>
      <point x="314" y="-102" type="line" smooth="yes"/>
      <point x="370" y="-102"/>
      <point x="414" y="-70"/>
      <point x="424" y="-19" type="curve" smooth="yes"/>
    </contour>
    <contour>
      <point x="596" y="604" type="line"/>
      <point x="576" y="502" type="line"/>
      <point x="460" y="502" type="line"/>
      <point x="480" y="604" type="line"/>
    </contour>
  </outline>
</glyph>
